<svg xmlns="http://www.w3.org/2000/svg" xmlns:xlink="http://www.w3.org/1999/xlink" width="1366" zoomAndPan="magnify" viewBox="0 0 1024.5 576" height="768" preserveAspectRatio="xMidYMid meet" version="1.0"><path fill="#12370e" d="M 778.058594 361.476562 C 777.890625 361.503906 777.753906 361.597656 777.648438 361.746094 C 777.539062 361.066406 777.21875 360.519531 776.695312 360.109375 C 776.433594 361.402344 776.023438 361.496094 775.46875 360.382812 C 775.378906 360.472656 775.285156 360.5625 775.195312 360.65625 C 775.183594 362.429688 774.953125 363.980469 774.515625 365.300781 C 774.515625 363.386719 774.515625 361.476562 774.515625 359.5625 C 773.421875 359.5625 772.332031 359.5625 771.242188 359.5625 C 771.242188 357.464844 771.242188 355.371094 771.242188 353.277344 C 768.058594 353.277344 764.878906 353.277344 761.695312 353.277344 C 761.617188 354.171875 761.707031 355.039062 761.96875 355.871094 C 761.671875 356.132812 761.355469 356.363281 761.011719 356.554688 C 760.285156 356.191406 759.558594 356.191406 758.832031 356.554688 C 758.695312 357.460938 758.648438 358.375 758.695312 359.289062 C 757.605469 359.289062 756.511719 359.289062 755.421875 359.289062 C 755.421875 360.289062 755.421875 361.292969 755.421875 362.292969 C 755.148438 362.292969 754.875 362.292969 754.605469 362.292969 C 754.648438 361.558594 754.601562 360.832031 754.46875 360.109375 C 753.695312 359.914062 752.925781 359.730469 752.148438 359.5625 C 752.148438 359.378906 752.238281 359.289062 752.421875 359.289062 C 753.347656 359.375 754.257812 359.285156 755.148438 359.015625 C 755.265625 358.089844 755.359375 357.179688 755.421875 356.28125 C 756.351562 356.351562 757.261719 356.261719 758.148438 356.007812 C 758.417969 355.023438 758.511719 354.023438 758.421875 353.003906 C 759.511719 353.003906 760.605469 353.003906 761.695312 353.003906 C 761.695312 351.910156 761.695312 350.816406 761.695312 349.722656 C 764.84375 350.074219 767.980469 350.074219 771.105469 349.722656 C 771.410156 350.746094 771.640625 351.792969 771.785156 352.867188 C 772.691406 353.003906 773.601562 353.046875 774.515625 353.003906 C 774.675781 355.074219 774.675781 356.988281 774.515625 358.742188 C 774.65625 358.929688 774.839844 359.066406 775.058594 359.152344 C 775.964844 359.289062 776.871094 359.332031 777.785156 359.289062 C 777.726562 360.046875 777.816406 360.777344 778.058594 361.476562 Z M 778.058594 361.476562 " fill-opacity="0.31" fill-rule="evenodd"/><path fill="#0c4104" d="M 762.242188 350.269531 C 765.242188 350.269531 768.242188 350.269531 771.242188 350.269531 C 771.242188 351.183594 771.242188 352.09375 771.242188 353.003906 C 768.148438 353.003906 765.058594 353.003906 761.96875 353.003906 C 761.902344 352.0625 761.992188 351.152344 762.242188 350.269531 Z M 762.242188 350.269531 " fill-opacity="1" fill-rule="evenodd"/><path fill="#0c4804" d="M 711.238281 359.289062 C 711.238281 359.378906 711.238281 359.472656 711.238281 359.5625 C 711.324219 360.621094 711.234375 361.621094 710.964844 362.566406 C 709.964844 362.566406 708.964844 362.566406 707.964844 362.566406 C 707.945312 361.617188 707.855469 360.660156 707.691406 359.699219 C 704.695312 359.5625 701.695312 359.515625 698.691406 359.5625 C 698.691406 360.5625 698.691406 361.566406 698.691406 362.566406 C 697.679688 362.609375 696.726562 362.609375 695.828125 362.566406 C 695.484375 363.632812 695.347656 364.726562 695.421875 365.847656 C 694.417969 365.847656 693.417969 365.847656 692.417969 365.847656 C 692.417969 366.757812 692.417969 367.667969 692.417969 368.578125 C 693.4375 368.492188 694.4375 368.582031 695.421875 368.851562 C 695.707031 369.9375 695.707031 371.03125 695.421875 372.132812 C 693.261719 372.21875 691.125 372.128906 689.011719 371.859375 C 688.828125 369.855469 688.828125 367.851562 689.011719 365.847656 C 690.027344 365.585938 691.074219 365.492188 692.148438 365.574219 C 692.148438 363.480469 692.148438 361.382812 692.148438 359.289062 C 693.238281 359.289062 694.328125 359.289062 695.421875 359.289062 C 695.421875 358.195312 695.421875 357.101562 695.421875 356.007812 C 699.785156 356.007812 704.148438 356.007812 708.511719 356.007812 C 708.511719 357.101562 708.511719 358.195312 708.511719 359.289062 C 709.421875 359.289062 710.328125 359.289062 711.238281 359.289062 Z M 711.238281 359.289062 " fill-opacity="1" fill-rule="evenodd"/><path fill="#000000" d="M 752.421875 359.289062 C 752.238281 359.289062 752.148438 359.378906 752.148438 359.5625 C 739.601562 359.5625 727.058594 359.5625 714.511719 359.5625 C 714.246094 360.414062 714.152344 361.328125 714.238281 362.292969 C 713.328125 362.292969 712.421875 362.292969 711.511719 362.292969 C 711.597656 361.328125 711.503906 360.414062 711.238281 359.5625 C 711.238281 359.472656 711.238281 359.378906 711.238281 359.289062 C 711.238281 358.285156 711.238281 357.285156 711.238281 356.28125 C 724.992188 356.191406 738.71875 356.191406 752.421875 356.28125 C 752.421875 357.285156 752.421875 358.285156 752.421875 359.289062 Z M 752.421875 359.289062 " fill-opacity="0.99" fill-rule="evenodd"/><path fill="#0d4406" d="M 771.511719 353.277344 C 772.421875 353.277344 773.332031 353.277344 774.242188 353.277344 C 774.242188 355.191406 774.242188 357.101562 774.242188 359.015625 C 773.332031 359.015625 772.421875 359.015625 771.511719 359.015625 C 771.511719 357.101562 771.511719 355.191406 771.511719 353.277344 Z M 771.511719 353.277344 " fill-opacity="1" fill-rule="evenodd"/><path fill="#2d9f29" d="M 714.511719 359.5625 C 727.058594 359.5625 739.601562 359.5625 752.148438 359.5625 C 752.148438 360.472656 752.148438 361.382812 752.148438 362.292969 C 751.882812 361.53125 751.792969 360.714844 751.875 359.835938 C 742.601562 359.835938 733.332031 359.835938 724.058594 359.835938 C 724.058594 360.746094 724.058594 361.65625 724.058594 362.566406 C 720.964844 362.566406 717.875 362.566406 714.785156 362.566406 C 714.785156 364.664062 714.785156 366.757812 714.785156 368.851562 C 714.785156 368.945312 714.785156 369.035156 714.785156 369.125 C 714.785156 369.21875 714.785156 369.308594 714.785156 369.398438 C 714.519531 370.160156 714.425781 370.980469 714.511719 371.859375 C 713.421875 371.859375 712.328125 371.859375 711.238281 371.859375 C 711.148438 375.09375 711.238281 378.285156 711.511719 381.421875 C 712.511719 381.421875 713.511719 381.421875 714.511719 381.421875 C 714.511719 381.515625 714.511719 381.605469 714.511719 381.695312 C 713.328125 381.695312 712.148438 381.695312 710.964844 381.695312 C 710.964844 378.507812 710.964844 375.320312 710.964844 372.132812 C 710.058594 372.132812 709.148438 372.132812 708.238281 372.132812 C 708.238281 377.324219 708.238281 382.515625 708.238281 387.707031 C 709.152344 387.753906 710.0625 387.707031 710.964844 387.570312 C 711.140625 386.585938 711.320312 385.628906 711.511719 384.703125 C 711.511719 385.796875 711.511719 386.886719 711.511719 387.980469 C 712.511719 387.980469 713.511719 387.980469 714.511719 387.980469 C 714.511719 386.886719 714.511719 385.796875 714.511719 384.703125 C 716.875 384.703125 719.238281 384.703125 721.601562 384.703125 C 721.105469 385.707031 720.925781 386.800781 721.058594 387.980469 C 720.058594 387.980469 719.058594 387.980469 718.058594 387.980469 C 718.058594 389.074219 718.058594 390.167969 718.058594 391.261719 C 715.875 391.261719 713.691406 391.261719 711.511719 391.261719 C 711.511719 392.171875 711.511719 393.082031 711.511719 393.992188 C 714.695312 393.992188 717.875 393.992188 721.058594 393.992188 C 721.058594 395.085938 721.058594 396.179688 721.058594 397.273438 C 722.058594 397.273438 723.058594 397.273438 724.058594 397.273438 C 724.058594 398.367188 724.058594 399.457031 724.058594 400.550781 C 721.875 400.550781 719.695312 400.550781 717.511719 400.550781 C 717.511719 399.550781 717.511719 398.546875 717.511719 397.546875 C 715.421875 397.546875 713.328125 397.546875 711.238281 397.546875 C 711.238281 396.453125 711.238281 395.359375 711.238281 394.265625 C 710.148438 394.265625 709.058594 394.265625 707.964844 394.265625 C 707.964844 393.265625 707.964844 392.261719 707.964844 391.261719 C 706.875 391.261719 705.785156 391.261719 704.691406 391.261719 C 704.691406 384.792969 704.691406 378.328125 704.691406 371.859375 C 705.785156 371.859375 706.875 371.859375 707.964844 371.859375 C 707.964844 369.765625 707.964844 367.667969 707.964844 365.574219 C 709.148438 365.574219 710.328125 365.574219 711.511719 365.574219 C 711.511719 364.570312 711.511719 363.570312 711.511719 362.566406 C 712.511719 362.566406 713.511719 362.566406 714.511719 362.566406 C 714.511719 361.566406 714.511719 360.5625 714.511719 359.5625 Z M 714.511719 359.5625 " fill-opacity="1" fill-rule="evenodd"/><path fill="#074f03" d="M 752.148438 359.5625 C 752.925781 359.730469 753.695312 359.914062 754.46875 360.109375 C 754.601562 360.832031 754.648438 361.558594 754.605469 362.292969 C 754.875 362.292969 755.148438 362.292969 755.421875 362.292969 C 755.421875 362.386719 755.421875 362.476562 755.421875 362.566406 C 754.277344 362.65625 753.183594 362.5625 752.148438 362.292969 C 752.148438 361.382812 752.148438 360.472656 752.148438 359.5625 Z M 752.148438 359.5625 " fill-opacity="1" fill-rule="evenodd"/><path fill="#052102" d="M 711.238281 359.5625 C 711.503906 360.414062 711.597656 361.328125 711.511719 362.292969 C 712.421875 362.292969 713.328125 362.292969 714.238281 362.292969 C 714.152344 361.328125 714.246094 360.414062 714.511719 359.5625 C 714.511719 360.5625 714.511719 361.566406 714.511719 362.566406 C 713.511719 362.566406 712.511719 362.566406 711.511719 362.566406 C 711.511719 363.570312 711.511719 364.570312 711.511719 365.574219 C 710.328125 365.574219 709.148438 365.574219 707.964844 365.574219 C 708.910156 365.304688 709.910156 365.214844 710.964844 365.300781 C 710.964844 364.390625 710.964844 363.480469 710.964844 362.566406 C 711.234375 361.621094 711.324219 360.621094 711.238281 359.5625 Z M 711.238281 359.5625 " fill-opacity="1" fill-rule="evenodd"/><path fill="#30c328" d="M 752.148438 362.292969 C 753.183594 362.5625 754.277344 362.65625 755.421875 362.566406 C 756.421875 362.566406 757.421875 362.566406 758.421875 362.566406 C 758.421875 363.660156 758.421875 364.753906 758.421875 365.847656 C 759.511719 365.847656 760.605469 365.847656 761.695312 365.847656 C 761.695312 369.765625 761.695312 373.679688 761.695312 377.597656 C 761.695312 377.871094 761.695312 378.144531 761.695312 378.417969 C 762.785156 378.417969 763.878906 378.417969 764.96875 378.417969 C 764.96875 382.515625 764.96875 386.613281 764.96875 390.714844 C 763.984375 390.792969 763.03125 390.703125 762.105469 390.441406 C 762.058594 388.480469 761.921875 386.566406 761.695312 384.703125 C 760.84375 384.433594 759.933594 384.34375 758.96875 384.429688 C 759.027344 384.109375 758.9375 383.835938 758.695312 383.609375 C 757.875 383.789062 756.96875 383.878906 755.96875 383.882812 C 755.96875 383.246094 755.96875 382.605469 755.96875 381.96875 C 757.011719 382.125 757.921875 381.941406 758.695312 381.421875 C 758.695312 379.328125 758.695312 377.234375 758.695312 375.136719 C 757.785156 375.136719 756.875 375.136719 755.96875 375.136719 C 756.140625 372.933594 755.957031 370.835938 755.421875 368.851562 C 751.242188 368.851562 747.058594 368.851562 742.875 368.851562 C 742.609375 369.800781 742.519531 370.800781 742.601562 371.859375 C 741.601562 371.859375 740.605469 371.859375 739.601562 371.859375 C 739.601562 375.046875 739.601562 378.234375 739.601562 381.421875 C 738.601562 381.421875 737.601562 381.421875 736.601562 381.421875 C 736.601562 380.332031 736.601562 379.238281 736.601562 378.144531 C 735.511719 378.144531 734.421875 378.144531 733.332031 378.144531 C 733.332031 379.238281 733.332031 380.332031 733.332031 381.421875 C 732.332031 381.421875 731.332031 381.421875 730.332031 381.421875 C 730.332031 378.234375 730.332031 375.046875 730.332031 371.859375 C 729.332031 371.859375 728.332031 371.859375 727.332031 371.859375 C 727.417969 370.800781 727.324219 369.800781 727.058594 368.851562 C 722.964844 368.851562 718.875 368.851562 714.785156 368.851562 C 714.785156 366.757812 714.785156 364.664062 714.785156 362.566406 C 717.875 362.566406 720.964844 362.566406 724.058594 362.566406 C 724.058594 361.65625 724.058594 360.746094 724.058594 359.835938 C 733.332031 359.835938 742.601562 359.835938 751.875 359.835938 C 751.792969 360.714844 751.882812 361.53125 752.148438 362.292969 Z M 752.148438 362.292969 " fill-opacity="1" fill-rule="evenodd"/><path fill="#020502" d="M 758.695312 359.289062 C 759.785156 359.289062 760.875 359.289062 761.96875 359.289062 C 761.96875 360.382812 761.96875 361.476562 761.96875 362.566406 C 762.96875 362.566406 763.96875 362.566406 764.96875 362.566406 C 765.152344 366.753906 765.242188 370.945312 765.242188 375.136719 C 766.257812 375.050781 767.257812 375.140625 768.242188 375.410156 C 768.296875 375.570312 768.390625 375.707031 768.511719 375.820312 C 768.542969 381.867188 768.453125 388.015625 768.242188 394.265625 C 767.242188 394.265625 766.242188 394.265625 765.242188 394.265625 C 765.320312 395.34375 765.230469 396.390625 764.96875 397.410156 C 763.878906 397.546875 762.789062 397.589844 761.695312 397.546875 C 761.859375 398.589844 761.859375 399.589844 761.695312 400.550781 C 759.617188 400.625 757.527344 400.714844 755.421875 400.824219 C 755.421875 401.734375 755.421875 402.648438 755.421875 403.558594 C 752.238281 403.558594 749.058594 403.558594 745.875 403.558594 C 745.875 404.742188 745.875 405.925781 745.875 407.109375 C 744.785156 407.109375 743.695312 407.109375 742.601562 407.109375 C 742.601562 406.015625 742.601562 404.925781 742.601562 403.832031 C 735.421875 403.832031 728.238281 403.832031 721.058594 403.832031 C 721.058594 404.832031 721.058594 405.835938 721.058594 406.835938 C 719.949219 406.785156 718.855469 406.875 717.785156 407.109375 C 713.644531 407.199219 709.554688 407.109375 705.511719 406.835938 C 709.601562 406.835938 713.691406 406.835938 717.785156 406.835938 C 717.785156 405.742188 717.785156 404.652344 717.785156 403.558594 C 716.695312 403.558594 715.601562 403.558594 714.511719 403.558594 C 714.589844 402.574219 714.5 401.617188 714.238281 400.6875 C 712.238281 400.507812 710.238281 400.507812 708.238281 400.6875 C 707.976562 401.617188 707.886719 402.574219 707.964844 403.558594 C 706.875 403.558594 705.785156 403.558594 704.691406 403.558594 C 704.691406 402.554688 704.691406 401.554688 704.691406 400.550781 C 705.695312 400.597656 706.695312 400.550781 707.691406 400.414062 C 707.953125 399.488281 708.042969 398.53125 707.964844 397.546875 C 706.960938 397.589844 705.960938 397.546875 704.964844 397.410156 C 704.703125 396.390625 704.613281 395.34375 704.691406 394.265625 C 703.691406 394.265625 702.691406 394.265625 701.691406 394.265625 C 701.453125 385.738281 701.546875 377.175781 701.964844 368.578125 C 702.855469 368.832031 703.761719 368.921875 704.691406 368.851562 C 704.691406 366.757812 704.691406 364.664062 704.691406 362.566406 C 705.785156 362.566406 706.875 362.566406 707.964844 362.566406 C 708.964844 362.566406 709.964844 362.566406 710.964844 362.566406 C 710.964844 363.480469 710.964844 364.390625 710.964844 365.300781 C 709.910156 365.214844 708.910156 365.304688 707.964844 365.574219 C 707.964844 367.667969 707.964844 369.765625 707.964844 371.859375 C 706.875 371.859375 705.785156 371.859375 704.691406 371.859375 C 704.691406 378.328125 704.691406 384.792969 704.691406 391.261719 C 705.785156 391.261719 706.875 391.261719 707.964844 391.261719 C 707.964844 392.261719 707.964844 393.265625 707.964844 394.265625 C 709.058594 394.265625 710.148438 394.265625 711.238281 394.265625 C 711.238281 395.359375 711.238281 396.453125 711.238281 397.546875 C 713.328125 397.546875 715.421875 397.546875 717.511719 397.546875 C 717.511719 398.546875 717.511719 399.550781 717.511719 400.550781 C 719.695312 400.550781 721.875 400.550781 724.058594 400.550781 C 733.421875 400.550781 742.785156 400.550781 752.148438 400.550781 C 752.148438 399.457031 752.148438 398.367188 752.148438 397.273438 C 753.242188 397.273438 754.332031 397.273438 755.421875 397.273438 C 756.457031 397.542969 757.550781 397.632812 758.695312 397.546875 C 758.695312 397.179688 758.695312 396.816406 758.695312 396.453125 C 758.9375 395.964844 759.210938 395.460938 759.511719 394.949219 C 760.328125 394.8125 761.144531 394.769531 761.96875 394.8125 C 761.96875 393.71875 761.96875 392.628906 761.96875 391.535156 C 763.132812 391.613281 764.269531 391.523438 765.378906 391.261719 C 765.601562 386.933594 765.558594 382.652344 765.242188 378.417969 C 764.027344 378.289062 762.84375 378.015625 761.695312 377.597656 C 761.695312 373.679688 761.695312 369.765625 761.695312 365.847656 C 760.605469 365.847656 759.511719 365.847656 758.421875 365.847656 C 758.421875 364.753906 758.421875 363.660156 758.421875 362.566406 C 757.421875 362.566406 756.421875 362.566406 755.421875 362.566406 C 755.421875 362.476562 755.421875 362.386719 755.421875 362.292969 C 755.421875 361.292969 755.421875 360.289062 755.421875 359.289062 C 756.511719 359.289062 757.605469 359.289062 758.695312 359.289062 Z M 758.695312 359.289062 " fill-opacity="0.985" fill-rule="evenodd"/><path fill="#0c4605" d="M 778.058594 361.476562 C 778.105469 362.054688 778.015625 362.601562 777.785156 363.113281 C 777.601562 364.863281 777.417969 366.640625 777.242188 368.441406 C 775.425781 368.578125 773.605469 368.625 771.785156 368.578125 C 771.519531 366.699219 772.335938 365.972656 774.242188 366.394531 C 774.242188 366.121094 774.242188 365.847656 774.242188 365.574219 C 774.242188 365.390625 774.332031 365.300781 774.515625 365.300781 C 774.953125 363.980469 775.183594 362.429688 775.195312 360.65625 C 775.285156 360.5625 775.378906 360.472656 775.46875 360.382812 C 776.023438 361.496094 776.433594 361.402344 776.695312 360.109375 C 777.21875 360.519531 777.539062 361.066406 777.648438 361.746094 C 777.753906 361.597656 777.890625 361.503906 778.058594 361.476562 Z M 778.058594 361.476562 " fill-opacity="1" fill-rule="evenodd"/><path fill="#143412" d="M 777.785156 363.113281 C 777.785156 365.027344 777.785156 366.941406 777.785156 368.851562 C 775.691406 368.8125 773.601562 368.859375 771.511719 368.988281 C 771.25 367.878906 771.160156 366.738281 771.242188 365.574219 C 772.242188 365.574219 773.242188 365.574219 774.242188 365.574219 C 774.242188 365.847656 774.242188 366.121094 774.242188 366.394531 C 772.335938 365.972656 771.519531 366.699219 771.785156 368.578125 C 773.605469 368.625 775.425781 368.578125 777.242188 368.441406 C 777.417969 366.640625 777.601562 364.863281 777.785156 363.113281 Z M 777.785156 363.113281 " fill-opacity="0.71" fill-rule="evenodd"/><path fill="#002500" d="M 714.785156 369.125 C 714.785156 369.035156 714.785156 368.945312 714.785156 368.851562 C 718.875 368.851562 722.964844 368.851562 727.058594 368.851562 C 727.058594 369.855469 727.058594 370.855469 727.058594 371.859375 C 726.789062 371.003906 726.699219 370.09375 726.785156 369.125 C 722.785156 369.125 718.785156 369.125 714.785156 369.125 Z M 714.785156 369.125 " fill-opacity="1" fill-rule="evenodd"/><path fill="#012600" d="M 742.875 368.851562 C 747.058594 368.851562 751.242188 368.851562 755.421875 368.851562 C 755.421875 370.949219 755.421875 373.042969 755.421875 375.136719 C 755.332031 375.136719 755.242188 375.136719 755.148438 375.136719 C 755.148438 373.132812 755.148438 371.128906 755.148438 369.125 C 751.148438 369.125 747.148438 369.125 743.148438 369.125 C 743.234375 370.09375 743.144531 371.003906 742.875 371.859375 C 742.875 370.855469 742.875 369.855469 742.875 368.851562 Z M 742.875 368.851562 " fill-opacity="1" fill-rule="evenodd"/><path fill="#030303" d="M 714.785156 369.398438 C 714.785156 369.308594 714.785156 369.21875 714.785156 369.125 C 718.785156 369.125 722.785156 369.125 726.785156 369.125 C 726.699219 370.09375 726.789062 371.003906 727.058594 371.859375 C 728 372.128906 729 372.21875 730.058594 372.132812 C 730.058594 375.230469 730.058594 378.328125 730.058594 381.421875 C 729.058594 381.421875 728.058594 381.421875 727.058594 381.421875 C 727.058594 382.425781 727.058594 383.425781 727.058594 384.429688 C 728.058594 384.429688 729.058594 384.429688 730.058594 384.429688 C 730.148438 384.429688 730.238281 384.429688 730.332031 384.429688 C 730.332031 386.707031 730.332031 388.984375 730.332031 391.261719 C 729.332031 391.261719 728.332031 391.261719 727.332031 391.261719 C 727.332031 392.171875 727.332031 393.082031 727.332031 393.992188 C 726.273438 394.519531 725.09375 394.703125 723.785156 394.539062 C 723.699219 393.300781 723.789062 392.117188 724.058594 390.988281 C 725.058594 390.988281 726.058594 390.988281 727.058594 390.988281 C 727.058594 389.984375 727.058594 388.984375 727.058594 387.980469 C 726.058594 387.980469 725.058594 387.980469 724.058594 387.980469 C 724.058594 386.796875 724.058594 385.613281 724.058594 384.429688 C 721.105469 384.15625 718.105469 384.066406 715.058594 384.15625 C 715.101562 383.148438 715.058594 382.148438 714.921875 381.148438 C 713.902344 380.886719 712.859375 380.796875 711.785156 380.875 C 711.785156 378.054688 711.785156 375.230469 711.785156 372.40625 C 712.875 372.40625 713.964844 372.40625 715.058594 372.40625 C 715.003906 371.523438 715.09375 370.65625 715.328125 369.808594 C 715.238281 369.527344 715.054688 369.390625 714.785156 369.398438 Z M 714.785156 369.398438 " fill-opacity="1" fill-rule="evenodd"/><path fill="#010402" d="M 755.148438 375.136719 C 754.148438 375.136719 753.148438 375.136719 752.148438 375.136719 C 752.148438 374.136719 752.148438 373.132812 752.148438 372.132812 C 750.148438 372.132812 748.148438 372.132812 746.148438 372.132812 C 746.148438 373.042969 746.148438 373.953125 746.148438 374.863281 C 745.058594 374.863281 743.96875 374.863281 742.875 374.863281 C 742.875 375.957031 742.875 377.050781 742.875 378.144531 C 742.875 379.238281 742.875 380.332031 742.875 381.421875 C 741.875 381.421875 740.875 381.421875 739.875 381.421875 C 739.875 378.328125 739.875 375.230469 739.875 372.132812 C 740.933594 372.21875 741.933594 372.128906 742.875 371.859375 C 743.144531 371.003906 743.234375 370.09375 743.148438 369.125 C 747.148438 369.125 751.148438 369.125 755.148438 369.125 C 755.148438 371.128906 755.148438 373.132812 755.148438 375.136719 Z M 755.148438 375.136719 " fill-opacity="1" fill-rule="evenodd"/><path fill="#32c12a" d="M 711.238281 369.398438 C 712.148438 369.398438 713.058594 369.398438 713.964844 369.398438 C 713.964844 370.128906 713.964844 370.855469 713.964844 371.585938 C 713.058594 371.585938 712.148438 371.585938 711.238281 371.585938 C 711.238281 370.855469 711.238281 370.128906 711.238281 369.398438 Z M 711.238281 369.398438 " fill-opacity="1" fill-rule="evenodd"/><path fill="#30c328" d="M 714.511719 381.695312 C 714.511719 382.605469 714.511719 383.519531 714.511719 384.429688 C 713.457031 384.34375 712.457031 384.433594 711.511719 384.703125 C 711.320312 385.628906 711.140625 386.585938 710.964844 387.570312 C 710.0625 387.707031 709.152344 387.753906 708.238281 387.707031 C 708.238281 382.515625 708.238281 377.324219 708.238281 372.132812 C 709.148438 372.132812 710.058594 372.132812 710.964844 372.132812 C 710.964844 375.320312 710.964844 378.507812 710.964844 381.695312 C 712.148438 381.695312 713.328125 381.695312 714.511719 381.695312 Z M 714.511719 381.695312 " fill-opacity="1" fill-rule="evenodd"/><path fill="#212221" d="M 723.785156 374.863281 C 723.785156 376.050781 723.785156 377.234375 723.785156 378.417969 C 724.875 378.417969 725.964844 378.417969 727.058594 378.417969 C 727.058594 379.417969 727.058594 380.421875 727.058594 381.421875 C 723.964844 381.421875 720.875 381.421875 717.785156 381.421875 C 717.785156 380.421875 717.785156 379.417969 717.785156 378.417969 C 716.695312 378.417969 715.601562 378.417969 714.511719 378.417969 C 714.511719 377.324219 714.511719 376.230469 714.511719 375.136719 C 715.601562 375.136719 716.695312 375.136719 717.785156 375.136719 C 717.785156 374.136719 717.785156 373.132812 717.785156 372.132812 C 719.785156 372.132812 721.785156 372.132812 723.785156 372.132812 C 723.785156 373.042969 723.785156 373.953125 723.785156 374.863281 Z M 723.785156 374.863281 " fill-opacity="1" fill-rule="evenodd"/><path fill="#212121" d="M 755.148438 375.136719 C 755.242188 375.136719 755.332031 375.136719 755.421875 375.136719 C 755.421875 376.140625 755.421875 377.140625 755.421875 378.144531 C 754.332031 378.144531 753.242188 378.144531 752.148438 378.144531 C 752.148438 379.238281 752.148438 380.332031 752.148438 381.421875 C 749.058594 381.421875 745.96875 381.421875 742.875 381.421875 C 742.875 380.332031 742.875 379.238281 742.875 378.144531 C 743.96875 378.144531 745.058594 378.144531 746.148438 378.144531 C 746.148438 377.050781 746.148438 375.957031 746.148438 374.863281 C 746.148438 373.953125 746.148438 373.042969 746.148438 372.132812 C 748.148438 372.132812 750.148438 372.132812 752.148438 372.132812 C 752.148438 373.132812 752.148438 374.136719 752.148438 375.136719 C 753.148438 375.136719 754.148438 375.136719 755.148438 375.136719 Z M 755.148438 375.136719 " fill-opacity="1" fill-rule="evenodd"/><path fill="#246c1c" d="M 714.511719 371.859375 C 713.566406 372.128906 712.566406 372.21875 711.511719 372.132812 C 711.511719 375.230469 711.511719 378.328125 711.511719 381.421875 C 711.238281 378.285156 711.148438 375.09375 711.238281 371.859375 C 712.328125 371.859375 713.421875 371.859375 714.511719 371.859375 Z M 714.511719 371.859375 " fill-opacity="1" fill-rule="evenodd"/><path fill="#4bb442" d="M 755.421875 368.851562 C 755.957031 370.835938 756.140625 372.933594 755.96875 375.136719 C 755.785156 375.136719 755.605469 375.136719 755.421875 375.136719 C 755.421875 373.042969 755.421875 370.949219 755.421875 368.851562 Z M 755.421875 368.851562 " fill-opacity="1" fill-rule="evenodd"/><path fill="#0f4f0c" d="M 727.058594 368.851562 C 727.324219 369.800781 727.417969 370.800781 727.332031 371.859375 C 728.332031 371.859375 729.332031 371.859375 730.332031 371.859375 C 730.332031 375.046875 730.332031 378.234375 730.332031 381.421875 C 730.238281 381.421875 730.148438 381.421875 730.058594 381.421875 C 730.058594 378.328125 730.058594 375.230469 730.058594 372.132812 C 729 372.21875 728 372.128906 727.058594 371.859375 C 727.058594 370.855469 727.058594 369.855469 727.058594 368.851562 Z M 727.058594 368.851562 " fill-opacity="1" fill-rule="evenodd"/><path fill="#fefffe" d="M 723.785156 374.863281 C 724.875 374.863281 725.964844 374.863281 727.058594 374.863281 C 727.058594 376.050781 727.058594 377.234375 727.058594 378.417969 C 725.964844 378.417969 724.875 378.417969 723.785156 378.417969 C 723.785156 377.234375 723.785156 376.050781 723.785156 374.863281 Z M 723.785156 374.863281 " fill-opacity="1" fill-rule="evenodd"/><path fill="#fefffe" d="M 746.148438 374.863281 C 746.148438 375.957031 746.148438 377.050781 746.148438 378.144531 C 745.058594 378.144531 743.96875 378.144531 742.875 378.144531 C 742.875 377.050781 742.875 375.957031 742.875 374.863281 C 743.96875 374.863281 745.058594 374.863281 746.148438 374.863281 Z M 746.148438 374.863281 " fill-opacity="1" fill-rule="evenodd"/><path fill="#114d0c" d="M 742.875 368.851562 C 742.875 369.855469 742.875 370.855469 742.875 371.859375 C 741.933594 372.128906 740.933594 372.21875 739.875 372.132812 C 739.875 375.230469 739.875 378.328125 739.875 381.421875 C 739.785156 381.421875 739.695312 381.421875 739.601562 381.421875 C 739.601562 378.234375 739.601562 375.046875 739.601562 371.859375 C 740.605469 371.859375 741.601562 371.859375 742.601562 371.859375 C 742.519531 370.800781 742.609375 369.800781 742.875 368.851562 Z M 742.875 368.851562 " fill-opacity="1" fill-rule="evenodd"/><path fill="#212221" d="M 736.601562 381.421875 C 735.511719 381.421875 734.421875 381.421875 733.332031 381.421875 C 733.332031 380.332031 733.332031 379.238281 733.332031 378.144531 C 734.421875 378.144531 735.511719 378.144531 736.601562 378.144531 C 736.601562 379.238281 736.601562 380.332031 736.601562 381.421875 Z M 736.601562 381.421875 " fill-opacity="1" fill-rule="evenodd"/><path fill="#33be2b" d="M 727.058594 381.421875 C 728.058594 381.421875 729.058594 381.421875 730.058594 381.421875 C 730.058594 382.425781 730.058594 383.425781 730.058594 384.429688 C 729.058594 384.429688 728.058594 384.429688 727.058594 384.429688 C 727.058594 383.425781 727.058594 382.425781 727.058594 381.421875 Z M 727.058594 381.421875 " fill-opacity="1" fill-rule="evenodd"/><path fill="#212221" d="M 730.058594 381.421875 C 730.148438 381.421875 730.238281 381.421875 730.332031 381.421875 C 731.332031 381.421875 732.332031 381.421875 733.332031 381.421875 C 733.332031 382.425781 733.332031 383.425781 733.332031 384.429688 C 732.332031 384.429688 731.332031 384.429688 730.332031 384.429688 C 730.238281 384.429688 730.148438 384.429688 730.058594 384.429688 C 730.058594 383.425781 730.058594 382.425781 730.058594 381.421875 Z M 730.058594 381.421875 " fill-opacity="1" fill-rule="evenodd"/><path fill="#31c328" d="M 733.332031 381.421875 C 734.421875 381.421875 735.511719 381.421875 736.601562 381.421875 C 736.601562 382.425781 736.601562 383.425781 736.601562 384.429688 C 737.695312 384.429688 738.785156 384.429688 739.875 384.429688 C 739.875 386.707031 739.875 388.984375 739.875 391.261719 C 740.726562 391.527344 741.636719 391.621094 742.601562 391.535156 C 742.519531 392.5 742.609375 393.414062 742.875 394.265625 C 743.96875 394.265625 745.058594 394.265625 746.148438 394.265625 C 747.238281 394.265625 748.332031 394.265625 749.421875 394.265625 C 749.421875 393.171875 749.421875 392.082031 749.421875 390.988281 C 748.332031 390.988281 747.238281 390.988281 746.148438 390.988281 C 746.148438 389.984375 746.148438 388.984375 746.148438 387.980469 C 747.238281 387.980469 748.332031 387.980469 749.421875 387.980469 C 749.421875 386.980469 749.421875 385.976562 749.421875 384.976562 C 750.332031 384.976562 751.242188 384.976562 752.148438 384.976562 C 752.148438 385.976562 752.148438 386.980469 752.148438 387.980469 C 754.242188 387.980469 756.332031 387.980469 758.421875 387.980469 C 758.421875 389.074219 758.421875 390.167969 758.421875 391.261719 C 759.511719 391.261719 760.605469 391.261719 761.695312 391.261719 C 761.695312 392.261719 761.695312 393.265625 761.695312 394.265625 C 760.695312 394.265625 759.695312 394.265625 758.695312 394.265625 C 758.425781 395.210938 758.335938 396.214844 758.421875 397.273438 C 757.421875 397.273438 756.421875 397.273438 755.421875 397.273438 C 754.332031 397.273438 753.242188 397.273438 752.148438 397.273438 C 752.148438 398.367188 752.148438 399.457031 752.148438 400.550781 C 742.785156 400.550781 733.421875 400.550781 724.058594 400.550781 C 724.058594 399.457031 724.058594 398.367188 724.058594 397.273438 C 723.058594 397.273438 722.058594 397.273438 721.058594 397.273438 C 721.058594 396.179688 721.058594 395.085938 721.058594 393.992188 C 717.875 393.992188 714.695312 393.992188 711.511719 393.992188 C 711.511719 393.082031 711.511719 392.171875 711.511719 391.261719 C 713.691406 391.261719 715.875 391.261719 718.058594 391.261719 C 718.058594 390.167969 718.058594 389.074219 718.058594 387.980469 C 719.058594 387.980469 720.058594 387.980469 721.058594 387.980469 C 720.925781 386.800781 721.105469 385.707031 721.601562 384.703125 C 722.332031 384.703125 723.058594 384.703125 723.785156 384.703125 C 723.699219 385.851562 723.789062 386.945312 724.058594 387.980469 C 724.835938 388.183594 725.65625 388.367188 726.511719 388.527344 C 726.777344 389.234375 726.871094 389.964844 726.785156 390.714844 C 725.820312 390.628906 724.910156 390.71875 724.058594 390.988281 C 723.789062 392.117188 723.699219 393.300781 723.785156 394.539062 C 725.09375 394.703125 726.273438 394.519531 727.332031 393.992188 C 727.597656 393.230469 727.6875 392.410156 727.601562 391.535156 C 728.601562 391.535156 729.601562 391.535156 730.601562 391.535156 C 730.601562 389.347656 730.601562 387.160156 730.601562 384.976562 C 731.578125 384.960938 732.488281 384.78125 733.332031 384.429688 C 733.332031 383.425781 733.332031 382.425781 733.332031 381.421875 Z M 733.332031 381.421875 " fill-opacity="1" fill-rule="evenodd"/><path fill="#212221" d="M 736.601562 381.421875 C 737.601562 381.421875 738.601562 381.421875 739.601562 381.421875 C 739.695312 381.421875 739.785156 381.421875 739.875 381.421875 C 739.875 382.425781 739.875 383.425781 739.875 384.429688 C 738.785156 384.429688 737.695312 384.429688 736.601562 384.429688 C 736.601562 383.425781 736.601562 382.425781 736.601562 381.421875 Z M 736.601562 381.421875 " fill-opacity="1" fill-rule="evenodd"/><path fill="#30c427" d="M 739.875 381.421875 C 740.875 381.421875 741.875 381.421875 742.875 381.421875 C 742.875 382.515625 742.875 383.609375 742.875 384.703125 C 741.847656 384.773438 740.847656 384.679688 739.875 384.429688 C 739.875 383.425781 739.875 382.425781 739.875 381.421875 Z M 739.875 381.421875 " fill-opacity="1" fill-rule="evenodd"/><path fill="#060006" d="M 755.421875 375.136719 C 755.605469 375.136719 755.785156 375.136719 755.96875 375.136719 C 756.875 375.136719 757.785156 375.136719 758.695312 375.136719 C 758.695312 377.234375 758.695312 379.328125 758.695312 381.421875 C 757.605469 381.421875 756.511719 381.421875 755.421875 381.421875 C 755.421875 382.425781 755.421875 383.425781 755.421875 384.429688 C 756.605469 384.429688 757.785156 384.429688 758.96875 384.429688 C 759.933594 384.34375 760.84375 384.433594 761.695312 384.703125 C 761.695312 386.886719 761.695312 389.074219 761.695312 391.261719 C 760.605469 391.261719 759.511719 391.261719 758.421875 391.261719 C 758.421875 390.167969 758.421875 389.074219 758.421875 387.980469 C 756.332031 387.980469 754.242188 387.980469 752.148438 387.980469 C 752.148438 386.980469 752.148438 385.976562 752.148438 384.976562 C 750.199219 384.703125 748.199219 384.613281 746.148438 384.703125 C 746.148438 385.796875 746.148438 386.886719 746.148438 387.980469 C 745.058594 387.980469 743.96875 387.980469 742.875 387.980469 C 742.875 389.074219 742.875 390.167969 742.875 391.261719 C 741.875 391.261719 740.875 391.261719 739.875 391.261719 C 739.875 388.984375 739.875 386.707031 739.875 384.429688 C 740.847656 384.679688 741.847656 384.773438 742.875 384.703125 C 742.875 383.609375 742.875 382.515625 742.875 381.421875 C 745.96875 381.421875 749.058594 381.421875 752.148438 381.421875 C 752.148438 380.332031 752.148438 379.238281 752.148438 378.144531 C 753.242188 378.144531 754.332031 378.144531 755.421875 378.144531 C 755.421875 377.140625 755.421875 376.140625 755.421875 375.136719 Z M 755.421875 375.136719 " fill-opacity="1" fill-rule="evenodd"/><path fill="#175514" d="M 761.695312 377.597656 C 762.84375 378.015625 764.027344 378.289062 765.242188 378.417969 C 765.332031 382.65625 765.238281 386.84375 764.96875 390.988281 C 764.96875 390.894531 764.96875 390.804688 764.96875 390.714844 C 764.96875 386.613281 764.96875 382.515625 764.96875 378.417969 C 763.878906 378.417969 762.785156 378.417969 761.695312 378.417969 C 761.695312 378.144531 761.695312 377.871094 761.695312 377.597656 Z M 761.695312 377.597656 " fill-opacity="1" fill-rule="evenodd"/><path fill="#45b341" d="M 758.695312 381.421875 C 757.921875 381.941406 757.011719 382.125 755.96875 381.96875 C 755.96875 382.605469 755.96875 383.246094 755.96875 383.882812 C 756.96875 383.878906 757.875 383.789062 758.695312 383.609375 C 758.9375 383.835938 759.027344 384.109375 758.96875 384.429688 C 757.785156 384.429688 756.605469 384.429688 755.421875 384.429688 C 755.421875 383.425781 755.421875 382.425781 755.421875 381.421875 C 756.511719 381.421875 757.605469 381.421875 758.695312 381.421875 Z M 758.695312 381.421875 " fill-opacity="1" fill-rule="evenodd"/><path fill="#001400" d="M 714.785156 369.398438 C 715.054688 369.390625 715.238281 369.527344 715.328125 369.808594 C 715.09375 370.65625 715.003906 371.523438 715.058594 372.40625 C 713.964844 372.40625 712.875 372.40625 711.785156 372.40625 C 711.785156 375.230469 711.785156 378.054688 711.785156 380.875 C 712.859375 380.796875 713.902344 380.886719 714.921875 381.148438 C 715.058594 382.148438 715.101562 383.148438 715.058594 384.15625 C 718.105469 384.066406 721.105469 384.15625 724.058594 384.429688 C 720.964844 384.429688 717.875 384.429688 714.785156 384.429688 C 714.871094 383.371094 714.78125 382.371094 714.511719 381.421875 C 713.511719 381.421875 712.511719 381.421875 711.511719 381.421875 C 711.511719 378.328125 711.511719 375.230469 711.511719 372.132812 C 712.566406 372.21875 713.566406 372.128906 714.511719 371.859375 C 714.425781 370.980469 714.519531 370.160156 714.785156 369.398438 Z M 714.785156 369.398438 " fill-opacity="1" fill-rule="evenodd"/><path fill="#145213" d="M 714.511719 381.421875 C 714.78125 382.371094 714.871094 383.371094 714.785156 384.429688 C 717.875 384.429688 720.964844 384.429688 724.058594 384.429688 C 724.058594 385.613281 724.058594 386.796875 724.058594 387.980469 C 723.789062 386.945312 723.699219 385.851562 723.785156 384.703125 C 723.058594 384.703125 722.332031 384.703125 721.601562 384.703125 C 719.238281 384.703125 716.875 384.703125 714.511719 384.703125 C 713.511719 384.703125 712.511719 384.703125 711.511719 384.703125 C 712.457031 384.433594 713.457031 384.34375 714.511719 384.429688 C 714.511719 383.519531 714.511719 382.605469 714.511719 381.695312 C 714.511719 381.605469 714.511719 381.515625 714.511719 381.421875 Z M 714.511719 381.421875 " fill-opacity="1" fill-rule="evenodd"/><path fill="#2d9f2a" d="M 752.148438 384.976562 C 751.242188 384.976562 750.332031 384.976562 749.421875 384.976562 C 749.421875 385.976562 749.421875 386.980469 749.421875 387.980469 C 748.332031 387.980469 747.238281 387.980469 746.148438 387.980469 C 746.148438 386.886719 746.148438 385.796875 746.148438 384.703125 C 748.199219 384.613281 750.199219 384.703125 752.148438 384.976562 Z M 752.148438 384.976562 " fill-opacity="1" fill-rule="evenodd"/><path fill="#001900" d="M 765.242188 378.417969 C 765.558594 382.652344 765.601562 386.933594 765.378906 391.261719 C 764.269531 391.523438 763.132812 391.613281 761.96875 391.535156 C 761.96875 392.628906 761.96875 393.71875 761.96875 394.8125 C 761.144531 394.769531 760.328125 394.8125 759.511719 394.949219 C 759.210938 395.460938 758.9375 395.964844 758.695312 396.453125 C 758.695312 395.722656 758.695312 394.996094 758.695312 394.265625 C 759.695312 394.265625 760.695312 394.265625 761.695312 394.265625 C 761.695312 393.265625 761.695312 392.261719 761.695312 391.261719 C 762.839844 391.347656 763.933594 391.257812 764.96875 390.988281 C 765.238281 386.84375 765.332031 382.65625 765.242188 378.417969 Z M 765.242188 378.417969 " fill-opacity="1" fill-rule="evenodd"/><path fill="#469f40" d="M 761.695312 384.703125 C 761.921875 386.566406 762.058594 388.480469 762.105469 390.441406 C 763.03125 390.703125 763.984375 390.792969 764.96875 390.714844 C 764.96875 390.804688 764.96875 390.894531 764.96875 390.988281 C 763.933594 391.257812 762.839844 391.347656 761.695312 391.261719 C 761.695312 389.074219 761.695312 386.886719 761.695312 384.703125 Z M 761.695312 384.703125 " fill-opacity="1" fill-rule="evenodd"/><path fill="#46ab3f" d="M 730.332031 384.429688 C 731.332031 384.429688 732.332031 384.429688 733.332031 384.429688 C 732.488281 384.78125 731.578125 384.960938 730.601562 384.976562 C 730.601562 387.160156 730.601562 389.347656 730.601562 391.535156 C 729.601562 391.535156 728.601562 391.535156 727.601562 391.535156 C 727.6875 392.410156 727.597656 393.230469 727.332031 393.992188 C 727.332031 393.082031 727.332031 392.171875 727.332031 391.261719 C 728.332031 391.261719 729.332031 391.261719 730.332031 391.261719 C 730.332031 388.984375 730.332031 386.707031 730.332031 384.429688 Z M 730.332031 384.429688 " fill-opacity="1" fill-rule="evenodd"/><path fill="#022000" d="M 711.511719 384.703125 C 712.511719 384.703125 713.511719 384.703125 714.511719 384.703125 C 714.511719 385.796875 714.511719 386.886719 714.511719 387.980469 C 713.511719 387.980469 712.511719 387.980469 711.511719 387.980469 C 711.511719 386.886719 711.511719 385.796875 711.511719 384.703125 Z M 711.511719 384.703125 " fill-opacity="1" fill-rule="evenodd"/><path fill="#030503" d="M 711.785156 384.976562 C 712.601562 384.976562 713.421875 384.976562 714.238281 384.976562 C 714.285156 385.800781 714.238281 386.621094 714.101562 387.433594 C 713.359375 387.691406 712.589844 387.785156 711.785156 387.707031 C 711.785156 386.796875 711.785156 385.886719 711.785156 384.976562 Z M 711.785156 384.976562 " fill-opacity="1" fill-rule="evenodd"/><path fill="#4fa549" d="M 724.058594 387.980469 C 725.058594 387.980469 726.058594 387.980469 727.058594 387.980469 C 727.058594 388.984375 727.058594 389.984375 727.058594 390.988281 C 726.058594 390.988281 725.058594 390.988281 724.058594 390.988281 C 724.910156 390.71875 725.820312 390.628906 726.785156 390.714844 C 726.871094 389.964844 726.777344 389.234375 726.511719 388.527344 C 725.65625 388.367188 724.835938 388.183594 724.058594 387.980469 Z M 724.058594 387.980469 " fill-opacity="1" fill-rule="evenodd"/><path fill="#2c9f27" d="M 746.148438 387.980469 C 746.148438 388.984375 746.148438 389.984375 746.148438 390.988281 C 747.238281 390.988281 748.332031 390.988281 749.421875 390.988281 C 749.421875 392.082031 749.421875 393.171875 749.421875 394.265625 C 748.332031 394.265625 747.238281 394.265625 746.148438 394.265625 C 746.148438 393.265625 746.148438 392.261719 746.148438 391.261719 C 745.058594 391.261719 743.96875 391.261719 742.875 391.261719 C 742.875 390.167969 742.875 389.074219 742.875 387.980469 C 743.96875 387.980469 745.058594 387.980469 746.148438 387.980469 Z M 746.148438 387.980469 " fill-opacity="1" fill-rule="evenodd"/><path fill="#010802" d="M 708.238281 388.253906 C 709.238281 388.253906 710.238281 388.253906 711.238281 388.253906 C 711.238281 389.164062 711.238281 390.078125 711.238281 390.988281 C 710.238281 390.988281 709.238281 390.988281 708.238281 390.988281 C 708.238281 390.078125 708.238281 389.164062 708.238281 388.253906 Z M 708.238281 388.253906 " fill-opacity="1" fill-rule="evenodd"/><path fill="#093a0a" d="M 708.238281 388.253906 C 709.273438 387.984375 710.367188 387.894531 711.511719 387.980469 C 711.597656 389.039062 711.507812 390.042969 711.238281 390.988281 C 711.238281 390.078125 711.238281 389.164062 711.238281 388.253906 C 710.238281 388.253906 709.238281 388.253906 708.238281 388.253906 Z M 708.238281 388.253906 " fill-opacity="1" fill-rule="evenodd"/><path fill="#060007" d="M 742.875 391.261719 C 743.96875 391.261719 745.058594 391.261719 746.148438 391.261719 C 746.148438 392.261719 746.148438 393.265625 746.148438 394.265625 C 745.058594 394.265625 743.96875 394.265625 742.875 394.265625 C 742.875 393.265625 742.875 392.261719 742.875 391.261719 Z M 742.875 391.261719 " fill-opacity="1" fill-rule="evenodd"/><path fill="#42963e" d="M 739.875 391.261719 C 740.875 391.261719 741.875 391.261719 742.875 391.261719 C 742.875 392.261719 742.875 393.265625 742.875 394.265625 C 742.609375 393.414062 742.519531 392.5 742.601562 391.535156 C 741.636719 391.621094 740.726562 391.527344 739.875 391.261719 Z M 739.875 391.261719 " fill-opacity="1" fill-rule="evenodd"/><path fill="#25651f" d="M 758.695312 394.265625 C 758.695312 394.996094 758.695312 395.722656 758.695312 396.453125 C 758.695312 396.816406 758.695312 397.179688 758.695312 397.546875 C 757.550781 397.632812 756.457031 397.542969 755.421875 397.273438 C 756.421875 397.273438 757.421875 397.273438 758.421875 397.273438 C 758.335938 396.214844 758.425781 395.210938 758.695312 394.265625 Z M 758.695312 394.265625 " fill-opacity="1" fill-rule="evenodd"/><path fill="#2d9d29" d="M 705.511719 406.835938 C 705.238281 406.835938 704.964844 406.835938 704.691406 406.835938 C 704.691406 405.742188 704.691406 404.652344 704.691406 403.558594 C 705.785156 403.558594 706.875 403.558594 707.964844 403.558594 C 707.886719 402.574219 707.976562 401.617188 708.238281 400.6875 C 710.238281 400.507812 712.238281 400.507812 714.238281 400.6875 C 714.5 401.617188 714.589844 402.574219 714.511719 403.558594 C 715.601562 403.558594 716.695312 403.558594 717.785156 403.558594 C 717.785156 404.652344 717.785156 405.742188 717.785156 406.835938 C 713.691406 406.835938 709.601562 406.835938 705.511719 406.835938 Z M 705.511719 406.835938 " fill-opacity="1" fill-rule="evenodd"/><path fill="#2c9f27" d="M 755.421875 403.558594 C 755.421875 404.652344 755.421875 405.742188 755.421875 406.835938 C 756.511719 406.835938 757.605469 406.835938 758.695312 406.835938 C 758.695312 408.019531 758.695312 409.207031 758.695312 410.390625 C 755.511719 410.390625 752.332031 410.390625 749.148438 410.390625 C 749.148438 409.296875 749.148438 408.203125 749.148438 407.109375 C 748.058594 407.109375 746.96875 407.109375 745.875 407.109375 C 745.875 405.925781 745.875 404.742188 745.875 403.558594 C 749.058594 403.558594 752.238281 403.558594 755.421875 403.558594 Z M 755.421875 403.558594 " fill-opacity="1" fill-rule="evenodd"/><path fill="#070108" d="M 755.421875 403.558594 C 756.511719 403.558594 757.605469 403.558594 758.695312 403.558594 C 758.695312 404.652344 758.695312 405.742188 758.695312 406.835938 C 758.695312 405.742188 758.695312 404.652344 758.695312 403.558594 C 757.605469 403.558594 756.511719 403.558594 755.421875 403.558594 Z M 755.421875 403.558594 " fill-opacity="1" fill-rule="evenodd"/><path fill="#070108" d="M 758.695312 406.835938 C 759.785156 406.835938 760.875 406.835938 761.96875 406.835938 C 761.96875 408.019531 761.96875 409.207031 761.96875 410.390625 C 760.875 410.390625 759.785156 410.390625 758.695312 410.390625 C 758.695312 409.207031 758.695312 408.019531 758.695312 406.835938 Z M 758.695312 406.835938 " fill-opacity="1" fill-rule="evenodd"/><path fill="#040404" d="M 704.691406 403.558594 C 704.691406 404.652344 704.691406 405.742188 704.691406 406.835938 C 704.964844 406.835938 705.238281 406.835938 705.511719 406.835938 C 709.554688 407.109375 713.644531 407.199219 717.785156 407.109375 C 717.785156 408.113281 717.785156 409.113281 717.785156 410.117188 C 713.511719 410.160156 709.238281 410.117188 704.964844 409.980469 C 704.75 409.046875 704.613281 408.089844 704.554688 407.109375 C 703.617188 406.875 702.707031 406.78125 701.828125 406.835938 C 701.691406 405.746094 701.648438 404.65625 701.691406 403.558594 C 702.691406 403.558594 703.691406 403.558594 704.691406 403.558594 Z M 704.691406 403.558594 " fill-opacity="0.945" fill-rule="evenodd"/><path fill="#000103" d="M 745.875 407.109375 C 746.96875 407.109375 748.058594 407.109375 749.148438 407.109375 C 749.148438 408.203125 749.148438 409.296875 749.148438 410.390625 C 752.332031 410.390625 755.511719 410.390625 758.695312 410.390625 C 758.695312 411.480469 758.695312 412.574219 758.695312 413.667969 C 755.507812 413.757812 752.324219 413.667969 749.148438 413.394531 C 749.042969 412.453125 748.953125 411.453125 748.875 410.390625 C 747.875 410.390625 746.875 410.390625 745.875 410.390625 C 745.875 409.296875 745.875 408.203125 745.875 407.109375 Z M 745.875 407.109375 " fill-opacity="0.993" fill-rule="evenodd"/></svg>