<?xml version="1.0" encoding="UTF-8"?>
<!DOCTYPE svg PUBLIC "-//W3C//DTD SVG 1.1//EN" "http://www.w3.org/Graphics/SVG/1.1/DTD/svg11.dtd">
<svg xmlns="http://www.w3.org/2000/svg" version="1.1" width="736px" height="736px" style="shape-rendering:geometricPrecision; text-rendering:geometricPrecision; image-rendering:optimizeQuality; fill-rule:evenodd; clip-rule:evenodd" xmlns:xlink="http://www.w3.org/1999/xlink">
<g><path style="opacity:1" fill="#b29b9c" d="M 403.5,331.5 C 395.167,331.5 386.833,331.5 378.5,331.5C 383.287,329.428 387.954,326.762 392.5,323.5C 394.772,319.741 396.438,315.741 397.5,311.5C 392.489,311.666 387.489,311.499 382.5,311C 378.496,307.793 374.829,304.293 371.5,300.5C 365.277,298.458 359.277,296.124 353.5,293.5C 352.496,292.317 351.662,290.984 351,289.5C 350.358,281.735 349.191,274.068 347.5,266.5C 344.976,264.307 342.309,262.14 339.5,260C 338.552,259.517 337.552,259.351 336.5,259.5C 336.5,253.167 336.5,246.833 336.5,240.5C 337.167,240.5 337.5,240.167 337.5,239.5C 338.833,238.167 338.833,236.833 337.5,235.5C 337.5,234.833 337.167,234.5 336.5,234.5C 336.167,234.5 335.833,234.5 335.5,234.5C 333.575,230.621 332.242,226.621 331.5,222.5C 331.5,221.833 331.167,221.5 330.5,221.5C 328.486,213.607 326.653,205.607 325,197.5C 323.625,190.917 320.791,185.084 316.5,180C 313.588,178.627 310.754,177.127 308,175.5C 305.293,177.936 302.127,179.436 298.5,180C 292.372,189.083 286.872,198.583 282,208.5C 279.936,210.301 278.102,212.301 276.5,214.5C 265.533,217.165 254.533,219.832 243.5,222.5C 242.224,225.336 241.558,228.336 241.5,231.5C 237.798,232.586 233.964,233.252 230,233.5C 223.453,233.214 216.953,232.547 210.5,231.5C 208.628,230.489 206.628,229.655 204.5,229C 198.881,221.212 191.881,215.045 183.5,210.5C 177.614,205.628 171.78,200.628 166,195.5C 162.201,200.966 158.034,206.132 153.5,211C 152.207,211.49 150.873,211.657 149.5,211.5C 147.449,226.15 145.449,240.817 143.5,255.5C 144.162,258.468 144.495,261.468 144.5,264.5C 144.657,265.873 144.49,267.207 144,268.5C 142.303,270.699 140.803,273.032 139.5,275.5C 141.204,277.849 143.537,278.849 146.5,278.5C 148.738,290.714 143.738,297.381 131.5,298.5C 134.17,302.51 136.837,306.51 139.5,310.5C 141.713,315.598 142.713,320.931 142.5,326.5C 142.42,339.079 136.087,344.912 123.5,344C 125.215,347.887 127.548,351.387 130.5,354.5C 134.654,356.787 138.987,358.62 143.5,360C 156.062,362.355 168.729,363.522 181.5,363.5C 182.643,366.976 182.81,370.642 182,374.5C 177.467,378.852 173.967,383.852 171.5,389.5C 171.406,391.912 172.406,393.745 174.5,395C 178.26,398.374 182.427,401.207 187,403.5C 187.667,407.5 187.667,411.5 187,415.5C 181.148,420.688 175.981,426.521 171.5,433C 172.793,433.49 174.127,433.657 175.5,433.5C 175.665,437.182 175.499,440.848 175,444.5C 172.595,445.274 170.095,445.774 167.5,446C 166.667,446.833 165.833,447.667 165,448.5C 162.055,459.207 159.222,469.874 156.5,480.5C 155.566,481.568 155.232,482.901 155.5,484.5C 154.362,487.304 154.195,490.304 155,493.5C 156.448,499.058 158.448,504.392 161,509.5C 161.495,511.473 161.662,513.473 161.5,515.5C 159.53,525.39 158.197,535.39 157.5,545.5C 157.92,548.279 158.587,550.945 159.5,553.5C 166.177,556.553 173.177,559.053 180.5,561C 186.204,561.687 191.87,561.521 197.5,560.5C 198.139,558.24 199.306,556.24 201,554.5C 202.28,543.16 202.447,531.827 201.5,520.5C 197.077,510.649 194.744,500.315 194.5,489.5C 197.898,489.18 201.232,489.513 204.5,490.5C 209.438,501.31 212.104,512.643 212.5,524.5C 212.5,524.833 212.5,525.167 212.5,525.5C 211.505,537.827 214.338,549.16 221,559.5C 223.845,562.849 227.345,565.183 231.5,566.5C 238.585,565.936 245.585,564.769 252.5,563C 255.534,561.809 257.201,559.642 257.5,556.5C 257.729,554.567 258.562,552.9 260,551.5C 261.118,541.185 261.951,530.852 262.5,520.5C 263.025,511.607 263.692,502.774 264.5,494C 263.069,493.535 261.903,492.701 261,491.5C 258.707,483.025 257.874,474.359 258.5,465.5C 258.5,464.5 258.5,463.5 258.5,462.5C 259.833,462.5 261.167,462.5 262.5,462.5C 265.365,462.055 267.865,462.722 270,464.5C 271.116,470.05 272.782,475.383 275,480.5C 277.147,477.03 278.813,473.363 280,469.5C 283.651,465.795 288.151,464.461 293.5,465.5C 293.665,468.85 293.498,472.183 293,475.5C 288.51,482.454 284.677,489.788 281.5,497.5C 280.505,502.792 280.172,508.125 280.5,513.5C 280.5,518.833 280.5,524.167 280.5,529.5C 277.128,550.905 284.461,567.405 302.5,579C 306.098,579.024 309.432,578.024 312.5,576C 318.956,568.557 326.289,562.057 334.5,556.5C 335.362,555.234 336.029,553.901 336.5,552.5C 344.674,537.302 350.007,520.969 352.5,503.5C 353.272,499.548 353.605,495.548 353.5,491.5C 356.833,491.5 360.167,491.5 363.5,491.5C 363.5,496.5 363.5,501.5 363.5,506.5C 361.789,521.243 358.122,535.409 352.5,549C 355.333,551.001 357.666,553.501 359.5,556.5C 366.217,557.446 372.884,558.279 379.5,559C 383.633,558.292 387.3,556.625 390.5,554C 394.531,553.519 398.531,552.853 402.5,552C 404.833,549.667 407.167,547.333 409.5,545C 410.793,544.51 412.127,544.343 413.5,544.5C 413.822,546.722 413.155,548.556 411.5,550C 420.537,550.413 429.537,549.913 438.5,548.5C 448.767,550.297 459.1,550.797 469.5,550C 477.921,545.895 486.588,542.395 495.5,539.5C 507.237,541.28 517.904,538.947 527.5,532.5C 535.24,529.698 542.906,526.698 550.5,523.5C 566.114,514.39 580.447,503.556 593.5,491C 600.344,488.162 605.678,483.495 609.5,477C 614.13,464.912 619.63,453.412 626,442.5C 626.629,439.689 627.129,436.856 627.5,434C 625.563,418.196 626.563,402.696 630.5,387.5C 631.147,386.726 631.48,385.726 631.5,384.5C 629.495,371.047 624.162,359.214 615.5,349C 613.185,346.894 610.518,346.228 607.5,347C 602.471,348.229 597.804,350.229 593.5,353C 592.663,354.011 592.33,355.178 592.5,356.5C 591.5,356.5 590.5,356.5 589.5,356.5C 587.606,361.45 585.773,366.45 584,371.5C 583.373,382.826 581.373,393.826 578,404.5C 576.152,409.939 573.485,414.939 570,419.5C 563.785,426.248 558.285,433.582 553.5,441.5C 547.719,445.709 541.386,448.876 534.5,451C 527.05,457.064 520.384,463.897 514.5,471.5C 510.226,474.028 505.893,476.362 501.5,478.5C 488.935,482.299 476.268,485.799 463.5,489C 454.836,489.823 446.169,490.156 437.5,490C 433.436,488.111 429.103,487.111 424.5,487C 423.922,485.583 422.922,484.75 421.5,484.5C 421.158,483.662 420.492,483.328 419.5,483.5C 414.511,474.518 409.845,465.518 405.5,456.5C 404.209,456.737 403.209,456.404 402.5,455.5C 407.932,454.388 409.932,451.054 408.5,445.5C 410.861,445.674 413.194,446.007 415.5,446.5C 418.585,454.003 422.251,461.336 426.5,468.5C 429.395,472.772 433.062,476.272 437.5,479C 442.833,479.667 448.167,479.667 453.5,479C 470.053,475.369 486.053,470.369 501.5,464C 505.358,461.642 508.358,458.475 510.5,454.5C 511.325,453.614 512.325,453.281 513.5,453.5C 514.139,451.24 515.306,449.24 517,447.5C 518.011,446.663 519.178,446.33 520.5,446.5C 520.5,445.5 520.5,444.5 520.5,443.5C 528.863,440.199 536.863,436.033 544.5,431C 550.855,420.795 557.855,410.962 565.5,401.5C 567.987,394.201 570.153,386.868 572,379.5C 572.427,373.473 573.093,367.473 574,361.5C 575.988,356.543 577.821,351.543 579.5,346.5C 582.609,344.09 585.942,341.757 589.5,339.5C 600.302,336.59 611.302,335.757 622.5,337C 632.269,346.696 638.435,358.53 641,372.5C 641.667,380.833 641.667,389.167 641,397.5C 639.32,404.411 637.82,411.411 636.5,418.5C 640.9,439.364 636.733,458.031 624,474.5C 622.158,483.187 617.991,490.521 611.5,496.5C 604.994,499.809 598.661,503.476 592.5,507.5C 588.833,511.833 584.833,515.833 580.5,519.5C 573.846,524.828 566.846,529.661 559.5,534C 547.653,538.171 535.986,542.837 524.5,548C 517.542,549.064 510.542,549.731 503.5,550C 494.171,553.331 484.838,556.664 475.5,560C 462.814,560.776 450.147,560.609 437.5,559.5C 425.146,560.686 412.812,561.853 400.5,563C 399.167,564.333 397.833,565.667 396.5,567C 387.823,570.192 378.823,571.192 369.5,570C 364.053,567.96 358.386,566.96 352.5,567C 350.154,563.999 347.154,562.999 343.5,564C 335.392,572.195 327.059,580.195 318.5,588C 310.251,589.406 301.917,589.906 293.5,589.5C 293.5,588.5 293.5,587.5 293.5,586.5C 288.713,586.107 284.713,584.107 281.5,580.5C 276.876,574.248 273.043,567.581 270,560.5C 268.269,569.562 262.769,574.395 253.5,575C 241.134,577.108 228.801,576.942 216.5,574.5C 213.845,572.01 211.345,569.344 209,566.5C 207.812,567.563 207.312,568.897 207.5,570.5C 193.638,571.987 179.805,571.654 166,569.5C 159.081,568.458 153.247,565.458 148.5,560.5C 147.335,550.851 147.168,541.184 148,531.5C 148.118,526.171 148.951,521.005 150.5,516C 149.572,514.024 148.405,512.191 147,510.5C 144.536,498.989 143.869,487.323 145,475.5C 147.441,466.143 150.274,456.976 153.5,448C 152.267,446.302 151.6,444.302 151.5,442C 151.833,440.167 152.167,438.333 152.5,436.5C 158.753,427.572 165.419,418.906 172.5,410.5C 171.167,409.833 169.833,409.167 168.5,408.5C 166.155,405.656 163.655,402.99 161,400.5C 160.504,392.448 161.004,384.448 162.5,376.5C 163.287,375.758 163.953,374.925 164.5,374C 155.735,372.47 146.901,371.303 138,370.5C 131.54,369.179 125.373,367.179 119.5,364.5C 115.427,357.356 111.594,350.023 108,342.5C 107.501,338.848 107.335,335.182 107.5,331.5C 113.842,331.935 120.175,332.102 126.5,332C 127.056,331.617 127.389,331.117 127.5,330.5C 130.303,327.796 131.137,324.463 130,320.5C 129.051,318.907 127.885,317.574 126.5,316.5C 123.023,311.622 120.19,306.289 118,300.5C 117.501,296.179 117.334,291.846 117.5,287.5C 120.5,287.5 123.5,287.5 126.5,287.5C 127.978,287.762 129.311,287.429 130.5,286.5C 129.479,285.099 128.479,283.765 127.5,282.5C 126.626,280.31 124.959,279.31 122.5,279.5C 122.5,274.5 122.5,269.5 122.5,264.5C 126.885,265.206 130.385,263.873 133,260.5C 134.452,240.742 136.618,221.076 139.5,201.5C 141.288,201.785 142.955,201.452 144.5,200.5C 149.285,195.093 153.952,189.593 158.5,184C 163.202,183.172 167.869,183.338 172.5,184.5C 181.245,190.531 189.578,197.031 197.5,204C 199.246,204.471 200.913,205.138 202.5,206C 207.833,210.667 212.833,215.667 217.5,221C 222.213,222.228 226.879,222.394 231.5,221.5C 231.173,216.662 233.173,213.162 237.5,211C 247.333,209.474 256.999,207.307 266.5,204.5C 268.624,202.395 270.624,200.228 272.5,198C 277.56,188.963 282.56,179.963 287.5,171C 291.788,169.523 295.788,167.523 299.5,165C 305.167,164.333 310.833,164.333 316.5,165C 319.871,166.891 323.538,168.058 327.5,168.5C 328.333,170.167 329.167,171.833 330,173.5C 332.179,174.116 334.012,175.283 335.5,177C 333.653,179.579 333.153,182.412 334,185.5C 336.701,196.972 339.701,208.306 343,219.5C 345.263,225.268 349.43,228.601 355.5,229.5C 355.5,232.833 355.5,236.167 355.5,239.5C 354.022,239.238 352.689,239.571 351.5,240.5C 350.352,243.289 349.019,245.956 347.5,248.5C 350.372,251.394 353.705,253.394 357.5,254.5C 358.928,262.77 360.095,271.103 361,279.5C 361.785,281.286 362.951,282.786 364.5,284C 370.066,286.48 375.733,288.814 381.5,291C 384.523,293.61 387.357,296.443 390,299.5C 390.45,297.481 391.283,295.648 392.5,294C 396.755,293.204 400.921,293.371 405,294.5C 407.633,304.699 408.133,315.032 406.5,325.5C 405.794,327.704 404.794,329.704 403.5,331.5 Z M 337.5,498.5 C 339.698,498.875 341.698,499.542 343.5,500.5C 340.918,500.975 338.918,500.308 337.5,498.5 Z M 175.5,511.5 C 174.5,511.5 173.5,511.5 172.5,511.5C 173.26,509.015 174.26,509.015 175.5,511.5 Z"/></g>
<g><path style="opacity:1" fill="#bb847f" d="M 330.5,221.5 C 331.167,221.5 331.5,221.833 331.5,222.5C 332.242,226.621 333.575,230.621 335.5,234.5C 325.442,233.268 315.442,231.601 305.5,229.5C 304.705,224.168 303.038,219.168 300.5,214.5C 292.448,215.44 284.448,215.44 276.5,214.5C 278.102,212.301 279.936,210.301 282,208.5C 286.872,198.583 292.372,189.083 298.5,180C 302.127,179.436 305.293,177.936 308,175.5C 310.754,177.127 313.588,178.627 316.5,180C 320.791,185.084 323.625,190.917 325,197.5C 326.653,205.607 328.486,213.607 330.5,221.5 Z"/></g>
<g><path style="opacity:1" fill="#bb847f" d="M 210.5,231.5 C 206.213,233.735 201.546,234.735 196.5,234.5C 195.508,234.328 194.842,234.662 194.5,235.5C 193.127,235.343 191.793,235.51 190.5,236C 183.908,239.3 177.574,242.967 171.5,247C 170.207,247.49 168.873,247.657 167.5,247.5C 167.879,251.576 166.879,255.243 164.5,258.5C 161.622,260.587 158.622,262.42 155.5,264C 151.848,264.499 148.182,264.665 144.5,264.5C 144.495,261.468 144.162,258.468 143.5,255.5C 145.449,240.817 147.449,226.15 149.5,211.5C 150.873,211.657 152.207,211.49 153.5,211C 158.034,206.132 162.201,200.966 166,195.5C 171.78,200.628 177.614,205.628 183.5,210.5C 191.881,215.045 198.881,221.212 204.5,229C 206.628,229.655 208.628,230.489 210.5,231.5 Z"/></g>
<g><path style="opacity:1" fill="#fefefe" d="M 335.5,234.5 C 335.833,234.5 336.167,234.5 336.5,234.5C 337.167,234.5 337.5,234.833 337.5,235.5C 338.833,236.833 338.833,238.167 337.5,239.5C 336.833,239.5 336.5,239.833 336.5,240.5C 336.5,246.833 336.5,253.167 336.5,259.5C 337.552,259.351 338.552,259.517 339.5,260C 342.309,262.14 344.976,264.307 347.5,266.5C 349.191,274.068 350.358,281.735 351,289.5C 351.662,290.984 352.496,292.317 353.5,293.5C 356.383,296.951 359.716,299.951 363.5,302.5C 364.081,305.375 365.081,308.042 366.5,310.5C 373.362,311.048 380.029,312.548 386.5,315C 385.743,316.512 384.743,317.846 383.5,319C 379.5,321.667 375.5,324.333 371.5,327C 360.609,330.14 349.609,332.806 338.5,335C 337.915,336.302 337.249,337.469 336.5,338.5C 329.825,338.666 323.158,338.5 316.5,338C 314.255,333.675 312.422,329.175 311,324.5C 308.696,320.045 305.863,316.045 302.5,312.5C 305.473,310.194 308.14,307.527 310.5,304.5C 314.842,304.976 319.176,305.643 323.5,306.5C 327.541,306.327 331.541,305.827 335.5,305C 340.022,302.122 342.022,297.955 341.5,292.5C 342.356,287.713 340.689,284.213 336.5,282C 332.554,280.857 328.554,280.024 324.5,279.5C 322.833,279.833 321.167,280.167 319.5,280.5C 318.221,282.146 316.555,283.313 314.5,284C 313.074,286.045 312.074,288.212 311.5,290.5C 312.089,283.212 309.756,277.212 304.5,272.5C 304.5,268.833 304.5,265.167 304.5,261.5C 301.5,261.5 298.5,261.5 295.5,261.5C 290.872,250.549 282.872,246.882 271.5,250.5C 267.078,249.416 262.578,248.749 258,248.5C 253.395,249.054 248.895,250.054 244.5,251.5C 237.185,250.482 229.851,250.316 222.5,251C 215.534,254.484 208.868,258.484 202.5,263C 200.273,265.564 198.439,268.397 197,271.5C 194.708,272.79 192.708,274.457 191,276.5C 188.567,281.898 187.234,287.565 187,293.5C 186.5,300.826 186.334,308.159 186.5,315.5C 184.544,312.461 182.21,309.628 179.5,307C 173.5,306.333 167.5,306.333 161.5,307C 150.834,313.631 148.5,322.631 154.5,334C 161.775,337.414 169.441,338.414 177.5,337C 180.234,336.79 182.734,335.956 185,334.5C 186.283,330.586 187.116,326.586 187.5,322.5C 187.987,326.51 189.653,330.01 192.5,333C 196.692,336.532 201.359,339.198 206.5,341C 220.541,342.852 234.541,342.685 248.5,340.5C 246.729,348.353 246.062,356.353 246.5,364.5C 243.813,364.336 241.146,364.503 238.5,365C 227.928,370.962 217.594,377.462 207.5,384.5C 203.827,387.007 200.66,390.007 198,393.5C 195.787,402.25 197.953,409.416 204.5,415C 210.901,417.918 216.901,421.418 222.5,425.5C 221.414,425.62 220.747,426.287 220.5,427.5C 222.635,433.739 224.468,440.072 226,446.5C 226.158,454.558 226.325,462.558 226.5,470.5C 230.315,473.424 234.649,474.258 239.5,473C 245.885,470.561 252.218,468.061 258.5,465.5C 257.874,474.359 258.707,483.025 261,491.5C 261.903,492.701 263.069,493.535 264.5,494C 263.692,502.774 263.025,511.607 262.5,520.5C 258.559,521.757 254.559,522.924 250.5,524C 239.839,524.5 229.172,524.667 218.5,524.5C 216.5,524.5 214.5,524.5 212.5,524.5C 212.104,512.643 209.438,501.31 204.5,490.5C 201.232,489.513 197.898,489.18 194.5,489.5C 194.744,500.315 197.077,510.649 201.5,520.5C 199.008,522.092 197.008,521.592 195.5,519C 192.247,517.964 188.914,517.297 185.5,517C 182.446,514.58 179.113,512.746 175.5,511.5C 174.26,509.015 173.26,509.015 172.5,511.5C 170.824,512.183 170.157,513.517 170.5,515.5C 167.5,515.5 164.5,515.5 161.5,515.5C 161.662,513.473 161.495,511.473 161,509.5C 158.448,504.392 156.448,499.058 155,493.5C 154.195,490.304 154.362,487.304 155.5,484.5C 156.434,483.432 156.768,482.099 156.5,480.5C 159.222,469.874 162.055,459.207 165,448.5C 165.833,447.667 166.667,446.833 167.5,446C 170.095,445.774 172.595,445.274 175,444.5C 175.499,440.848 175.665,437.182 175.5,433.5C 174.127,433.657 172.793,433.49 171.5,433C 175.981,426.521 181.148,420.688 187,415.5C 187.667,411.5 187.667,407.5 187,403.5C 182.427,401.207 178.26,398.374 174.5,395C 172.406,393.745 171.406,391.912 171.5,389.5C 173.967,383.852 177.467,378.852 182,374.5C 182.81,370.642 182.643,366.976 181.5,363.5C 181.5,362.167 181.5,360.833 181.5,359.5C 168.526,358.207 155.526,356.707 142.5,355C 139.537,353.039 136.871,350.706 134.5,348C 137.677,345.322 140.677,342.488 143.5,339.5C 144.459,335.204 145.125,330.871 145.5,326.5C 144.5,326.5 143.5,326.5 142.5,326.5C 142.713,320.931 141.713,315.598 139.5,310.5C 136.837,306.51 134.17,302.51 131.5,298.5C 143.738,297.381 148.738,290.714 146.5,278.5C 143.537,278.849 141.204,277.849 139.5,275.5C 140.803,273.032 142.303,270.699 144,268.5C 144.49,267.207 144.657,265.873 144.5,264.5C 148.182,264.665 151.848,264.499 155.5,264C 158.622,262.42 161.622,260.587 164.5,258.5C 166.879,255.243 167.879,251.576 167.5,247.5C 168.873,247.657 170.207,247.49 171.5,247C 177.574,242.967 183.908,239.3 190.5,236C 191.793,235.51 193.127,235.343 194.5,235.5C 195.492,235.672 196.158,235.338 196.5,234.5C 201.546,234.735 206.213,233.735 210.5,231.5C 216.953,232.547 223.453,233.214 230,233.5C 233.964,233.252 237.798,232.586 241.5,231.5C 241.558,228.336 242.224,225.336 243.5,222.5C 254.533,219.832 265.533,217.165 276.5,214.5C 284.448,215.44 292.448,215.44 300.5,214.5C 303.038,219.168 304.705,224.168 305.5,229.5C 315.442,231.601 325.442,233.268 335.5,234.5 Z M 175.5,511.5 C 174.5,511.5 173.5,511.5 172.5,511.5C 173.26,509.015 174.26,509.015 175.5,511.5 Z"/></g>
<g><path style="opacity:1" fill="#b19b9c" d="M 362.5,224.5 C 363.833,225.167 363.833,225.167 362.5,224.5 Z"/></g>
<g><path style="opacity:1" fill="#d5b0ae" d="M 295.5,261.5 C 294.508,268.982 294.175,276.648 294.5,284.5C 297.833,284.5 301.167,284.5 304.5,284.5C 304.5,280.5 304.5,276.5 304.5,272.5C 309.756,277.212 312.089,283.212 311.5,290.5C 310.617,295.103 310.283,299.77 310.5,304.5C 308.14,307.527 305.473,310.194 302.5,312.5C 289.61,310.457 276.61,309.957 263.5,311C 257.352,311.476 253.518,314.643 252,320.5C 250.508,327.119 249.341,333.786 248.5,340.5C 234.541,342.685 220.541,342.852 206.5,341C 201.359,339.198 196.692,336.532 192.5,333C 189.653,330.01 187.987,326.51 187.5,322.5C 187.702,320.05 187.369,317.717 186.5,315.5C 186.334,308.159 186.5,300.826 187,293.5C 187.234,287.565 188.567,281.898 191,276.5C 192.708,274.457 194.708,272.79 197,271.5C 198.439,268.397 200.273,265.564 202.5,263C 208.868,258.484 215.534,254.484 222.5,251C 229.851,250.316 237.185,250.482 244.5,251.5C 248.895,250.054 253.395,249.054 258,248.5C 262.578,248.749 267.078,249.416 271.5,250.5C 282.872,246.882 290.872,250.549 295.5,261.5 Z"/></g>
<g><path style="opacity:1" fill="#000000" d="M 714.5,248.5 C 716.337,248.639 716.67,249.306 715.5,250.5C 714.702,250.043 714.369,249.376 714.5,248.5 Z"/></g>
<g><path style="opacity:1" fill="#560304" d="M 295.5,261.5 C 298.5,261.5 301.5,261.5 304.5,261.5C 304.5,265.167 304.5,268.833 304.5,272.5C 304.5,276.5 304.5,280.5 304.5,284.5C 301.167,284.5 297.833,284.5 294.5,284.5C 294.175,276.648 294.508,268.982 295.5,261.5 Z"/></g>
<g><path style="opacity:1" fill="#feced0" d="M 310.5,304.5 C 310.283,299.77 310.617,295.103 311.5,290.5C 312.074,288.212 313.074,286.045 314.5,284C 316.555,283.313 318.221,282.146 319.5,280.5C 321.167,280.167 322.833,279.833 324.5,279.5C 328.554,280.024 332.554,280.857 336.5,282C 340.689,284.213 342.356,287.713 341.5,292.5C 342.022,297.955 340.022,302.122 335.5,305C 331.541,305.827 327.541,306.327 323.5,306.5C 319.176,305.643 314.842,304.976 310.5,304.5 Z"/></g>
<g><path style="opacity:1" fill="#fefffe" d="M 127.5,282.5 C 128.479,283.765 129.479,285.099 130.5,286.5C 129.311,287.429 127.978,287.762 126.5,287.5C 126.629,285.784 126.962,284.117 127.5,282.5 Z"/></g>
<g><path style="opacity:1" fill="#560304" d="M 191.5,284.5 C 194.833,284.5 198.167,284.5 201.5,284.5C 201.5,292.167 201.5,299.833 201.5,307.5C 198.167,307.5 194.833,307.5 191.5,307.5C 191.5,299.833 191.5,292.167 191.5,284.5 Z"/></g>
<g><path style="opacity:1" fill="#560304" d="M 236.5,285.5 C 239.833,285.5 243.167,285.5 246.5,285.5C 246.5,288.833 246.5,292.167 246.5,295.5C 243.167,295.5 239.833,295.5 236.5,295.5C 236.5,292.167 236.5,288.833 236.5,285.5 Z"/></g>
<g><path style="opacity:1" fill="#ecebec" d="M 353.5,293.5 C 359.277,296.124 365.277,298.458 371.5,300.5C 374.829,304.293 378.496,307.793 382.5,311C 387.489,311.499 392.489,311.666 397.5,311.5C 396.438,315.741 394.772,319.741 392.5,323.5C 387.954,326.762 383.287,329.428 378.5,331.5C 366.95,336.346 355.116,340.346 343,343.5C 339.981,342.911 337.814,341.244 336.5,338.5C 337.249,337.469 337.915,336.302 338.5,335C 349.609,332.806 360.609,330.14 371.5,327C 375.5,324.333 379.5,321.667 383.5,319C 384.743,317.846 385.743,316.512 386.5,315C 380.029,312.548 373.362,311.048 366.5,310.5C 365.081,308.042 364.081,305.375 363.5,302.5C 359.716,299.951 356.383,296.951 353.5,293.5 Z"/></g>
<g><path style="opacity:1" fill="#feced0" d="M 186.5,315.5 C 187.369,317.717 187.702,320.05 187.5,322.5C 187.116,326.586 186.283,330.586 185,334.5C 182.734,335.956 180.234,336.79 177.5,337C 169.441,338.414 161.775,337.414 154.5,334C 148.5,322.631 150.834,313.631 161.5,307C 167.5,306.333 173.5,306.333 179.5,307C 182.21,309.628 184.544,312.461 186.5,315.5 Z"/></g>
<g><path style="opacity:1" fill="#f0c2c5" d="M 302.5,312.5 C 305.863,316.045 308.696,320.045 311,324.5C 312.422,329.175 314.255,333.675 316.5,338C 323.158,338.5 329.825,338.666 336.5,338.5C 337.814,341.244 339.981,342.911 343,343.5C 355.116,340.346 366.95,336.346 378.5,331.5C 386.833,331.5 395.167,331.5 403.5,331.5C 410.034,330.88 415.2,333.213 419,338.5C 423.044,355.013 419.044,369.013 407,380.5C 405.177,387.378 404.177,394.378 404,401.5C 403.215,404.529 402.049,407.362 400.5,410C 403.621,413.733 406.121,417.899 408,422.5C 408.5,430.159 408.666,437.826 408.5,445.5C 409.932,451.054 407.932,454.388 402.5,455.5C 393.138,455.737 383.805,456.404 374.5,457.5C 370.067,461.092 365.067,463.592 359.5,465C 352.5,465.667 345.5,465.667 338.5,465C 333.59,463.036 330.257,459.536 328.5,454.5C 327.087,445.896 326.254,437.229 326,428.5C 322.798,425.278 319.965,421.778 317.5,418C 316.089,412.593 315.089,407.093 314.5,401.5C 313.167,400.5 311.833,399.5 310.5,398.5C 303.408,410.376 296.241,422.043 289,433.5C 281.978,441.292 273.812,447.792 264.5,453C 260.084,459.087 254.75,464.087 248.5,468C 244.459,468.827 240.459,468.66 236.5,467.5C 235.86,458.861 235.193,450.195 234.5,441.5C 232.262,437.557 230.095,433.557 228,429.5C 226.568,427.561 224.735,426.228 222.5,425.5C 216.901,421.418 210.901,417.918 204.5,415C 197.953,409.416 195.787,402.25 198,393.5C 200.66,390.007 203.827,387.007 207.5,384.5C 217.594,377.462 227.928,370.962 238.5,365C 241.146,364.503 243.813,364.336 246.5,364.5C 246.062,356.353 246.729,348.353 248.5,340.5C 249.341,333.786 250.508,327.119 252,320.5C 253.518,314.643 257.352,311.476 263.5,311C 276.61,309.957 289.61,310.457 302.5,312.5 Z"/></g>
<g><path style="opacity:1" fill="#fefffe" d="M 126.5,316.5 C 127.885,317.574 129.051,318.907 130,320.5C 131.137,324.463 130.303,327.796 127.5,330.5C 126.686,325.881 126.353,321.214 126.5,316.5 Z"/></g>
<g><path style="opacity:1" fill="#fecdd0" d="M 273.5,320.5 C 286.181,317.926 295.348,322.26 301,333.5C 302.413,338.16 304.246,342.66 306.5,347C 305.637,349.227 304.637,351.393 303.5,353.5C 299.834,354.411 296.168,354.578 292.5,354C 293.759,354.923 295.092,355.757 296.5,356.5C 295.603,356.669 294.603,357.002 293.5,357.5C 295.507,359.008 297.174,360.842 298.5,363C 296.255,362.805 294.422,361.638 293,359.5C 293.398,363.605 295.398,366.938 299,369.5C 299.667,370.167 299.667,370.833 299,371.5C 295.86,368.727 292.36,368.061 288.5,369.5C 293.452,372.13 297.785,375.463 301.5,379.5C 301.32,380.554 300.987,381.554 300.5,382.5C 302.167,383.833 303.833,385.167 305.5,386.5C 302.546,387.625 299.546,388.625 296.5,389.5C 295.04,395.179 292.373,400.179 288.5,404.5C 285.032,406.47 281.699,408.636 278.5,411C 274.167,411.667 269.833,411.667 265.5,411C 261.138,409.264 259.471,406.264 260.5,402C 259.033,388.234 257.699,374.4 256.5,360.5C 258.024,348.865 260.357,337.365 263.5,326C 266.298,323 269.631,321.167 273.5,320.5 Z"/></g>
<g><path style="opacity:1" fill="#ecebec" d="M 142.5,326.5 C 143.5,326.5 144.5,326.5 145.5,326.5C 145.125,330.871 144.459,335.204 143.5,339.5C 140.677,342.488 137.677,345.322 134.5,348C 136.871,350.706 139.537,353.039 142.5,355C 155.526,356.707 168.526,358.207 181.5,359.5C 181.5,360.833 181.5,362.167 181.5,363.5C 168.729,363.522 156.062,362.355 143.5,360C 138.987,358.62 134.654,356.787 130.5,354.5C 127.548,351.387 125.215,347.887 123.5,344C 136.087,344.912 142.42,339.079 142.5,326.5 Z"/></g>
<g><path style="opacity:1" fill="#feced0" d="M 386.5,341.5 C 391.511,341.334 396.511,341.501 401.5,342C 405.049,344.048 407.716,346.881 409.5,350.5C 407.191,358.634 403.024,365.634 397,371.5C 395.177,378.37 394.177,385.37 394,392.5C 392.667,395.833 391.333,399.167 390,402.5C 386.63,405.14 382.797,406.807 378.5,407.5C 366.137,405.39 355.47,400.056 346.5,391.5C 344.922,390.702 343.256,390.202 341.5,390C 344.288,386.932 346.455,383.432 348,379.5C 349.96,381.899 352.126,382.065 354.5,380C 353.5,379.667 352.5,379.333 351.5,379C 355.22,377.608 357.22,378.775 357.5,382.5C 359.167,382.5 360.833,382.5 362.5,382.5C 362.56,378.515 360.56,376.848 356.5,377.5C 356.5,375.5 356.5,373.5 356.5,371.5C 358.833,371.5 361.167,371.5 363.5,371.5C 365.605,364.857 363.939,363.857 358.5,368.5C 357.5,367.833 356.5,367.167 355.5,366.5C 353.821,368.104 351.821,368.771 349.5,368.5C 349.174,364.116 349.508,359.783 350.5,355.5C 351.308,355.192 351.975,354.692 352.5,354C 364.139,350.432 375.472,346.266 386.5,341.5 Z"/></g>
<g><path style="opacity:1" fill="#bb847f" d="M 630.5,387.5 C 630.5,386.167 630.5,384.833 630.5,383.5C 625.786,383.173 621.12,383.507 616.5,384.5C 605.077,410.47 594.077,436.47 583.5,462.5C 582.127,462.343 580.793,462.51 579.5,463C 573.055,467.621 566.389,471.954 559.5,476C 552.814,482.17 546.814,488.837 541.5,496C 540.167,496.333 538.833,496.667 537.5,497C 536.743,498.512 535.743,499.846 534.5,501C 526.355,502.718 520.021,506.885 515.5,513.5C 510.86,512.487 506.193,512.487 501.5,513.5C 501.343,512.127 501.51,510.793 502,509.5C 504.833,507.333 507.667,505.167 510.5,503C 503.512,504.414 496.345,505.581 489,506.5C 487.941,506.37 487.108,505.87 486.5,505C 488.441,503.097 490.774,502.264 493.5,502.5C 494.036,499.445 494.869,496.445 496,493.5C 499.346,490.167 501.846,486.333 503.5,482C 503.138,480.566 502.472,479.399 501.5,478.5C 505.893,476.362 510.226,474.028 514.5,471.5C 520.384,463.897 527.05,457.064 534.5,451C 541.386,448.876 547.719,445.709 553.5,441.5C 558.285,433.582 563.785,426.248 570,419.5C 573.485,414.939 576.152,409.939 578,404.5C 581.373,393.826 583.373,382.826 584,371.5C 585.773,366.45 587.606,361.45 589.5,356.5C 590.5,356.5 591.5,356.5 592.5,356.5C 592.33,355.178 592.663,354.011 593.5,353C 597.804,350.229 602.471,348.229 607.5,347C 610.518,346.228 613.185,346.894 615.5,349C 624.162,359.214 629.495,371.047 631.5,384.5C 631.48,385.726 631.147,386.726 630.5,387.5 Z"/></g>
<g><path style="opacity:1" fill="#feced0" d="M 322.5,348.5 C 329.975,350.002 333.308,354.668 332.5,362.5C 333.833,362.5 335.167,362.5 336.5,362.5C 336.063,369.669 333.397,375.836 328.5,381C 327.391,381.638 326.225,382.138 325,382.5C 321.919,380.865 318.753,379.532 315.5,378.5C 315.937,375.193 315.27,372.193 313.5,369.5C 313.167,370 312.833,370.5 312.5,371C 313.33,372.465 313.496,373.965 313,375.5C 311.994,373.466 311.494,371.3 311.5,369C 312.743,363.39 314.077,357.89 315.5,352.5C 318.083,351.579 320.416,350.246 322.5,348.5 Z"/></g>
<g><path style="opacity:1" fill="#feced0" d="M 280.5,419.5 C 280.167,420.833 279.833,422.167 279.5,423.5C 278.833,423.5 278.5,423.833 278.5,424.5C 275.169,428.303 271.502,431.803 267.5,435C 262.891,437.338 258.558,440.171 254.5,443.5C 251.894,447.059 249.06,450.393 246,453.5C 245.667,446.5 245.333,439.5 245,432.5C 242.334,427.681 239.5,423.015 236.5,418.5C 234.113,416.311 231.447,414.644 228.5,413.5C 221.923,409.866 215.59,405.7 209.5,401C 220.32,392.12 231.987,384.454 244.5,378C 245.126,377.25 245.626,376.416 246,375.5C 248.224,386.562 249.39,397.562 249.5,408.5C 248.851,406.376 248.017,404.376 247,402.5C 244.866,406.609 242.366,410.443 239.5,414C 239.833,414.5 240.167,415 240.5,415.5C 242.979,413.924 245.646,412.924 248.5,412.5C 248.5,414.167 248.5,415.833 248.5,417.5C 250.143,417.52 251.476,416.853 252.5,415.5C 253.415,416.328 254.081,417.328 254.5,418.5C 263.141,419.498 271.808,419.831 280.5,419.5 Z"/></g>
<g><path style="opacity:1" fill="#b37d79" d="M 630.5,387.5 C 626.563,402.696 625.563,418.196 627.5,434C 627.129,436.856 626.629,439.689 626,442.5C 619.63,453.412 614.13,464.912 609.5,477C 605.678,483.495 600.344,488.162 593.5,491C 580.447,503.556 566.114,514.39 550.5,523.5C 542.906,526.698 535.24,529.698 527.5,532.5C 517.904,538.947 507.237,541.28 495.5,539.5C 496.172,538.733 497.005,538.066 498,537.5C 498.206,534.377 498.873,531.377 500,528.5C 503.02,526.8 506.02,525.134 509,523.5C 509.333,523.833 509.667,524.167 510,524.5C 511.102,521.285 512.935,518.618 515.5,516.5C 515.5,515.5 515.5,514.5 515.5,513.5C 520.021,506.885 526.355,502.718 534.5,501C 535.743,499.846 536.743,498.512 537.5,497C 538.833,496.667 540.167,496.333 541.5,496C 546.814,488.837 552.814,482.17 559.5,476C 566.389,471.954 573.055,467.621 579.5,463C 580.793,462.51 582.127,462.343 583.5,462.5C 594.077,436.47 605.077,410.47 616.5,384.5C 621.12,383.507 625.786,383.173 630.5,383.5C 630.5,384.833 630.5,386.167 630.5,387.5 Z"/></g>
<g><path style="opacity:1" fill="#feced0" d="M 327.5,397.5 C 331.443,398.588 334.776,400.754 337.5,404C 343.505,407.336 349.505,410.669 355.5,414C 357.271,417.28 359.271,420.446 361.5,423.5C 366.167,424.651 370.834,424.651 375.5,423.5C 375.5,422.5 375.5,421.5 375.5,420.5C 372.941,420.61 370.608,419.944 368.5,418.5C 369.167,418.167 369.833,417.833 370.5,417.5C 377.05,418.78 383.55,418.78 390,417.5C 392.924,422.346 395.59,427.346 398,432.5C 399.218,437.236 398.384,441.403 395.5,445C 385.153,445.686 374.82,446.519 364.5,447.5C 359.86,451.455 354.526,454.121 348.5,455.5C 343.3,453.799 339.966,450.299 338.5,445C 337.208,436.211 336.208,427.378 335.5,418.5C 332.571,414.851 329.738,411.185 327,407.5C 324.982,403.899 325.149,400.566 327.5,397.5 Z"/></g>
<g><path style="opacity:1" fill="#edebed" d="M 402.5,455.5 C 403.209,456.404 404.209,456.737 405.5,456.5C 409.845,465.518 414.511,474.518 419.5,483.5C 418.107,484.26 416.607,484.926 415,485.5C 414.167,485.167 413.333,484.833 412.5,484.5C 409.631,477.095 405.964,470.095 401.5,463.5C 399.016,466.484 396.35,469.318 393.5,472C 385.406,472.684 377.406,472.184 369.5,470.5C 369.719,469.325 369.386,468.325 368.5,467.5C 366.615,468.609 364.615,469.443 362.5,470C 352.058,470.961 341.725,470.295 331.5,468C 329.246,466.623 327.08,465.123 325,463.5C 324.333,449.161 321.833,435.161 317.5,421.5C 314.8,419.766 312.8,417.432 311.5,414.5C 310.099,417.865 308.599,421.199 307,424.5C 304.899,425.924 302.733,427.258 300.5,428.5C 295.314,436.03 289.314,442.863 282.5,449C 277.463,451.18 272.796,453.847 268.5,457C 266.525,459.092 264.525,460.925 262.5,462.5C 261.167,462.5 259.833,462.5 258.5,462.5C 258.5,463.5 258.5,464.5 258.5,465.5C 252.218,468.061 245.885,470.561 239.5,473C 234.649,474.258 230.315,473.424 226.5,470.5C 226.325,462.558 226.158,454.558 226,446.5C 224.468,440.072 222.635,433.739 220.5,427.5C 220.747,426.287 221.414,425.62 222.5,425.5C 224.735,426.228 226.568,427.561 228,429.5C 230.095,433.557 232.262,437.557 234.5,441.5C 235.193,450.195 235.86,458.861 236.5,467.5C 240.459,468.66 244.459,468.827 248.5,468C 254.75,464.087 260.084,459.087 264.5,453C 273.812,447.792 281.978,441.292 289,433.5C 296.241,422.043 303.408,410.376 310.5,398.5C 311.833,399.5 313.167,400.5 314.5,401.5C 315.089,407.093 316.089,412.593 317.5,418C 319.965,421.778 322.798,425.278 326,428.5C 326.254,437.229 327.087,445.896 328.5,454.5C 330.257,459.536 333.59,463.036 338.5,465C 345.5,465.667 352.5,465.667 359.5,465C 365.067,463.592 370.067,461.092 374.5,457.5C 383.805,456.404 393.138,455.737 402.5,455.5 Z"/></g>
<g><path style="opacity:1" fill="#fefefe" d="M 419.5,483.5 C 420.492,483.328 421.158,483.662 421.5,484.5C 422.252,487.947 423.252,491.28 424.5,494.5C 422.828,499.132 421.662,504.132 421,509.5C 419.416,510.861 417.582,511.528 415.5,511.5C 400.912,510.337 386.245,509.503 371.5,509C 369.753,508.648 368.086,508.148 366.5,507.5C 365.391,507.443 364.391,507.11 363.5,506.5C 363.5,501.5 363.5,496.5 363.5,491.5C 360.167,491.5 356.833,491.5 353.5,491.5C 353.605,495.548 353.272,499.548 352.5,503.5C 349.457,502.655 346.457,501.655 343.5,500.5C 341.698,499.542 339.698,498.875 337.5,498.5C 332.537,497.504 327.537,497.337 322.5,498C 321.449,499.385 320.116,500.385 318.5,501C 312.15,502.701 305.817,504.367 299.5,506C 293.441,509.233 287.108,511.733 280.5,513.5C 280.172,508.125 280.505,502.792 281.5,497.5C 284.677,489.788 288.51,482.454 293,475.5C 293.498,472.183 293.665,468.85 293.5,465.5C 288.151,464.461 283.651,465.795 280,469.5C 278.813,473.363 277.147,477.03 275,480.5C 272.782,475.383 271.116,470.05 270,464.5C 267.865,462.722 265.365,462.055 262.5,462.5C 264.525,460.925 266.525,459.092 268.5,457C 272.796,453.847 277.463,451.18 282.5,449C 289.314,442.863 295.314,436.03 300.5,428.5C 302.733,427.258 304.899,425.924 307,424.5C 308.599,421.199 310.099,417.865 311.5,414.5C 312.8,417.432 314.8,419.766 317.5,421.5C 321.833,435.161 324.333,449.161 325,463.5C 327.08,465.123 329.246,466.623 331.5,468C 341.725,470.295 352.058,470.961 362.5,470C 364.615,469.443 366.615,468.609 368.5,467.5C 369.386,468.325 369.719,469.325 369.5,470.5C 377.406,472.184 385.406,472.684 393.5,472C 396.35,469.318 399.016,466.484 401.5,463.5C 405.964,470.095 409.631,477.095 412.5,484.5C 413.333,484.833 414.167,485.167 415,485.5C 416.607,484.926 418.107,484.26 419.5,483.5 Z M 337.5,498.5 C 339.698,498.875 341.698,499.542 343.5,500.5C 340.918,500.975 338.918,500.308 337.5,498.5 Z"/></g>
<g><path style="opacity:1" fill="#000000" d="M 489.5,431.5 C 490.833,431.5 492.167,431.5 493.5,431.5C 493.5,432.833 493.5,434.167 493.5,435.5C 492.167,435.5 490.833,435.5 489.5,435.5C 489.5,434.167 489.5,432.833 489.5,431.5 Z"/></g>
<g><path style="opacity:1" fill="#d6b0af" d="M 501.5,478.5 C 502.472,479.399 503.138,480.566 503.5,482C 501.846,486.333 499.346,490.167 496,493.5C 494.869,496.445 494.036,499.445 493.5,502.5C 490.774,502.264 488.441,503.097 486.5,505C 487.108,505.87 487.941,506.37 489,506.5C 496.345,505.581 503.512,504.414 510.5,503C 507.667,505.167 504.833,507.333 502,509.5C 501.51,510.793 501.343,512.127 501.5,513.5C 506.193,512.487 510.86,512.487 515.5,513.5C 515.5,514.5 515.5,515.5 515.5,516.5C 495.594,524.949 474.927,530.782 453.5,534C 447.807,534.405 442.141,534.072 436.5,533C 434.065,531.285 431.398,530.118 428.5,529.5C 428.5,527.5 428.5,525.5 428.5,523.5C 430.912,523.756 432.579,522.756 433.5,520.5C 432.714,515.219 432.214,509.885 432,504.5C 427.856,502.161 425.356,498.828 424.5,494.5C 423.252,491.28 422.252,487.947 421.5,484.5C 422.922,484.75 423.922,485.583 424.5,487C 429.103,487.111 433.436,488.111 437.5,490C 446.169,490.156 454.836,489.823 463.5,489C 476.268,485.799 488.935,482.299 501.5,478.5 Z"/></g>
<g><path style="opacity:1" fill="#c8a6a4" d="M 424.5,494.5 C 425.356,498.828 427.856,502.161 432,504.5C 432.214,509.885 432.714,515.219 433.5,520.5C 432.579,522.756 430.912,523.756 428.5,523.5C 428.5,525.5 428.5,527.5 428.5,529.5C 431.398,530.118 434.065,531.285 436.5,533C 442.141,534.072 447.807,534.405 453.5,534C 474.927,530.782 495.594,524.949 515.5,516.5C 512.935,518.618 511.102,521.285 510,524.5C 509.667,524.167 509.333,523.833 509,523.5C 506.02,525.134 503.02,526.8 500,528.5C 498.873,531.377 498.206,534.377 498,537.5C 497.005,538.066 496.172,538.733 495.5,539.5C 486.588,542.395 477.921,545.895 469.5,550C 459.1,550.797 448.767,550.297 438.5,548.5C 429.537,549.913 420.537,550.413 411.5,550C 413.155,548.556 413.822,546.722 413.5,544.5C 412.127,544.343 410.793,544.51 409.5,545C 407.167,547.333 404.833,549.667 402.5,552C 398.531,552.853 394.531,553.519 390.5,554C 387.3,556.625 383.633,558.292 379.5,559C 372.884,558.279 366.217,557.446 359.5,556.5C 357.666,553.501 355.333,551.001 352.5,549C 358.122,535.409 361.789,521.243 363.5,506.5C 364.391,507.11 365.391,507.443 366.5,507.5C 366.333,522.504 366.5,537.504 367,552.5C 370.919,551.165 374.753,549.665 378.5,548C 381.432,547.047 384.432,546.547 387.5,546.5C 387.5,545.5 387.5,544.5 387.5,543.5C 389.677,543.414 391.677,542.747 393.5,541.5C 394.386,542.325 394.719,543.325 394.5,544.5C 395.978,544.762 397.311,544.429 398.5,543.5C 400.856,540.978 403.023,538.312 405,535.5C 407.908,527.139 411.408,519.139 415.5,511.5C 417.582,511.528 419.416,510.861 421,509.5C 421.662,504.132 422.828,499.132 424.5,494.5 Z"/></g>
<g><path style="opacity:1" fill="#d6b0ae" d="M 337.5,498.5 C 338.918,500.308 340.918,500.975 343.5,500.5C 346.457,501.655 349.457,502.655 352.5,503.5C 350.007,520.969 344.674,537.302 336.5,552.5C 331.482,552.613 326.482,552.947 321.5,553.5C 321.5,554.5 321.5,555.5 321.5,556.5C 317.776,555.773 315.109,557.106 313.5,560.5C 311.5,561.5 309.5,562.5 307.5,563.5C 306.614,564.325 306.281,565.325 306.5,566.5C 302.76,566.759 299.094,566.426 295.5,565.5C 288.144,554.417 283.144,542.417 280.5,529.5C 280.5,524.167 280.5,518.833 280.5,513.5C 287.108,511.733 293.441,509.233 299.5,506C 305.817,504.367 312.15,502.701 318.5,501C 320.116,500.385 321.449,499.385 322.5,498C 327.537,497.337 332.537,497.504 337.5,498.5 Z"/></g>
<g><path style="opacity:1" fill="#d6b0af" d="M 366.5,507.5 C 368.086,508.148 369.753,508.648 371.5,509C 386.245,509.503 400.912,510.337 415.5,511.5C 411.408,519.139 407.908,527.139 405,535.5C 403.023,538.312 400.856,540.978 398.5,543.5C 397.311,544.429 395.978,544.762 394.5,544.5C 394.719,543.325 394.386,542.325 393.5,541.5C 391.677,542.747 389.677,543.414 387.5,543.5C 387.5,544.5 387.5,545.5 387.5,546.5C 384.432,546.547 381.432,547.047 378.5,548C 374.753,549.665 370.919,551.165 367,552.5C 366.5,537.504 366.333,522.504 366.5,507.5 Z"/></g>
<g><path style="opacity:1" fill="#d4aead" d="M 172.5,511.5 C 173.5,511.5 174.5,511.5 175.5,511.5C 179.113,512.746 182.446,514.58 185.5,517C 188.914,517.297 192.247,517.964 195.5,519C 197.008,521.592 199.008,522.092 201.5,520.5C 202.447,531.827 202.28,543.16 201,554.5C 199.306,556.24 198.139,558.24 197.5,560.5C 191.87,561.521 186.204,561.687 180.5,561C 173.177,559.053 166.177,556.553 159.5,553.5C 158.587,550.945 157.92,548.279 157.5,545.5C 158.197,535.39 159.53,525.39 161.5,515.5C 164.5,515.5 167.5,515.5 170.5,515.5C 170.157,513.517 170.824,512.183 172.5,511.5 Z"/></g>
<g><path style="opacity:1" fill="#d6b0ae" d="M 262.5,520.5 C 261.951,530.852 261.118,541.185 260,551.5C 258.562,552.9 257.729,554.567 257.5,556.5C 248.356,556.408 239.356,555.241 230.5,553C 226.806,551.176 224.473,548.342 223.5,544.5C 222.5,544.5 221.5,544.5 220.5,544.5C 219.246,537.855 217.246,531.522 214.5,525.5C 216.099,525.768 217.432,525.434 218.5,524.5C 229.172,524.667 239.839,524.5 250.5,524C 254.559,522.924 258.559,521.757 262.5,520.5 Z"/></g>
<g><path style="opacity:1" fill="#c8a6a4" d="M 212.5,525.5 C 213.167,525.5 213.833,525.5 214.5,525.5C 217.246,531.522 219.246,537.855 220.5,544.5C 221.5,544.5 222.5,544.5 223.5,544.5C 224.473,548.342 226.806,551.176 230.5,553C 239.356,555.241 248.356,556.408 257.5,556.5C 257.201,559.642 255.534,561.809 252.5,563C 245.585,564.769 238.585,565.936 231.5,566.5C 227.345,565.183 223.845,562.849 221,559.5C 214.338,549.16 211.505,537.827 212.5,525.5 Z"/></g>
<g><path style="opacity:1" fill="#c8a6a4" d="M 280.5,529.5 C 283.144,542.417 288.144,554.417 295.5,565.5C 299.094,566.426 302.76,566.759 306.5,566.5C 306.281,565.325 306.614,564.325 307.5,563.5C 309.5,562.5 311.5,561.5 313.5,560.5C 315.109,557.106 317.776,555.773 321.5,556.5C 321.5,555.5 321.5,554.5 321.5,553.5C 326.482,552.947 331.482,552.613 336.5,552.5C 336.029,553.901 335.362,555.234 334.5,556.5C 326.289,562.057 318.956,568.557 312.5,576C 309.432,578.024 306.098,579.024 302.5,579C 284.461,567.405 277.128,550.905 280.5,529.5 Z"/></g>
</svg>
