<?xml version="1.0" encoding="UTF-8"?>
<!DOCTYPE svg PUBLIC "-//W3C//DTD SVG 1.1//EN" "http://www.w3.org/Graphics/SVG/1.1/DTD/svg11.dtd">
<svg xmlns="http://www.w3.org/2000/svg" version="1.1" width="474px" height="474px" style="shape-rendering:geometricPrecision; text-rendering:geometricPrecision; image-rendering:optimizeQuality; fill-rule:evenodd; clip-rule:evenodd" xmlns:xlink="http://www.w3.org/1999/xlink">
<g><path style="opacity:1" fill="#6a8a5d" d="M 297.5,165.5 C 297.721,168.279 297.388,170.946 296.5,173.5C 294.458,181.042 289.792,186.208 282.5,189C 260.111,192.249 238.111,190.583 216.5,184C 208.533,179.013 200.533,174.013 192.5,169C 187.904,164.516 186.237,159.016 187.5,152.5C 187.279,149.721 187.612,147.054 188.5,144.5C 191.035,139.811 194.035,135.311 197.5,131C 208.518,122.828 220.851,118.328 234.5,117.5C 238.705,117.547 242.871,117.88 247,118.5C 249.298,115.753 252.131,113.586 255.5,112C 260.202,111.172 264.869,111.338 269.5,112.5C 271.728,118.37 272.062,124.37 270.5,130.5C 277.61,131.281 284.11,133.615 290,137.5C 296.344,145.683 298.844,155.017 297.5,165.5 Z"/></g>
<g><path style="opacity:1" fill="#99bb85" d="M 281.5,177.5 C 274.952,176.832 268.285,175.999 261.5,175C 247.546,170.4 233.88,164.9 220.5,158.5C 214.581,152.602 209.914,145.935 206.5,138.5C 215.796,130.9 226.462,126.733 238.5,126C 241.64,127 242.973,129.167 242.5,132.5C 245.187,132.664 247.854,132.497 250.5,132C 253.842,128.516 256.509,124.682 258.5,120.5C 259.833,120.5 261.167,120.5 262.5,120.5C 262.52,125.947 260.687,130.614 257,134.5C 256.503,137.146 256.336,139.813 256.5,142.5C 259.518,142.665 262.518,142.498 265.5,142C 265.998,140.842 266.831,140.009 268,139.5C 280.9,141.433 288.066,148.933 289.5,162C 288.047,167.906 285.381,173.073 281.5,177.5 Z"/></g>
<g><path style="opacity:1" fill="#79a171" d="M 206.5,138.5 C 209.914,145.935 214.581,152.602 220.5,158.5C 233.88,164.9 247.546,170.4 261.5,175C 268.285,175.999 274.952,176.832 281.5,177.5C 275.294,181.8 268.294,183.467 260.5,182.5C 247.034,182.383 234.034,179.883 221.5,175C 216.2,171.679 210.866,168.346 205.5,165C 202.01,162.509 198.843,159.675 196,156.5C 196.019,153.756 196.686,151.089 198,148.5C 199.951,144.385 202.784,141.052 206.5,138.5 Z"/></g>
<g><path style="opacity:1" fill="#ab550a" d="M 188.5,144.5 C 187.612,147.054 187.279,149.721 187.5,152.5C 176.077,152.325 164.911,150.658 154,147.5C 148.66,149.544 143.16,151.044 137.5,152C 127.285,156.853 116.952,161.519 106.5,166C 101.11,170.888 97.1104,176.721 94.5,183.5C 93.8333,183.5 93.5,183.833 93.5,184.5C 93.5858,185.496 93.2524,186.329 92.5,187C 106.492,210.165 125.158,214.831 148.5,201C 157.053,194.938 165.72,189.104 174.5,183.5C 177.086,182.52 179.753,182.187 182.5,182.5C 182.665,185.518 182.498,188.518 182,191.5C 169.71,200.732 156.543,208.565 142.5,215C 137.882,216.158 133.216,216.992 128.5,217.5C 126.826,221.453 124.16,224.786 120.5,227.5C 114.405,237.624 111.072,248.624 110.5,260.5C 107.833,260.5 105.167,260.5 102.5,260.5C 102.594,255.554 102.594,250.887 102.5,246.5C 96.0234,248.988 90.3567,252.655 85.5,257.5C 87.7221,264.276 90.2221,270.943 93,277.5C 95.6824,280.35 98.5157,283.016 101.5,285.5C 103.186,288.937 104.853,292.271 106.5,295.5C 113.396,309.345 119.23,323.679 124,338.5C 131.699,355.116 144.865,363.283 163.5,363C 168.211,367.38 173.211,371.38 178.5,375C 183.453,376.357 188.453,377.524 193.5,378.5C 195.588,378.38 196.922,377.38 197.5,375.5C 198.931,374.22 199.598,372.553 199.5,370.5C 219.844,370.833 240.178,370.5 260.5,369.5C 262.953,366.759 265.286,363.925 267.5,361C 273.388,359.424 279.388,359.091 285.5,360C 294.847,369.371 305.514,371.038 317.5,365C 318.542,363.082 319.708,361.249 321,359.5C 322.829,350.875 324.495,342.209 326,333.5C 326.5,333 327,332.5 327.5,332C 323.113,331.774 318.779,331.274 314.5,330.5C 313.52,327.914 313.187,325.247 313.5,322.5C 336.449,324.039 349.782,313.539 353.5,291C 353.716,287.869 352.383,285.869 349.5,285C 344.211,283.013 338.878,281.013 333.5,279C 328.534,275.172 322.867,273.338 316.5,273.5C 316.194,270.615 316.527,267.948 317.5,265.5C 325.554,264.436 332.887,266.103 339.5,270.5C 340.833,267.5 340.833,264.5 339.5,261.5C 320.508,255.007 307.674,242.341 301,223.5C 300.501,218.845 300.334,214.179 300.5,209.5C 302.948,208.527 305.615,208.194 308.5,208.5C 308.336,211.187 308.503,213.854 309,216.5C 310.381,218.635 311.381,220.968 312,223.5C 314.018,228.887 317.018,233.553 321,237.5C 323.14,239.64 325.306,241.806 327.5,244C 334.675,247.845 342.009,251.512 349.5,255C 356.358,257.155 363.358,257.822 370.5,257C 377.046,254.982 382.213,251.148 386,245.5C 385.818,233.635 380.318,225.135 369.5,220C 361.998,208.408 351.665,200.408 338.5,196C 325.803,186.15 311.803,178.65 296.5,173.5C 297.388,170.946 297.721,168.279 297.5,165.5C 303.233,164.895 308.566,166.062 313.5,169C 325.158,173.822 335.824,180.156 345.5,188C 352.276,190.554 358.609,193.887 364.5,198C 371.038,206.206 378.538,213.372 387,219.5C 394.162,229.703 396.496,241.036 394,253.5C 389.639,258.934 384.139,262.767 377.5,265C 367.78,265.586 358.113,265.586 348.5,265C 349.13,268.129 349.796,271.296 350.5,274.5C 354.11,275.943 357.61,277.61 361,279.5C 365.26,298.345 360.093,313.845 345.5,326C 341.736,326.459 339.903,328.626 340,332.5C 337.607,334.89 335.607,337.557 334,340.5C 332.336,349.143 330.836,357.81 329.5,366.5C 327.774,368.228 326.441,370.228 325.5,372.5C 320.955,375.345 315.955,376.679 310.5,376.5C 303.11,376.764 295.777,376.43 288.5,375.5C 284.566,373.238 280.9,370.571 277.5,367.5C 273.593,369.955 270.593,373.288 268.5,377.5C 248.845,378.5 229.178,378.833 209.5,378.5C 207.123,380.228 205.456,382.561 204.5,385.5C 185.685,389.385 169.685,384.552 156.5,371C 137.336,371.183 123.836,362.683 116,345.5C 110.151,327.116 102.651,309.449 93.5,292.5C 90.4587,290.117 87.6254,287.451 85,284.5C 82.3885,278.275 80.0551,271.942 78,265.5C 77.1701,259.804 77.3368,254.137 78.5,248.5C 83.4562,244.713 88.7895,241.546 94.5,239C 98.0863,237.892 101.753,237.392 105.5,237.5C 105.618,234.312 106.451,231.312 108,228.5C 109.92,225.661 111.587,222.661 113,219.5C 114.255,218.789 115.421,217.956 116.5,217C 102.405,214.577 91.905,207.077 85,194.5C 84.3333,189.5 84.3333,184.5 85,179.5C 87.5518,172.499 91.2185,166.166 96,160.5C 107.225,154.425 118.725,148.925 130.5,144C 135.637,143.133 140.637,141.799 145.5,140C 151.167,139.333 156.833,139.333 162.5,140C 171.039,142.134 179.706,143.634 188.5,144.5 Z"/></g>
<g><path style="opacity:1" fill="#fedb89" d="M 187.5,152.5 C 186.237,159.016 187.904,164.516 192.5,169C 200.533,174.013 208.533,179.013 216.5,184C 238.111,190.583 260.111,192.249 282.5,189C 289.792,186.208 294.458,181.042 296.5,173.5C 311.803,178.65 325.803,186.15 338.5,196C 351.665,200.408 361.998,208.408 369.5,220C 380.318,225.135 385.818,233.635 386,245.5C 382.213,251.148 377.046,254.982 370.5,257C 363.358,257.822 356.358,257.155 349.5,255C 342.009,251.512 334.675,247.845 327.5,244C 325.306,241.806 323.14,239.64 321,237.5C 317.018,233.553 314.018,228.887 312,223.5C 311.381,220.968 310.381,218.635 309,216.5C 308.503,213.854 308.336,211.187 308.5,208.5C 305.615,208.194 302.948,208.527 300.5,209.5C 298.5,209.5 296.5,209.5 294.5,209.5C 294.425,213.897 294.925,218.23 296,222.5C 300.679,234.52 305.346,246.52 310,258.5C 312.396,261.067 314.896,263.4 317.5,265.5C 316.527,267.948 316.194,270.615 316.5,273.5C 322.867,273.338 328.534,275.172 333.5,279C 338.878,281.013 344.211,283.013 349.5,285C 352.383,285.869 353.716,287.869 353.5,291C 349.782,313.539 336.449,324.039 313.5,322.5C 313.187,325.247 313.52,327.914 314.5,330.5C 318.779,331.274 323.113,331.774 327.5,332C 327,332.5 326.5,333 326,333.5C 324.495,342.209 322.829,350.875 321,359.5C 319.708,361.249 318.542,363.082 317.5,365C 305.514,371.038 294.847,369.371 285.5,360C 279.388,359.091 273.388,359.424 267.5,361C 265.286,363.925 262.953,366.759 260.5,369.5C 240.178,370.5 219.844,370.833 199.5,370.5C 199.598,372.553 198.931,374.22 197.5,375.5C 187.98,374.572 179.98,370.738 173.5,364C 165.001,360.164 157.001,355.497 149.5,350C 143.834,345.463 138.501,340.63 133.5,335.5C 131.273,330.046 128.773,324.713 126,319.5C 124.644,318.62 123.144,318.286 121.5,318.5C 121.657,317.127 121.49,315.793 121,314.5C 117.677,308.651 114.51,302.651 111.5,296.5C 109.955,295.548 108.288,295.215 106.5,295.5C 104.853,292.271 103.186,288.937 101.5,285.5C 98.5157,283.016 95.6824,280.35 93,277.5C 90.2221,270.943 87.7221,264.276 85.5,257.5C 90.3567,252.655 96.0234,248.988 102.5,246.5C 102.594,250.887 102.594,255.554 102.5,260.5C 105.167,260.5 107.833,260.5 110.5,260.5C 111.072,248.624 114.405,237.624 120.5,227.5C 124.16,224.786 126.826,221.453 128.5,217.5C 133.216,216.992 137.882,216.158 142.5,215C 156.543,208.565 169.71,200.732 182,191.5C 182.498,188.518 182.665,185.518 182.5,182.5C 179.753,182.187 177.086,182.52 174.5,183.5C 165.72,189.104 157.053,194.938 148.5,201C 125.158,214.831 106.492,210.165 92.5,187C 93.2524,186.329 93.5858,185.496 93.5,184.5C 94.1667,184.5 94.5,184.167 94.5,183.5C 97.1104,176.721 101.11,170.888 106.5,166C 116.952,161.519 127.285,156.853 137.5,152C 143.16,151.044 148.66,149.544 154,147.5C 164.911,150.658 176.077,152.325 187.5,152.5 Z"/></g>
<g><path style="opacity:1" fill="#f2d285" d="M 300.5,209.5 C 300.334,214.179 300.501,218.845 301,223.5C 307.674,242.341 320.508,255.007 339.5,261.5C 340.833,264.5 340.833,267.5 339.5,270.5C 332.887,266.103 325.554,264.436 317.5,265.5C 314.896,263.4 312.396,261.067 310,258.5C 305.346,246.52 300.679,234.52 296,222.5C 294.925,218.23 294.425,213.897 294.5,209.5C 296.5,209.5 298.5,209.5 300.5,209.5 Z"/></g>
<g><path style="opacity:1" fill="#aa5509" d="M 175.5,261.5 C 168.5,261.5 161.5,261.5 154.5,261.5C 154.5,252.5 154.5,243.5 154.5,234.5C 157.059,234.802 159.393,234.468 161.5,233.5C 161.5,231.5 161.5,229.5 161.5,227.5C 168.5,227.5 175.5,227.5 182.5,227.5C 182.5,236.5 182.5,245.5 182.5,254.5C 180.5,254.5 178.5,254.5 176.5,254.5C 176.802,257.059 176.468,259.393 175.5,261.5 Z"/></g>
<g><path style="opacity:1" fill="#fac073" d="M 161.5,233.5 C 159.393,234.468 157.059,234.802 154.5,234.5C 154.5,243.5 154.5,252.5 154.5,261.5C 161.5,261.5 168.5,261.5 175.5,261.5C 172.146,270.848 165.479,275.181 155.5,274.5C 142.882,275.695 133.716,270.695 128,259.5C 126.919,252.946 127.586,246.612 130,240.5C 132.778,237.193 136.278,235.026 140.5,234C 147.492,233.5 154.492,233.334 161.5,233.5 Z"/></g>
<g><path style="opacity:1" fill="#fefeee" d="M 169.5,233.5 C 171.5,233.5 173.5,233.5 175.5,233.5C 175.5,235.5 175.5,237.5 175.5,239.5C 173.5,239.5 171.5,239.5 169.5,239.5C 169.5,241.167 169.5,242.833 169.5,244.5C 167.5,244.5 165.5,244.5 163.5,244.5C 163.5,242.5 163.5,240.5 163.5,238.5C 165.5,238.5 167.5,238.5 169.5,238.5C 169.5,236.833 169.5,235.167 169.5,233.5 Z"/></g>
<g><path style="opacity:1" fill="#aa5509" d="M 215.5,246.5 C 218.167,246.5 220.833,246.5 223.5,246.5C 223.5,248.833 223.5,251.167 223.5,253.5C 225.5,253.5 227.5,253.5 229.5,253.5C 229.5,256.167 229.5,258.833 229.5,261.5C 226.833,261.5 224.167,261.5 221.5,261.5C 221.5,259.167 221.5,256.833 221.5,254.5C 220.167,254.5 218.833,254.5 217.5,254.5C 217.5,256.833 217.5,259.167 217.5,261.5C 214.833,261.5 212.167,261.5 209.5,261.5C 209.5,258.833 209.5,256.167 209.5,253.5C 211.5,253.5 213.5,253.5 215.5,253.5C 215.5,251.167 215.5,248.833 215.5,246.5 Z"/></g>
<g><path style="opacity:1" fill="#aa5509" d="M 277.5,255.5 C 277.5,261.833 277.5,268.167 277.5,274.5C 275.5,274.5 273.5,274.5 271.5,274.5C 271.5,276.833 271.5,279.167 271.5,281.5C 265.167,281.5 258.833,281.5 252.5,281.5C 251.5,281.5 250.5,281.5 249.5,281.5C 249.5,272.5 249.5,263.5 249.5,254.5C 251.5,254.5 253.5,254.5 255.5,254.5C 255.5,252.167 255.5,249.833 255.5,247.5C 262.833,247.5 270.167,247.5 277.5,247.5C 277.5,250.167 277.5,252.833 277.5,255.5 Z"/></g>
<g><path style="opacity:1" fill="#fac073" d="M 252.5,281.5 C 258.833,281.5 265.167,281.5 271.5,281.5C 271.5,279.167 271.5,276.833 271.5,274.5C 273.5,274.5 275.5,274.5 277.5,274.5C 277.5,268.167 277.5,261.833 277.5,255.5C 300.587,248.81 310.753,257.476 308,281.5C 305.349,288.814 300.182,293.314 292.5,295C 284.167,295.667 275.833,295.667 267.5,295C 261.408,294.203 256.574,291.369 253,286.5C 252.506,284.866 252.34,283.199 252.5,281.5 Z"/></g>
<g><path style="opacity:1" fill="#fefeee" d="M 262.5,255.5 C 264.5,255.5 266.5,255.5 268.5,255.5C 268.5,257.5 268.5,259.5 268.5,261.5C 266.5,261.5 264.5,261.5 262.5,261.5C 262.5,259.5 262.5,257.5 262.5,255.5 Z"/></g>
<g><path style="opacity:1" fill="#fefeee" d="M 255.5,260.5 C 257.5,260.5 259.5,260.5 261.5,260.5C 261.5,262.5 261.5,264.5 261.5,266.5C 259.5,266.5 257.5,266.5 255.5,266.5C 255.5,264.5 255.5,262.5 255.5,260.5 Z"/></g>
<g><path style="opacity:1" fill="#f2d285" d="M 106.5,295.5 C 108.288,295.215 109.955,295.548 111.5,296.5C 114.51,302.651 117.677,308.651 121,314.5C 121.49,315.793 121.657,317.127 121.5,318.5C 123.144,318.286 124.644,318.62 126,319.5C 128.773,324.713 131.273,330.046 133.5,335.5C 138.501,340.63 143.834,345.463 149.5,350C 157.001,355.497 165.001,360.164 173.5,364C 179.98,370.738 187.98,374.572 197.5,375.5C 196.922,377.38 195.588,378.38 193.5,378.5C 188.453,377.524 183.453,376.357 178.5,375C 173.211,371.38 168.211,367.38 163.5,363C 144.865,363.283 131.699,355.116 124,338.5C 119.23,323.679 113.396,309.345 106.5,295.5 Z"/></g>
<g><path style="opacity:1" fill="#fedc89" d="M 288.5,375.5 C 295.777,376.43 303.11,376.764 310.5,376.5C 303.679,377.655 296.679,377.821 289.5,377C 288.944,376.617 288.611,376.117 288.5,375.5 Z"/></g>
<g><path style="opacity:1" fill="#f1d284" d="M 209.5,378.5 C 210.369,380.717 210.702,383.05 210.5,385.5C 208.5,385.5 206.5,385.5 204.5,385.5C 205.456,382.561 207.123,380.228 209.5,378.5 Z"/></g>
</svg>
