<?xml version="1.0" encoding="UTF-8"?>
<!DOCTYPE svg PUBLIC "-//W3C//DTD SVG 1.1//EN" "http://www.w3.org/Graphics/SVG/1.1/DTD/svg11.dtd">
<svg xmlns="http://www.w3.org/2000/svg" version="1.1" width="736px" height="736px" style="shape-rendering:geometricPrecision; text-rendering:geometricPrecision; image-rendering:optimizeQuality; fill-rule:evenodd; clip-rule:evenodd" xmlns:xlink="http://www.w3.org/1999/xlink">
<g><path style="opacity:1" fill="#849358" d="M 517.5,514.5 C 514.5,514.5 511.5,514.5 508.5,514.5C 506.612,512.012 505.945,509.012 506.5,505.5C 506.5,503.167 506.5,500.833 506.5,498.5C 512.573,499.738 516.239,497.405 517.5,491.5C 521.928,477.258 524.094,462.592 524,447.5C 516.026,452.644 507.859,457.31 499.5,461.5C 495.265,462.966 490.932,464.133 486.5,465C 484.561,465.908 483.561,467.408 483.5,469.5C 480.02,470.273 476.687,471.606 473.5,473.5C 467.354,475.438 461.354,477.771 455.5,480.5C 450.38,482.647 445.38,484.981 440.5,487.5C 430.438,482.934 420.771,483.767 411.5,490C 408.636,492.366 405.969,494.866 403.5,497.5C 401.167,498.167 398.833,498.833 396.5,499.5C 388.307,497.551 379.974,497.051 371.5,498C 367.85,499.828 365.516,502.661 364.5,506.5C 362.167,506.5 359.833,506.5 357.5,506.5C 350.906,507.818 344.24,508.485 337.5,508.5C 331.788,508.687 326.121,508.354 320.5,507.5C 315.439,506.45 310.439,506.45 305.5,507.5C 299.625,508.997 293.625,509.664 287.5,509.5C 278.675,509.454 270.008,508.454 261.5,506.5C 260.174,509.001 259.674,511.668 260,514.5C 262.232,522.797 266.398,529.964 272.5,536C 281.609,538.25 290.609,540.417 299.5,542.5C 298.274,546.62 296.274,550.287 293.5,553.5C 282.188,553.256 271.188,551.256 260.5,547.5C 258.517,545.016 256.35,542.683 254,540.5C 252.599,535.545 250.599,530.878 248,526.5C 246.814,520.915 246.148,515.249 246,509.5C 241.371,506.883 236.871,504.049 232.5,501C 216.754,497.544 202.587,490.711 190,480.5C 183.531,465.755 177.865,450.755 173,435.5C 172.333,416.167 172.333,396.833 173,377.5C 176.485,364.738 178.152,351.738 178,338.5C 179.701,336.1 180.534,333.433 180.5,330.5C 179.593,322.872 177.76,315.539 175,308.5C 174.112,294.459 174.446,280.459 176,266.5C 178.735,261.367 181.735,256.367 185,251.5C 185.333,249.167 185.667,246.833 186,244.5C 188.923,240.992 191.09,236.992 192.5,232.5C 198.344,225.46 204.177,218.46 210,211.5C 212.833,209.333 215.667,207.167 218.5,205C 224.224,203.975 229.891,202.642 235.5,201C 254.515,200.334 273.515,200.667 292.5,202C 300.349,203.093 307.349,206.093 313.5,211C 321.969,220.47 330.803,229.637 340,238.5C 341.467,230.438 343.134,222.438 345,214.5C 347.57,207.46 350.903,200.793 355,194.5C 356.873,192.291 359.04,190.458 361.5,189C 373.061,183.768 384.394,178.102 395.5,172C 400.464,171.964 405.131,170.798 409.5,168.5C 410.429,167.311 410.762,165.978 410.5,164.5C 420.481,163.501 430.481,163.334 440.5,164C 446.734,165.557 453.067,166.557 459.5,167C 478.72,173.687 493.886,185.52 505,202.5C 512.163,221.772 514.997,241.772 513.5,262.5C 518.196,263.644 522.863,265.144 527.5,267C 536.665,276.32 546.665,284.82 557.5,292.5C 561.222,297.954 564.389,303.62 567,309.5C 569.507,341.569 567.507,373.236 561,404.5C 558.915,410.411 556.249,416.078 553,421.5C 548.228,426.874 542.895,431.54 537,435.5C 537.429,456.012 535.763,476.346 532,496.5C 530.333,500.5 528.667,504.5 527,508.5C 525.315,510.017 523.815,511.684 522.5,513.5C 520.955,514.452 519.288,514.785 517.5,514.5 Z"/></g>
<g><path style="opacity:1" fill="#fefffe" d="M 428.5,175.5 C 434.977,177.451 441.643,178.617 448.5,179C 467.148,185.575 481.981,197.075 493,213.5C 504.198,240.151 504.198,266.817 493,293.5C 492,294.167 491,294.833 490,295.5C 488.385,299.072 486.552,302.405 484.5,305.5C 483.07,305.421 481.736,305.754 480.5,306.5C 473.945,313.225 466.945,319.391 459.5,325C 453.047,325.079 446.713,325.912 440.5,327.5C 428.207,326.002 415.874,324.835 403.5,324C 401.884,323.385 400.551,322.385 399.5,321C 397.833,320.667 396.167,320.333 394.5,320C 387.726,313.773 380.726,307.773 373.5,302C 372.552,301.517 371.552,301.351 370.5,301.5C 365.236,288.301 359.403,275.301 353,262.5C 352.262,260.047 351.762,257.547 351.5,255C 353.011,237.181 358.177,220.681 367,205.5C 368.925,204.12 370.759,202.62 372.5,201C 384.196,195.975 395.529,190.308 406.5,184C 413.819,182.494 421.152,181.328 428.5,180.5C 428.5,178.833 428.5,177.167 428.5,175.5 Z"/></g>
<g><path style="opacity:1" fill="#fefffe" d="M 246.5,212.5 C 258.174,212.772 269.84,213.272 281.5,214C 288.608,214.922 294.941,217.589 300.5,222C 305.51,228.01 311.177,233.343 317.5,238C 323.244,243.073 328.244,248.74 332.5,255C 334.48,256.825 336.813,257.659 339.5,257.5C 340.617,268.966 341.617,280.466 342.5,292C 340.4,301.37 339.233,310.87 339,320.5C 337.363,324.637 334.53,327.637 330.5,329.5C 328.102,332.571 326.102,335.905 324.5,339.5C 320.801,343.019 316.468,345.519 311.5,347C 302.742,348.079 294.409,350.413 286.5,354C 278.424,356.879 270.257,359.379 262,361.5C 253.831,360.267 245.665,358.767 237.5,357C 227.656,352.036 217.656,347.369 207.5,343C 204.226,340.283 201.059,337.45 198,334.5C 194.348,322.174 190.681,309.841 187,297.5C 186.362,290.792 186.695,284.126 188,277.5C 189.667,276.5 191,275.167 192,273.5C 195.403,263.589 199.403,253.923 204,244.5C 210,237.167 216,229.833 222,222.5C 224.333,221.587 226.166,220.087 227.5,218C 234.101,216.676 240.434,214.843 246.5,212.5 Z"/></g>
<g><path style="opacity:1" fill="#83915b" d="M 395.5,243.5 C 401.537,243.171 407.537,243.504 413.5,244.5C 417.039,248.911 419.539,253.911 421,259.5C 421.838,269.878 421.505,280.212 420,290.5C 418.647,291.685 417.48,293.019 416.5,294.5C 407.518,295.665 398.518,295.832 389.5,295C 387.58,293.878 385.58,293.044 383.5,292.5C 383.496,290.158 382.663,288.158 381,286.5C 380.333,276.833 380.333,267.167 381,257.5C 383.167,255.333 385.333,253.167 387.5,251C 391.319,249.68 393.985,247.18 395.5,243.5 Z"/></g>
<g><path style="opacity:1" fill="#83915b" d="M 292.5,265.5 C 298.833,265.5 305.167,265.5 311.5,265.5C 311.5,267.833 311.5,270.167 311.5,272.5C 315.473,273.643 317.973,276.31 319,280.5C 319.667,292.167 319.667,303.833 319,315.5C 317.048,317.894 314.548,319.394 311.5,320C 300.774,320.903 290.107,320.569 279.5,319C 278.874,318.25 278.374,317.416 278,316.5C 277.333,304.5 277.333,292.5 278,280.5C 279.167,278.167 280.333,275.833 281.5,273.5C 285.527,271.185 289.194,268.518 292.5,265.5 Z"/></g>
<g><path style="opacity:1" fill="#ddf391" d="M 305.5,492.5 C 298.568,490.696 291.235,489.863 283.5,490C 267.171,485.612 251.171,480.112 235.5,473.5C 234.702,471.922 234.202,470.256 234,468.5C 229.751,465.388 225.751,462.055 222,458.5C 219.279,452.746 216.112,447.413 212.5,442.5C 220.833,442.5 229.167,442.5 237.5,442.5C 237.5,441.167 237.5,439.833 237.5,438.5C 248.472,437.183 258.805,433.849 268.5,428.5C 269.48,427.019 270.647,425.685 272,424.5C 273.794,411.624 272.294,399.29 267.5,387.5C 277.526,387.554 287.526,387.054 297.5,386C 309.252,383.825 320.919,381.325 332.5,378.5C 342.467,384.364 352.8,384.864 363.5,380C 369.254,373.298 371.754,365.465 371,356.5C 379.159,362.772 388.325,364.939 398.5,363C 401.369,361.404 404.036,359.57 406.5,357.5C 428.122,360.043 449.789,360.043 471.5,357.5C 471.198,354.941 471.532,352.607 472.5,350.5C 471.873,358.415 475.206,363.915 482.5,367C 496.5,367.667 510.5,367.667 524.5,367C 533.479,365.353 539.313,360.186 542,351.5C 542.667,341.5 542.667,331.5 542,321.5C 540.885,320 540.052,318.333 539.5,316.5C 529.231,308.197 517.565,304.53 504.5,305.5C 508.633,296.559 511.633,287.226 513.5,277.5C 523.688,287.048 534.522,296.048 546,304.5C 550.782,311.675 554.282,319.342 556.5,327.5C 555.717,337.139 555.217,346.806 555,356.5C 553.152,364.298 552.152,372.298 552,380.5C 550.58,388.496 548.246,396.163 545,403.5C 541.5,411 536,416.5 528.5,420C 522.5,424.667 517.167,430 512.5,436C 506.553,438.967 500.886,442.3 495.5,446C 479.66,452.392 463.66,458.392 447.5,464C 425.34,476.25 401.673,483.583 376.5,486C 368.945,488.178 361.278,489.844 353.5,491C 337.483,491.262 321.483,491.762 305.5,492.5 Z"/></g>
<g><path style="opacity:1" fill="#f7c281" d="M 504.5,305.5 C 517.565,304.53 529.231,308.197 539.5,316.5C 540.052,318.333 540.885,320 542,321.5C 542.667,331.5 542.667,341.5 542,351.5C 539.313,360.186 533.479,365.353 524.5,367C 510.5,367.667 496.5,367.667 482.5,367C 475.206,363.915 471.873,358.415 472.5,350.5C 472.5,346.833 472.5,343.167 472.5,339.5C 472.5,338.5 472.5,337.5 472.5,336.5C 477.191,332.315 481.857,327.815 486.5,323C 489.413,320.413 492.58,318.246 496,316.5C 498.929,313.31 500.762,309.643 501.5,305.5C 502.5,305.5 503.5,305.5 504.5,305.5 Z"/></g>
<g><path style="opacity:1" fill="#d6eb8d" d="M 453.5,339.5 C 459.833,339.5 466.167,339.5 472.5,339.5C 472.5,343.167 472.5,346.833 472.5,350.5C 471.532,352.607 471.198,354.941 471.5,357.5C 449.789,360.043 428.122,360.043 406.5,357.5C 408.173,352.753 407.84,348.253 405.5,344C 403.527,343.505 401.527,343.338 399.5,343.5C 399.543,346.587 399.71,349.587 400,352.5C 397.533,354.802 394.7,356.469 391.5,357.5C 383.98,356.075 377.647,352.575 372.5,347C 369.633,346.199 366.966,346.366 364.5,347.5C 359.693,355.598 354.026,363.098 347.5,370C 344.91,371.445 342.243,372.612 339.5,373.5C 337.544,371.852 335.211,371.185 332.5,371.5C 332.5,373.833 332.5,376.167 332.5,378.5C 320.919,381.325 309.252,383.825 297.5,386C 287.526,387.054 277.526,387.554 267.5,387.5C 264.321,383.825 260.654,380.658 256.5,378C 243.935,375.811 231.268,374.978 218.5,375.5C 216.315,370.314 213.315,365.647 209.5,361.5C 215.064,364.231 220.731,366.731 226.5,369C 241.048,372.357 255.714,374.024 270.5,374C 281.949,371.517 292.949,367.85 303.5,363C 311.104,361.03 318.771,359.364 326.5,358C 333.702,355.129 338.536,349.962 341,342.5C 345,339.833 348.333,336.5 351,332.5C 350.924,322.944 352.258,313.61 355,304.5C 357.063,307.011 358.563,309.844 359.5,313C 360.5,313.333 361.5,313.667 362.5,314C 369.767,319.783 376.767,325.783 383.5,332C 386.874,332.521 389.874,333.854 392.5,336C 412.787,338.078 433.12,339.245 453.5,339.5 Z"/></g>
<g><path style="opacity:1" fill="#f1f0f1" d="M 472.5,336.5 C 472.5,337.5 472.5,338.5 472.5,339.5C 466.167,339.5 459.833,339.5 453.5,339.5C 454.263,338.732 455.263,338.232 456.5,338C 461.882,337.735 467.215,337.235 472.5,336.5 Z"/></g>
<g><path style="opacity:1" fill="#83915b" d="M 406.5,357.5 C 404.036,359.57 401.369,361.404 398.5,363C 388.325,364.939 379.159,362.772 371,356.5C 371.754,365.465 369.254,373.298 363.5,380C 352.8,384.864 342.467,384.364 332.5,378.5C 332.5,376.167 332.5,373.833 332.5,371.5C 335.211,371.185 337.544,371.852 339.5,373.5C 344.796,376.808 350.462,377.308 356.5,375C 358.286,374.215 359.786,373.049 361,371.5C 364.149,363.832 365.316,355.832 364.5,347.5C 366.966,346.366 369.633,346.199 372.5,347C 377.647,352.575 383.98,356.075 391.5,357.5C 394.7,356.469 397.533,354.802 400,352.5C 399.71,349.587 399.543,346.587 399.5,343.5C 401.527,343.338 403.527,343.505 405.5,344C 407.84,348.253 408.173,352.753 406.5,357.5 Z"/></g>
<g><path style="opacity:1" fill="#ddf491" d="M 364.5,347.5 C 365.316,355.832 364.149,363.832 361,371.5C 359.786,373.049 358.286,374.215 356.5,375C 350.462,377.308 344.796,376.808 339.5,373.5C 342.243,372.612 344.91,371.445 347.5,370C 354.026,363.098 359.693,355.598 364.5,347.5 Z"/></g>
<g><path style="opacity:1" fill="#ddf491" d="M 209.5,361.5 C 213.315,365.647 216.315,370.314 218.5,375.5C 208.753,377.738 202.253,383.738 199,393.5C 198.333,402.5 198.333,411.5 199,420.5C 199.956,426.205 201.79,431.538 204.5,436.5C 199.063,434.228 195.563,430.228 194,424.5C 193.611,416.655 190.444,410.322 184.5,405.5C 184.218,392.958 185.718,380.625 189,368.5C 189.333,362.167 189.667,355.833 190,349.5C 195.878,354.514 202.378,358.514 209.5,361.5 Z"/></g>
<g><path style="opacity:1" fill="#f7c281" d="M 218.5,375.5 C 231.268,374.978 243.935,375.811 256.5,378C 260.654,380.658 264.321,383.825 267.5,387.5C 272.294,399.29 273.794,411.624 272,424.5C 270.647,425.685 269.48,427.019 268.5,428.5C 258.805,433.849 248.472,437.183 237.5,438.5C 237.5,439.833 237.5,441.167 237.5,442.5C 229.167,442.5 220.833,442.5 212.5,442.5C 210.641,441.406 208.641,440.573 206.5,440C 205.177,439.184 204.511,438.017 204.5,436.5C 201.79,431.538 199.956,426.205 199,420.5C 198.333,411.5 198.333,402.5 199,393.5C 202.253,383.738 208.753,377.738 218.5,375.5 Z"/></g>
<g><path style="opacity:1" fill="#d5eb8c" d="M 184.5,405.5 C 190.444,410.322 193.611,416.655 194,424.5C 195.563,430.228 199.063,434.228 204.5,436.5C 204.511,438.017 205.177,439.184 206.5,440C 208.641,440.573 210.641,441.406 212.5,442.5C 216.112,447.413 219.279,452.746 222,458.5C 225.751,462.055 229.751,465.388 234,468.5C 234.202,470.256 234.702,471.922 235.5,473.5C 251.171,480.112 267.171,485.612 283.5,490C 291.235,489.863 298.568,490.696 305.5,492.5C 299.415,493.8 293.415,495.467 287.5,497.5C 275,493.17 262.166,491.836 249,493.5C 247.457,491.622 245.624,490.122 243.5,489C 228.255,485.629 214.422,479.129 202,469.5C 195.531,454.755 189.865,439.755 185,424.5C 184.5,418.175 184.334,411.842 184.5,405.5 Z"/></g>
<g><path style="opacity:1" fill="#ddf391" d="M 517.5,491.5 C 516.778,491.082 516.278,490.416 516,489.5C 515.686,479.936 513.352,470.936 509,462.5C 505.943,461.549 502.777,461.216 499.5,461.5C 507.859,457.31 516.026,452.644 524,447.5C 524.094,462.592 521.928,477.258 517.5,491.5 Z"/></g>
<g><path style="opacity:1" fill="#d6eb8d" d="M 499.5,461.5 C 502.777,461.216 505.943,461.549 509,462.5C 513.352,470.936 515.686,479.936 516,489.5C 516.278,490.416 516.778,491.082 517.5,491.5C 516.239,497.405 512.573,499.738 506.5,498.5C 506.5,500.833 506.5,503.167 506.5,505.5C 503.675,505.838 501.508,504.838 500,502.5C 498.922,493.855 495.588,486.189 490,479.5C 488.377,476.673 487.21,473.673 486.5,470.5C 485.675,469.614 484.675,469.281 483.5,469.5C 483.561,467.408 484.561,465.908 486.5,465C 490.932,464.133 495.265,462.966 499.5,461.5 Z"/></g>
<g><path style="opacity:1" fill="#958968" d="M 483.5,469.5 C 484.675,469.281 485.675,469.614 486.5,470.5C 487.21,473.673 488.377,476.673 490,479.5C 495.588,486.189 498.922,493.855 500,502.5C 501.508,504.838 503.675,505.838 506.5,505.5C 505.945,509.012 506.612,512.012 508.5,514.5C 508.833,515.5 509.5,516.167 510.5,516.5C 511.028,517.721 511.695,518.887 512.5,520C 515.702,521.744 518.702,523.577 521.5,525.5C 521.5,528.833 521.5,532.167 521.5,535.5C 521.5,536.833 521.5,538.167 521.5,539.5C 519.5,539.5 517.5,539.5 515.5,539.5C 509.949,540.071 504.615,541.571 499.5,544C 495.783,547.385 491.783,550.385 487.5,553C 474.481,558.844 461.481,564.677 448.5,570.5C 443.649,572.089 439.315,574.422 435.5,577.5C 431.33,578.952 426.997,579.619 422.5,579.5C 412.84,578.462 403.173,578.462 393.5,579.5C 387.833,579.5 382.167,579.5 376.5,579.5C 354.86,578.544 333.193,578.211 311.5,578.5C 307.4,578.763 303.4,578.43 299.5,577.5C 296.585,577.087 294.752,575.421 294,572.5C 293.5,566.175 293.334,559.842 293.5,553.5C 296.274,550.287 298.274,546.62 299.5,542.5C 304.176,531.502 306.176,519.836 305.5,507.5C 310.439,506.45 315.439,506.45 320.5,507.5C 318.215,518.326 316.715,529.326 316,540.5C 313.897,548.112 311.064,555.445 307.5,562.5C 308.423,564.636 310.089,565.802 312.5,566C 318.491,566.499 324.491,566.666 330.5,566.5C 336.5,566.5 342.5,566.5 348.5,566.5C 356.833,566.5 365.167,566.5 373.5,566.5C 379.181,566.635 384.848,566.968 390.5,567.5C 398.087,566.019 405.753,565.352 413.5,565.5C 417.182,565.665 420.848,565.499 424.5,565C 427.525,563.065 430.525,561.232 433.5,559.5C 444.301,555.656 454.634,550.989 464.5,545.5C 473.326,543.671 480.659,539.337 486.5,532.5C 490.418,531.214 494.084,529.548 497.5,527.5C 494.175,522.858 490.841,518.191 487.5,513.5C 486.774,510.148 485.941,506.815 485,503.5C 476.986,495.133 473.153,485.133 473.5,473.5C 476.687,471.606 480.02,470.273 483.5,469.5 Z"/></g>
<g><path style="opacity:1" fill="#fdfffe" d="M 473.5,473.5 C 473.153,485.133 476.986,495.133 485,503.5C 485.941,506.815 486.774,510.148 487.5,513.5C 490.841,518.191 494.175,522.858 497.5,527.5C 494.084,529.548 490.418,531.214 486.5,532.5C 484.712,532.785 483.045,532.452 481.5,531.5C 478.376,519.924 472.209,510.257 463,502.5C 458.598,495.793 456.098,488.459 455.5,480.5C 461.354,477.771 467.354,475.438 473.5,473.5 Z"/></g>
<g><path style="opacity:1" fill="#efbdb4" d="M 455.5,480.5 C 456.098,488.459 458.598,495.793 463,502.5C 472.209,510.257 478.376,519.924 481.5,531.5C 483.045,532.452 484.712,532.785 486.5,532.5C 480.659,539.337 473.326,543.671 464.5,545.5C 464.666,538.825 464.5,532.158 464,525.5C 460.667,520.833 457.333,516.167 454,511.5C 450.303,504.334 446.469,497.334 442.5,490.5C 441.833,489.5 441.167,488.5 440.5,487.5C 445.38,484.981 450.38,482.647 455.5,480.5 Z"/></g>
<g><path style="opacity:1" fill="#958968" d="M 440.5,487.5 C 441.167,488.5 441.833,489.5 442.5,490.5C 443.476,496.316 441.976,501.316 438,505.5C 434.098,508.182 429.932,510.182 425.5,511.5C 416.286,511.546 416.286,512.213 425.5,513.5C 429.634,514.485 433.968,514.818 438.5,514.5C 438.5,516.5 438.5,518.5 438.5,520.5C 435.167,520.5 431.833,520.5 428.5,520.5C 423.673,520.779 419.007,520.113 414.5,518.5C 411.072,516.703 407.572,515.036 404,513.5C 401.321,520.227 396.821,525.227 390.5,528.5C 388.481,529.566 386.481,530.732 384.5,532C 381.854,532.497 379.187,532.664 376.5,532.5C 376.201,530.396 376.534,528.396 377.5,526.5C 381.653,524.167 385.653,521.667 389.5,519C 385.254,519.367 380.92,519.533 376.5,519.5C 367.623,519.437 363.623,515.104 364.5,506.5C 365.516,502.661 367.85,499.828 371.5,498C 379.974,497.051 388.307,497.551 396.5,499.5C 397.105,501.026 398.271,502.026 400,502.5C 401.412,500.935 402.579,499.269 403.5,497.5C 405.969,494.866 408.636,492.366 411.5,490C 420.771,483.767 430.438,482.934 440.5,487.5 Z"/></g>
<g><path style="opacity:1" fill="#839357" d="M 429.5,491.5 C 426.162,492.836 422.829,494.169 419.5,495.5C 419.167,495.5 418.833,495.5 418.5,495.5C 421.624,492.129 425.291,490.796 429.5,491.5 Z"/></g>
<g><path style="opacity:1" fill="#fdfefe" d="M 442.5,490.5 C 446.469,497.334 450.303,504.334 454,511.5C 457.333,516.167 460.667,520.833 464,525.5C 464.5,532.158 464.666,538.825 464.5,545.5C 454.634,550.989 444.301,555.656 433.5,559.5C 430.358,558.122 429.692,555.788 431.5,552.5C 430.601,541.816 429.601,531.149 428.5,520.5C 431.833,520.5 435.167,520.5 438.5,520.5C 438.5,518.5 438.5,516.5 438.5,514.5C 433.968,514.818 429.634,514.485 425.5,513.5C 425.5,512.833 425.5,512.167 425.5,511.5C 429.932,510.182 434.098,508.182 438,505.5C 441.976,501.316 443.476,496.316 442.5,490.5 Z"/></g>
<g><path style="opacity:1" fill="#fdfffe" d="M 429.5,491.5 C 431.757,491.962 433.757,492.962 435.5,494.5C 432.686,499.737 428.353,502.737 422.5,503.5C 421.25,503.423 420.417,502.756 420,501.5C 419.505,499.527 419.338,497.527 419.5,495.5C 422.829,494.169 426.162,492.836 429.5,491.5 Z"/></g>
<g><path style="opacity:1" fill="#eebdb3" d="M 418.5,495.5 C 418.833,495.5 419.167,495.5 419.5,495.5C 419.338,497.527 419.505,499.527 420,501.5C 420.417,502.756 421.25,503.423 422.5,503.5C 422.389,504.117 422.056,504.617 421.5,505C 417.167,505.667 412.833,505.667 408.5,505C 411.096,500.9 414.429,497.733 418.5,495.5 Z"/></g>
<g><path style="opacity:1" fill="#fdfbfa" d="M 403.5,497.5 C 402.579,499.269 401.412,500.935 400,502.5C 398.271,502.026 397.105,501.026 396.5,499.5C 398.833,498.833 401.167,498.167 403.5,497.5 Z"/></g>
<g><path style="opacity:1" fill="#eebdb3" d="M 390.5,506.5 C 390.5,507.833 390.5,509.167 390.5,510.5C 387.166,511.806 383.666,512.806 380,513.5C 378.862,513.011 377.695,512.678 376.5,512.5C 376.5,509.833 376.5,507.167 376.5,504.5C 381.448,502.903 386.114,503.569 390.5,506.5 Z"/></g>
<g><path style="opacity:1" fill="#fdfffe" d="M 376.5,504.5 C 376.5,507.167 376.5,509.833 376.5,512.5C 370.647,510.506 370.647,507.839 376.5,504.5 Z"/></g>
<g><path style="opacity:1" fill="#d6eb8d" d="M 305.5,507.5 C 306.176,519.836 304.176,531.502 299.5,542.5C 290.609,540.417 281.609,538.25 272.5,536C 266.398,529.964 262.232,522.797 260,514.5C 259.674,511.668 260.174,509.001 261.5,506.5C 270.008,508.454 278.675,509.454 287.5,509.5C 293.625,509.664 299.625,508.997 305.5,507.5 Z"/></g>
<g><path style="opacity:1" fill="#eebdb3" d="M 357.5,506.5 C 354.035,519.681 351.202,533.014 349,546.5C 348.5,553.158 348.334,559.825 348.5,566.5C 342.5,566.5 336.5,566.5 330.5,566.5C 327.674,548.802 329.841,531.802 337,515.5C 337.497,513.19 337.663,510.857 337.5,508.5C 344.24,508.485 350.906,507.818 357.5,506.5 Z"/></g>
<g><path style="opacity:1" fill="#fdfffe" d="M 357.5,506.5 C 359.833,506.5 362.167,506.5 364.5,506.5C 363.623,515.104 367.623,519.437 376.5,519.5C 373.758,534.984 372.758,550.65 373.5,566.5C 365.167,566.5 356.833,566.5 348.5,566.5C 348.334,559.825 348.5,553.158 349,546.5C 351.202,533.014 354.035,519.681 357.5,506.5 Z"/></g>
<g><path style="opacity:1" fill="#fdfffe" d="M 390.5,506.5 C 395.805,507.858 395.805,509.192 390.5,510.5C 390.5,509.167 390.5,507.833 390.5,506.5 Z"/></g>
<g><path style="opacity:1" fill="#fdfffe" d="M 320.5,507.5 C 326.121,508.354 331.788,508.687 337.5,508.5C 337.663,510.857 337.497,513.19 337,515.5C 329.841,531.802 327.674,548.802 330.5,566.5C 324.491,566.666 318.491,566.499 312.5,566C 310.089,565.802 308.423,564.636 307.5,562.5C 311.064,555.445 313.897,548.112 316,540.5C 316.715,529.326 318.215,518.326 320.5,507.5 Z"/></g>
<g><path style="opacity:1" fill="#eebdb3" d="M 425.5,511.5 C 425.5,512.167 425.5,512.833 425.5,513.5C 416.286,512.213 416.286,511.546 425.5,511.5 Z"/></g>
<g><path style="opacity:1" fill="#fdfffe" d="M 414.5,518.5 C 415.933,534.203 415.6,549.87 413.5,565.5C 405.753,565.352 398.087,566.019 390.5,567.5C 390.5,554.5 390.5,541.5 390.5,528.5C 396.821,525.227 401.321,520.227 404,513.5C 407.572,515.036 411.072,516.703 414.5,518.5 Z"/></g>
<g><path style="opacity:1" fill="#d5eb8c" d="M 508.5,514.5 C 511.5,514.5 514.5,514.5 517.5,514.5C 515.721,516.344 513.388,517.01 510.5,516.5C 509.5,516.167 508.833,515.5 508.5,514.5 Z"/></g>
<g><path style="opacity:1" fill="#eebdb3" d="M 390.5,528.5 C 390.5,541.5 390.5,554.5 390.5,567.5C 384.848,566.968 379.181,566.635 373.5,566.5C 372.758,550.65 373.758,534.984 376.5,519.5C 380.92,519.533 385.254,519.367 389.5,519C 385.653,521.667 381.653,524.167 377.5,526.5C 376.534,528.396 376.201,530.396 376.5,532.5C 379.187,532.664 381.854,532.497 384.5,532C 386.481,530.732 388.481,529.566 390.5,528.5 Z"/></g>
<g><path style="opacity:1" fill="#eebdb3" d="M 414.5,518.5 C 419.007,520.113 423.673,520.779 428.5,520.5C 429.601,531.149 430.601,541.816 431.5,552.5C 429.692,555.788 430.358,558.122 433.5,559.5C 430.525,561.232 427.525,563.065 424.5,565C 420.848,565.499 417.182,565.665 413.5,565.5C 415.6,549.87 415.933,534.203 414.5,518.5 Z"/></g>
<g><path style="opacity:1" fill="#839357" d="M 521.5,535.5 C 523.833,535.5 526.167,535.5 528.5,535.5C 530.7,549.088 526.366,559.922 515.5,568C 509.143,571.845 503.143,576.178 497.5,581C 480.026,586.681 462.026,588.681 443.5,587C 438.478,585.69 435.812,582.523 435.5,577.5C 439.315,574.422 443.649,572.089 448.5,570.5C 450.513,572.497 452.846,574.164 455.5,575.5C 460.447,574.717 465.447,574.217 470.5,574C 475.2,572.254 480.033,570.754 485,569.5C 491.057,564.464 497.557,559.964 504.5,556C 510.051,551.724 513.718,546.224 515.5,539.5C 517.5,539.5 519.5,539.5 521.5,539.5C 521.5,538.167 521.5,536.833 521.5,535.5 Z"/></g>
<g><path style="opacity:1" fill="#dcf291" d="M 515.5,539.5 C 513.718,546.224 510.051,551.724 504.5,556C 497.557,559.964 491.057,564.464 485,569.5C 480.033,570.754 475.2,572.254 470.5,574C 465.447,574.217 460.447,574.717 455.5,575.5C 452.846,574.164 450.513,572.497 448.5,570.5C 461.481,564.677 474.481,558.844 487.5,553C 491.783,550.385 495.783,547.385 499.5,544C 504.615,541.571 509.949,540.071 515.5,539.5 Z"/></g>
<g><path style="opacity:1" fill="#839357" d="M 299.5,577.5 C 303.4,578.43 307.4,578.763 311.5,578.5C 310.241,586.447 313.574,590.947 321.5,592C 329.908,594.05 338.241,593.717 346.5,591C 356.717,587.214 366.717,583.381 376.5,579.5C 382.167,579.5 387.833,579.5 393.5,579.5C 393.664,582.187 393.497,584.854 393,587.5C 389.79,590.88 385.957,593.213 381.5,594.5C 378.848,594.41 376.515,595.076 374.5,596.5C 354.026,605.551 332.692,608.051 310.5,604C 305.581,603.067 301.748,600.567 299,596.5C 298.294,590.13 298.461,583.797 299.5,577.5 Z"/></g>
<g><path style="opacity:1" fill="#d7ed8e" d="M 311.5,578.5 C 333.193,578.211 354.86,578.544 376.5,579.5C 366.717,583.381 356.717,587.214 346.5,591C 338.241,593.717 329.908,594.05 321.5,592C 313.574,590.947 310.241,586.447 311.5,578.5 Z"/></g>
<g><path style="opacity:1" fill="#ddf491" d="M 381.5,594.5 C 381.389,595.117 381.056,595.617 380.5,596C 378.527,596.495 376.527,596.662 374.5,596.5C 376.515,595.076 378.848,594.41 381.5,594.5 Z"/></g>
</svg>
