<?xml version="1.0" encoding="UTF-8"?>
<!DOCTYPE svg PUBLIC "-//W3C//DTD SVG 1.1//EN" "http://www.w3.org/Graphics/SVG/1.1/DTD/svg11.dtd">
<svg xmlns="http://www.w3.org/2000/svg" version="1.1" width="570px" height="519px" style="shape-rendering:geometricPrecision; text-rendering:geometricPrecision; image-rendering:optimizeQuality; fill-rule:evenodd; clip-rule:evenodd" xmlns:xlink="http://www.w3.org/1999/xlink">
<g><path style="opacity:1" fill="#d98636" d="M 161.5,71.5 C 171.305,70.4453 180.638,71.7787 189.5,75.5C 199.797,83.63 209.631,92.2967 219,101.5C 220.934,105.804 222.767,110.137 224.5,114.5C 232.986,117.651 241.653,118.151 250.5,116C 258.22,113.667 265.886,111.334 273.5,109C 276.99,106.089 280.656,103.422 284.5,101C 310.13,92.7749 335.797,92.4415 361.5,100C 367.904,103.735 373.737,108.235 379,113.5C 385.286,121.826 391.619,130.16 398,138.5C 400.417,146.755 403.417,154.755 407,162.5C 408.478,179.141 408.811,195.808 408,212.5C 400.675,228.419 388.175,235.419 370.5,233.5C 370.005,242.786 368.672,251.953 366.5,261C 368.112,266.061 369.279,271.227 370,276.5C 370.667,277.833 371.333,279.167 372,280.5C 377.327,284.828 382.327,289.494 387,294.5C 388.78,319.158 388.947,343.825 387.5,368.5C 396.25,368.91 404.916,368.41 413.5,367C 418.295,364.287 423.295,361.954 428.5,360C 436.21,353.914 443.876,347.747 451.5,341.5C 457.889,333.392 462.722,324.392 466,314.5C 466.5,308.175 466.666,301.842 466.5,295.5C 471.167,295.5 475.833,295.5 480.5,295.5C 480.667,306.172 480.5,316.839 480,327.5C 474.861,344.261 465.027,357.094 450.5,366C 448.066,368.723 445.399,371.223 442.5,373.5C 437.004,375.718 431.671,378.218 426.5,381C 413.222,382.112 399.889,382.946 386.5,383.5C 385.374,388.396 383.207,392.729 380,396.5C 368.556,404.283 358.056,413.116 348.5,423C 342.713,425.481 337.047,428.147 331.5,431C 318.625,439.899 305.291,447.899 291.5,455C 286.999,456.917 282.332,458.251 277.5,459C 264.133,459.832 250.799,459.499 237.5,458C 233.653,455.794 230.153,453.294 227,450.5C 225.616,443.589 225.116,436.589 225.5,429.5C 209.804,429.587 194.137,430.254 178.5,431.5C 165.942,431.844 153.608,430.511 141.5,427.5C 141.5,426.5 141.5,425.5 141.5,424.5C 137.507,424.755 134.674,423.089 133,419.5C 132.17,413.804 132.337,408.137 133.5,402.5C 142.221,391.419 150.721,380.085 159,368.5C 159.888,364.973 160.722,361.473 161.5,358C 160.859,350.145 160.026,342.312 159,334.5C 153.56,331.391 148.393,327.891 143.5,324C 135.066,315.401 126.399,306.901 117.5,298.5C 115.092,296.302 112.425,294.636 109.5,293.5C 109.5,292.5 109.5,291.5 109.5,290.5C 108.178,290.67 107.011,290.337 106,289.5C 102.552,286.046 99.8853,282.046 98,277.5C 97.965,270 97.2984,262.666 96,255.5C 95.1225,242.458 95.4559,229.458 97,216.5C 98.5252,209.615 102.359,204.448 108.5,201C 109.901,199.323 111.235,197.656 112.5,196C 108.252,191.745 104.752,186.912 102,181.5C 100.457,166.536 100.124,151.536 101,136.5C 102.211,129.771 104.711,123.771 108.5,118.5C 110.227,111.218 113.893,105.052 119.5,100C 123.904,96.5969 128.571,93.5969 133.5,91C 134.337,89.9887 134.67,88.8221 134.5,87.5C 138.715,85.8663 142.048,83.0329 144.5,79C 150.123,75.9759 155.789,73.4759 161.5,71.5 Z"/></g>
<g><path style="opacity:1" fill="#fed08c" d="M 202.5,117.5 C 201.21,118.058 200.377,119.058 200,120.5C 199.501,125.823 199.334,131.156 199.5,136.5C 225.218,137.74 250.885,139.074 276.5,140.5C 276.5,136.5 276.5,132.5 276.5,128.5C 274.784,128.371 273.117,128.038 271.5,127.5C 280.538,126.027 288.538,122.193 295.5,116C 307.112,111.477 319.112,109.144 331.5,109C 336.889,111.581 342.556,113.247 348.5,114C 353.519,116.843 358.186,120.176 362.5,124C 369.085,133.698 376.252,142.864 384,151.5C 384.191,153.708 384.691,155.708 385.5,157.5C 387.735,163.634 390.235,169.634 393,175.5C 394.101,183.48 394.435,191.48 394,199.5C 392.333,202.5 390.667,205.5 389,208.5C 386.357,209.976 384.19,211.976 382.5,214.5C 378.798,216.758 374.798,218.091 370.5,218.5C 370.739,216.533 370.406,214.699 369.5,213C 358.626,214.042 348.626,211.709 339.5,206C 334.302,199.29 328.636,192.956 322.5,187C 319.854,186.503 317.187,186.336 314.5,186.5C 314.657,185.127 314.49,183.793 314,182.5C 300.615,172.269 290.782,159.269 284.5,143.5C 280.555,142.509 276.555,142.176 272.5,142.5C 271.738,152.662 274.238,161.995 280,170.5C 286.533,179.331 294.033,187.164 302.5,194C 305.482,194.498 308.482,194.665 311.5,194.5C 315.779,198.952 319.946,203.619 324,208.5C 324.056,211.78 324.889,214.78 326.5,217.5C 333.748,219.308 340.748,221.642 347.5,224.5C 347.315,240.504 346.981,256.504 346.5,272.5C 343.772,280.622 339.939,288.288 335,295.5C 331.076,298.213 326.909,300.547 322.5,302.5C 321.509,306.445 321.176,310.445 321.5,314.5C 325.846,314.666 330.179,314.499 334.5,314C 338.167,312.167 341.833,310.333 345.5,308.5C 349.757,302.992 353.257,296.992 356,290.5C 361.554,296.045 367.054,301.712 372.5,307.5C 373.64,315.458 374.307,323.458 374.5,331.5C 374.529,339.012 373.529,346.345 371.5,353.5C 366.674,359.137 362.841,365.47 360,372.5C 351.872,378.294 344.705,385.127 338.5,393C 326.838,399.162 315.504,405.829 304.5,413C 291.968,419.934 278.968,425.767 265.5,430.5C 262.275,429.816 259.275,428.649 256.5,427C 260.739,415.22 264.906,403.387 269,391.5C 269.333,385.167 269.667,378.833 270,372.5C 272.979,370.933 275.812,369.266 278.5,367.5C 280.435,366.85 282.435,366.517 284.5,366.5C 284.5,362.5 284.5,358.5 284.5,354.5C 277.482,354.434 270.482,354.768 263.5,355.5C 256.222,354.174 248.889,353.34 241.5,353C 237.188,350.03 232.854,347.03 228.5,344C 225.121,339.993 221.787,335.993 218.5,332C 223.577,328.297 229.243,325.964 235.5,325C 249.341,321.872 263.341,320.039 277.5,319.5C 277.5,315.5 277.5,311.5 277.5,307.5C 269.833,307.5 262.167,307.5 254.5,307.5C 246.896,305.574 239.562,306.574 232.5,310.5C 231.548,308.955 231.215,307.288 231.5,305.5C 221.392,304.896 212.059,307.23 203.5,312.5C 201.422,309.949 198.756,308.116 195.5,307C 188.908,305.671 182.241,305.171 175.5,305.5C 174.29,305.068 173.29,304.401 172.5,303.5C 189.712,305.547 206.712,304.381 223.5,300C 225.359,298.442 226.859,296.609 228,294.5C 228.499,289.511 228.666,284.511 228.5,279.5C 238.833,279.5 249.167,279.5 259.5,279.5C 259.17,286.532 259.503,293.532 260.5,300.5C 262.316,301.815 263.983,303.315 265.5,305C 278.5,305.667 291.5,305.667 304.5,305C 306.815,303.891 308.315,302.057 309,299.5C 310.662,286.551 311.496,273.551 311.5,260.5C 295.554,258.835 279.554,258.168 263.5,258.5C 263.861,252.407 263.361,246.407 262,240.5C 261.167,239.667 260.333,238.833 259.5,238C 254.177,237.501 248.844,237.334 243.5,237.5C 235.833,237.5 228.167,237.5 220.5,237.5C 220.666,243.842 220.5,250.175 220,256.5C 215.085,253.925 210.419,250.925 206,247.5C 203.917,244.252 202.417,240.752 201.5,237C 187.171,236.5 172.837,236.333 158.5,236.5C 157.724,229.863 157.391,223.196 157.5,216.5C 155.5,216.5 153.5,216.5 151.5,216.5C 146.833,216.5 142.167,216.5 137.5,216.5C 137.5,223.5 137.5,230.5 137.5,237.5C 132.167,237.5 126.833,237.5 121.5,237.5C 121.869,235.559 122.536,233.725 123.5,232C 121.833,231.667 120.167,231.333 118.5,231C 125.365,227.102 128.365,221.269 127.5,213.5C 129.167,213.5 130.833,213.5 132.5,213.5C 132.963,210.779 133.629,208.112 134.5,205.5C 136.268,202.838 136.935,199.838 136.5,196.5C 143.513,197.955 148.013,195.288 150,188.5C 153.682,185.929 157.016,182.929 160,179.5C 160.499,175.514 160.666,171.514 160.5,167.5C 156.486,167.334 152.486,167.501 148.5,168C 142.779,172.686 137.779,178.019 133.5,184C 131.365,184.635 129.365,184.301 127.5,183C 114.82,171.705 111.32,157.871 117,141.5C 118.632,137.576 120.632,133.91 123,130.5C 124.25,125.332 126.584,120.666 130,116.5C 140.578,110.156 149.744,102.322 157.5,93C 162.358,89.5582 167.691,87.8916 173.5,88C 176.88,90.3491 180.214,92.6824 183.5,95C 184.337,96.0113 184.67,97.1779 184.5,98.5C 185.833,98.5 187.167,98.5 188.5,98.5C 188.5,99.5 188.5,100.5 188.5,101.5C 192.422,104.572 196.589,107.572 201,110.5C 202.202,112.677 202.702,115.011 202.5,117.5 Z"/></g>
<g><path style="opacity:1" fill="#fefffe" d="M 154.5,113.5 C 164.167,113.5 173.833,113.5 183.5,113.5C 183.666,121.507 183.5,129.507 183,137.5C 181.878,139.624 180.378,141.457 178.5,143C 170.937,146.99 164.77,152.49 160,159.5C 151.542,160.457 143.042,160.79 134.5,160.5C 134.334,152.16 134.5,143.827 135,135.5C 137.682,130.136 140.349,124.802 143,119.5C 146.751,117.205 150.585,115.205 154.5,113.5 Z"/></g>
<g><path style="opacity:1" fill="#ecc284" d="M 202.5,117.5 C 202.183,120.572 202.516,123.572 203.5,126.5C 206.986,128.243 210.652,129.41 214.5,130C 229.464,131.543 244.464,131.876 259.5,131C 263.438,129.526 267.438,128.359 271.5,127.5C 273.117,128.038 274.784,128.371 276.5,128.5C 276.5,132.5 276.5,136.5 276.5,140.5C 250.885,139.074 225.218,137.74 199.5,136.5C 199.334,131.156 199.501,125.823 200,120.5C 200.377,119.058 201.21,118.058 202.5,117.5 Z"/></g>
<g><path style="opacity:1" fill="#fefffe" d="M 305.5,129.5 C 318.504,129.333 331.504,129.5 344.5,130C 349.6,132.258 354.6,134.758 359.5,137.5C 366.227,144.803 370.394,153.47 372,163.5C 372.414,163.957 372.914,164.291 373.5,164.5C 374.84,174.908 374.506,185.241 372.5,195.5C 363.161,195.666 353.827,195.5 344.5,195C 339.534,191.511 334.534,188.011 329.5,184.5C 322.279,173.769 314.446,163.436 306,153.5C 305.5,145.507 305.334,137.507 305.5,129.5 Z"/></g>
<g><path style="opacity:1" fill="#d88635" d="M 314.5,186.5 C 314.5,189.167 314.5,191.833 314.5,194.5C 313.5,194.5 312.5,194.5 311.5,194.5C 308.482,194.665 305.482,194.498 302.5,194C 294.033,187.164 286.533,179.331 280,170.5C 274.238,161.995 271.738,152.662 272.5,142.5C 276.555,142.176 280.555,142.509 284.5,143.5C 290.782,159.269 300.615,172.269 314,182.5C 314.49,183.793 314.657,185.127 314.5,186.5 Z"/></g>
<g><path style="opacity:1" fill="#ecc284" d="M 314.5,186.5 C 317.187,186.336 319.854,186.503 322.5,187C 328.636,192.956 334.302,199.29 339.5,206C 348.626,211.709 358.626,214.042 369.5,213C 370.406,214.699 370.739,216.533 370.5,218.5C 366.466,218.505 362.466,218.838 358.5,219.5C 353.105,236.683 351.105,254.35 352.5,272.5C 350.5,272.5 348.5,272.5 346.5,272.5C 346.981,256.504 347.315,240.504 347.5,224.5C 340.748,221.642 333.748,219.308 326.5,217.5C 324.889,214.78 324.056,211.78 324,208.5C 319.946,203.619 315.779,198.952 311.5,194.5C 312.5,194.5 313.5,194.5 314.5,194.5C 314.5,191.833 314.5,189.167 314.5,186.5 Z"/></g>
<g><path style="opacity:1" fill="#ecc284" d="M 134.5,205.5 C 133.629,208.112 132.963,210.779 132.5,213.5C 130.833,213.5 129.167,213.5 127.5,213.5C 128.365,221.269 125.365,227.102 118.5,231C 120.167,231.333 121.833,231.667 123.5,232C 122.536,233.725 121.869,235.559 121.5,237.5C 116.733,237.351 114.4,239.684 114.5,244.5C 113.5,244.5 112.5,244.5 111.5,244.5C 110.061,243.012 109.395,241.178 109.5,239C 110.273,232.084 112.273,225.584 115.5,219.5C 120.152,216.784 124.152,213.284 127.5,209C 129.577,207.295 131.91,206.128 134.5,205.5 Z"/></g>
<g><path style="opacity:1" fill="#fefffe" d="M 151.5,216.5 C 151.5,223.5 151.5,230.5 151.5,237.5C 146.833,237.5 142.167,237.5 137.5,237.5C 137.5,230.5 137.5,223.5 137.5,216.5C 142.167,216.5 146.833,216.5 151.5,216.5 Z"/></g>
<g><path style="opacity:1" fill="#662d07" d="M 151.5,216.5 C 153.5,216.5 155.5,216.5 157.5,216.5C 157.391,223.196 157.724,229.863 158.5,236.5C 158.5,243.5 158.5,250.5 158.5,257.5C 157.833,257.5 157.5,257.833 157.5,258.5C 153.167,258.5 148.833,258.5 144.5,258.5C 142.5,258.5 140.5,258.5 138.5,258.5C 137.911,251.515 137.578,244.515 137.5,237.5C 142.167,237.5 146.833,237.5 151.5,237.5C 151.5,230.5 151.5,223.5 151.5,216.5 Z"/></g>
<g><path style="opacity:1" fill="#fefffe" d="M 158.5,236.5 C 172.837,236.333 187.171,236.5 201.5,237C 202.417,240.752 203.917,244.252 206,247.5C 210.419,250.925 215.085,253.925 220,256.5C 220.5,250.175 220.666,243.842 220.5,237.5C 228.167,237.5 235.833,237.5 243.5,237.5C 243.5,244.5 243.5,251.5 243.5,258.5C 235.833,258.5 228.167,258.5 220.5,258.5C 220.5,265.5 220.5,272.5 220.5,279.5C 223.167,279.5 225.833,279.5 228.5,279.5C 228.666,284.511 228.499,289.511 228,294.5C 226.859,296.609 225.359,298.442 223.5,300C 206.712,304.381 189.712,305.547 172.5,303.5C 169.855,302.509 167.522,301.009 165.5,299C 157.615,296.392 149.948,293.225 142.5,289.5C 139.791,285.692 137.458,281.692 135.5,277.5C 141.907,273.013 144.907,266.68 144.5,258.5C 148.833,258.5 153.167,258.5 157.5,258.5C 157.5,266.167 157.5,273.833 157.5,281.5C 165.5,281.5 173.5,281.5 181.5,281.5C 181.5,273.5 181.5,265.5 181.5,257.5C 173.833,257.5 166.167,257.5 158.5,257.5C 158.5,250.5 158.5,243.5 158.5,236.5 Z"/></g>
<g><path style="opacity:1" fill="#fd794b" d="M 121.5,237.5 C 126.833,237.5 132.167,237.5 137.5,237.5C 137.578,244.515 137.911,251.515 138.5,258.5C 140.5,258.5 142.5,258.5 144.5,258.5C 144.907,266.68 141.907,273.013 135.5,277.5C 129.978,277.452 124.645,276.452 119.5,274.5C 116.413,272.579 114.246,269.913 113,266.5C 112.799,259.088 112.299,251.754 111.5,244.5C 112.5,244.5 113.5,244.5 114.5,244.5C 114.4,239.684 116.733,237.351 121.5,237.5 Z"/></g>
<g><path style="opacity:1" fill="#662d07" d="M 243.5,237.5 C 248.844,237.334 254.177,237.501 259.5,238C 260.333,238.833 261.167,239.667 262,240.5C 263.361,246.407 263.861,252.407 263.5,258.5C 263.5,265.5 263.5,272.5 263.5,279.5C 262.167,279.5 260.833,279.5 259.5,279.5C 249.167,279.5 238.833,279.5 228.5,279.5C 225.833,279.5 223.167,279.5 220.5,279.5C 220.5,272.5 220.5,265.5 220.5,258.5C 228.167,258.5 235.833,258.5 243.5,258.5C 243.5,251.5 243.5,244.5 243.5,237.5 Z"/></g>
<g><path style="opacity:1" fill="#643010" d="M 158.5,257.5 C 166.167,257.5 173.833,257.5 181.5,257.5C 181.5,265.5 181.5,273.5 181.5,281.5C 173.5,281.5 165.5,281.5 157.5,281.5C 157.5,273.833 157.5,266.167 157.5,258.5C 157.5,257.833 157.833,257.5 158.5,257.5 Z"/></g>
<g><path style="opacity:1" fill="#fd794b" d="M 263.5,258.5 C 279.554,258.168 295.554,258.835 311.5,260.5C 311.496,273.551 310.662,286.551 309,299.5C 308.315,302.057 306.815,303.891 304.5,305C 291.5,305.667 278.5,305.667 265.5,305C 263.983,303.315 262.316,301.815 260.5,300.5C 259.503,293.532 259.17,286.532 259.5,279.5C 260.833,279.5 262.167,279.5 263.5,279.5C 263.5,272.5 263.5,265.5 263.5,258.5 Z"/></g>
<g><path style="opacity:1" fill="#efc486" d="M 119.5,274.5 C 124.645,276.452 129.978,277.452 135.5,277.5C 137.458,281.692 139.791,285.692 142.5,289.5C 149.948,293.225 157.615,296.392 165.5,299C 167.522,301.009 169.855,302.509 172.5,303.5C 173.29,304.401 174.29,305.068 175.5,305.5C 175.5,309.5 175.5,313.5 175.5,317.5C 181.478,317.493 186.811,319.327 191.5,323C 195.486,323.499 199.486,323.666 203.5,323.5C 203.5,319.833 203.5,316.167 203.5,312.5C 212.059,307.23 221.392,304.896 231.5,305.5C 231.215,307.288 231.548,308.955 232.5,310.5C 239.562,306.574 246.896,305.574 254.5,307.5C 241.92,309.851 229.253,312.351 216.5,315C 212.888,316.139 209.554,317.806 206.5,320C 205.536,321.725 204.869,323.559 204.5,325.5C 195.143,325.832 185.81,325.498 176.5,324.5C 175.995,323.081 174.995,322.415 173.5,322.5C 172.718,320.549 171.384,319.049 169.5,318C 165.122,316.125 161.122,313.625 157.5,310.5C 144.483,298.815 131.817,286.815 119.5,274.5 Z"/></g>
<g><path style="opacity:1" fill="#d88635" d="M 175.5,305.5 C 182.241,305.171 188.908,305.671 195.5,307C 198.756,308.116 201.422,309.949 203.5,312.5C 203.5,316.167 203.5,319.833 203.5,323.5C 199.486,323.666 195.486,323.499 191.5,323C 186.811,319.327 181.478,317.493 175.5,317.5C 175.5,313.5 175.5,309.5 175.5,305.5 Z"/></g>
<g><path style="opacity:1" fill="#fed18c" d="M 173.5,322.5 C 174.995,322.415 175.995,323.081 176.5,324.5C 185.81,325.498 195.143,325.832 204.5,325.5C 202.631,326.165 200.631,326.831 198.5,327.5C 193.92,333.66 189.586,339.993 185.5,346.5C 183.241,348.545 180.741,350.211 178,351.5C 177.228,351.355 176.561,351.022 176,350.5C 175.056,341.17 174.223,331.836 173.5,322.5 Z"/></g>
<g><path style="opacity:1" fill="#ecc284" d="M 226.5,363.5 C 217.49,362.99 208.49,362.323 199.5,361.5C 191.806,364.883 184.14,368.217 176.5,371.5C 176.5,368.833 176.5,366.167 176.5,363.5C 184.209,364.817 191.043,363.15 197,358.5C 199.932,353.623 203.099,348.957 206.5,344.5C 212.507,351.499 219.174,357.832 226.5,363.5 Z"/></g>
<g><path style="opacity:1" fill="#edc285" d="M 371.5,353.5 C 374.908,364.541 372.908,374.541 365.5,383.5C 361.167,386.5 356.833,389.5 352.5,392.5C 347.156,398.379 341.489,403.879 335.5,409C 329.713,411.481 324.047,414.147 318.5,417C 305.601,425.937 292.268,433.937 278.5,441C 265.577,447.393 253.244,446.56 241.5,438.5C 240.833,436.833 240.167,435.167 239.5,433.5C 240.457,427.561 240.79,421.561 240.5,415.5C 242.467,415.739 244.301,415.406 246,414.5C 254.587,400.083 258.42,384.417 257.5,367.5C 264.5,367.5 271.5,367.5 278.5,367.5C 275.812,369.266 272.979,370.933 270,372.5C 269.667,378.833 269.333,385.167 269,391.5C 264.906,403.387 260.739,415.22 256.5,427C 259.275,428.649 262.275,429.816 265.5,430.5C 278.968,425.767 291.968,419.934 304.5,413C 315.504,405.829 326.838,399.162 338.5,393C 344.705,385.127 351.872,378.294 360,372.5C 362.841,365.47 366.674,359.137 371.5,353.5 Z"/></g>
<g><path style="opacity:1" fill="#fed08c" d="M 226.5,363.5 C 231.946,365.3 237.613,366.467 243.5,367C 244.578,367.674 245.245,368.674 245.5,370C 244.588,375.229 243.421,380.396 242,385.5C 240.196,391.775 237.362,397.442 233.5,402.5C 219.154,407.062 204.821,411.395 190.5,415.5C 183.771,417.424 176.938,417.757 170,416.5C 163.385,414.709 156.885,412.542 150.5,410C 152.609,408.859 154.442,407.359 156,405.5C 161.618,397.507 167.284,389.507 173,381.5C 173.476,377.882 174.643,374.548 176.5,371.5C 184.14,368.217 191.806,364.883 199.5,361.5C 208.49,362.323 217.49,362.99 226.5,363.5 Z"/></g>
<g><path style="opacity:1" fill="#ecc284" d="M 233.5,402.5 C 233.5,405.833 233.5,409.167 233.5,412.5C 226.407,412.523 219.407,413.356 212.5,415C 205.174,415.5 197.841,415.666 190.5,415.5C 204.821,411.395 219.154,407.062 233.5,402.5 Z"/></g>
</svg>
