<?xml version="1.0" encoding="UTF-8"?>
<!DOCTYPE svg PUBLIC "-//W3C//DTD SVG 1.1//EN" "http://www.w3.org/Graphics/SVG/1.1/DTD/svg11.dtd">
<svg xmlns="http://www.w3.org/2000/svg" version="1.1" width="474px" height="474px" style="shape-rendering:geometricPrecision; text-rendering:geometricPrecision; image-rendering:optimizeQuality; fill-rule:evenodd; clip-rule:evenodd" xmlns:xlink="http://www.w3.org/1999/xlink">
<g><path style="opacity:1" fill="#c7a894" d="M 307.5,309.5 C 303.167,308.167 298.833,306.833 294.5,305.5C 294.5,302.167 294.5,298.833 294.5,295.5C 295.007,294.141 296.007,293.141 297.5,292.5C 301.66,290.329 305.993,288.662 310.5,287.5C 325.246,280.694 331.746,269.028 330,252.5C 329.563,243.062 327.563,234.062 324,225.5C 319.314,222.308 315.148,218.641 311.5,214.5C 307.818,209.161 303.651,204.161 299,199.5C 295.834,193.625 294.667,187.292 295.5,180.5C 295.365,175.047 296.032,169.714 297.5,164.5C 298.675,164.719 299.675,164.386 300.5,163.5C 310.889,153.942 321.722,144.942 333,136.5C 336.599,130.302 339.932,123.969 343,117.5C 351.383,107.594 358.716,96.9269 365,85.5C 368.817,75.6555 369.817,65.6555 368,55.5C 358.636,44.137 347.136,41.4703 333.5,47.5C 333.5,48.5 333.5,49.5 333.5,50.5C 332.325,50.281 331.325,50.6143 330.5,51.5C 325.219,58.5511 320.552,66.0511 316.5,74C 296.512,98.4147 283.512,126.248 277.5,157.5C 276.83,165.532 275.83,173.532 274.5,181.5C 260.159,182.74 245.825,182.407 231.5,180.5C 229.701,177.276 228.701,173.61 228.5,169.5C 226.469,158.919 224.135,148.585 221.5,138.5C 220.109,136.079 219.275,133.412 219,130.5C 218.364,111.81 213.864,94.1435 205.5,77.5C 199.178,71.0097 193.011,64.343 187,57.5C 184.784,51.9497 181.117,47.6164 176,44.5C 170.538,44.625 165.871,46.625 162,50.5C 161.448,53.0467 160.114,55.0467 158,56.5C 154.855,69.8479 154.855,83.1812 158,96.5C 160.875,99.5425 162.208,103.209 162,107.5C 164.991,115.486 167.991,123.486 171,131.5C 177.99,144.284 185.49,156.617 193.5,168.5C 194.325,169.386 195.325,169.719 196.5,169.5C 196.5,170.833 196.5,172.167 196.5,173.5C 199.5,173.167 200.833,174.5 200.5,177.5C 202.199,177.527 203.533,178.194 204.5,179.5C 205.785,185.113 205.785,190.78 204.5,196.5C 203.186,197.313 202.019,198.313 201,199.5C 198.151,203.849 195.984,208.516 194.5,213.5C 192.389,215.631 190.056,217.298 187.5,218.5C 187.698,221.77 186.198,223.77 183,224.5C 180.667,227.5 178.333,230.5 176,233.5C 172.835,239.326 170.669,245.493 169.5,252C 170.535,261.672 172.535,271.172 175.5,280.5C 177.99,283.155 180.656,285.655 183.5,288C 186.908,289.996 190.575,291.163 194.5,291.5C 194.5,295.833 194.5,300.167 194.5,304.5C 190.366,305.485 186.032,305.818 181.5,305.5C 177.526,305.231 173.86,304.064 170.5,302C 167.01,299.509 163.843,296.675 161,293.5C 155.533,273.113 154.2,252.447 157,231.5C 159.431,227.78 161.264,223.78 162.5,219.5C 167.91,212.597 173.743,206.264 180,200.5C 181.324,196.518 183.158,192.851 185.5,189.5C 169.485,168.59 156.985,145.59 148,120.5C 148.208,116.209 146.875,112.542 144,109.5C 142.019,99.2725 141.185,88.9391 141.5,78.5C 141.667,71.8333 141.833,65.1667 142,58.5C 141.093,48.5603 144.26,40.3937 151.5,34C 154.936,32.2239 158.603,31.2239 162.5,31C 171.833,30.3333 181.167,30.3333 190.5,31C 195.342,34.547 198.842,39.047 201,44.5C 209.738,51.9732 217.071,60.6399 223,70.5C 225.332,78.1619 227.665,85.8286 230,93.5C 231.225,103.184 232.559,112.851 234,122.5C 234.667,123.167 235.333,123.833 236,124.5C 238.358,137.987 241.358,151.32 245,164.5C 246.098,165.967 247.598,166.801 249.5,167C 253.486,167.499 257.486,167.666 261.5,167.5C 261.896,156.75 263.063,146.083 265,135.5C 272.219,108.114 284.552,83.4473 302,61.5C 306.304,53.0632 311.137,45.0632 316.5,37.5C 317.325,36.6143 318.325,36.281 319.5,36.5C 319.5,35.5 319.5,34.5 319.5,33.5C 322.014,33.2461 324.348,32.4127 326.5,31C 339.833,30.3333 353.167,30.3333 366.5,31C 372.75,32.7559 377.75,36.2559 381.5,41.5C 383.927,57.1384 384.094,72.8051 382,88.5C 377.608,102.378 370.608,114.711 361,125.5C 360.51,126.793 360.343,128.127 360.5,129.5C 359.178,129.33 358.011,129.663 357,130.5C 354.517,135.657 352.017,140.824 349.5,146C 344.732,152.96 338.732,158.126 331.5,161.5C 325.288,166.828 319.288,172.494 313.5,178.5C 312.167,181.167 312.167,183.833 313.5,186.5C 320.807,195.974 328.974,204.641 338,212.5C 338.748,214.332 339.748,215.999 341,217.5C 344.392,235.361 345.726,253.361 345,271.5C 344.032,278.733 341.698,285.4 338,291.5C 330.153,297.985 321.32,302.818 311.5,306C 310.295,307.376 308.962,308.542 307.5,309.5 Z M 309.5,223.5 C 310.289,223.783 310.956,224.283 311.5,225C 310.184,225.528 309.517,225.028 309.5,223.5 Z"/></g>
<g><path style="opacity:1" fill="#fefcf3" d="M 221.5,138.5 C 219.585,138.216 217.919,138.549 216.5,139.5C 210.174,126.979 204.008,114.313 198,101.5C 196.763,92.6443 194.763,83.9777 192,75.5C 190.5,73.6667 189,71.8333 187.5,70C 181.472,69.1697 175.472,69.3364 169.5,70.5C 169,71.5 168.5,72.5 168,73.5C 166.877,86.2861 167.544,98.9528 170,111.5C 174.222,116.253 178.222,121.253 182,126.5C 186.464,136.201 191.13,145.867 196,155.5C 198.381,156.435 200.881,156.768 203.5,156.5C 203.5,157.5 203.5,158.5 203.5,159.5C 208.167,159.5 212.833,159.5 217.5,159.5C 217.5,156.167 217.5,152.833 217.5,149.5C 220.118,156.735 223.784,163.401 228.5,169.5C 228.701,173.61 229.701,177.276 231.5,180.5C 231.611,181.117 231.944,181.617 232.5,182C 248.359,185.773 264.359,186.439 280.5,184C 281.893,182.829 282.727,181.329 283,179.5C 283.499,174.177 283.666,168.844 283.5,163.5C 287.514,163.666 291.514,163.499 295.5,163C 304.539,150.126 315.539,138.959 328.5,129.5C 331.491,126.339 334.325,123.005 337,119.5C 338.623,115.29 340.623,111.29 343,107.5C 347.202,102.039 351.202,96.372 355,90.5C 355.667,84.8333 355.667,79.1667 355,73.5C 350.688,71.9539 346.188,71.2873 341.5,71.5C 338.167,71.6667 334.833,71.8333 331.5,72C 323.173,83.4888 316.006,95.6554 310,108.5C 303.102,116.341 296.769,124.674 291,133.5C 289.027,139.449 286.027,144.783 282,149.5C 281.503,152.146 281.336,154.813 281.5,157.5C 280.167,157.5 278.833,157.5 277.5,157.5C 283.512,126.248 296.512,98.4147 316.5,74C 320.552,66.0511 325.219,58.5511 330.5,51.5C 331.325,50.6143 332.325,50.281 333.5,50.5C 333.5,49.5 333.5,48.5 333.5,47.5C 347.136,41.4703 358.636,44.137 368,55.5C 369.817,65.6555 368.817,75.6555 365,85.5C 358.716,96.9269 351.383,107.594 343,117.5C 339.932,123.969 336.599,130.302 333,136.5C 321.722,144.942 310.889,153.942 300.5,163.5C 299.675,164.386 298.675,164.719 297.5,164.5C 296.032,169.714 295.365,175.047 295.5,180.5C 292.518,180.963 289.518,181.296 286.5,181.5C 286.5,182.5 286.5,183.5 286.5,184.5C 284.61,184.297 283.11,184.963 282,186.5C 281.503,189.146 281.336,191.813 281.5,194.5C 283.199,194.34 284.866,194.506 286.5,195C 290.98,200.804 296.646,205.137 303.5,208C 305.771,210.782 308.437,212.949 311.5,214.5C 315.148,218.641 319.314,222.308 324,225.5C 327.563,234.062 329.563,243.062 330,252.5C 331.746,269.028 325.246,280.694 310.5,287.5C 305.993,288.662 301.66,290.329 297.5,292.5C 296.007,293.141 295.007,294.141 294.5,295.5C 289.694,298.745 285.027,302.245 280.5,306C 276.271,307.115 272.271,308.781 268.5,311C 263.731,312.234 258.897,313.068 254,313.5C 241.837,312.001 229.67,310.501 217.5,309C 215.919,308.293 214.419,307.46 213,306.5C 212.502,303.183 212.335,299.85 212.5,296.5C 207.518,295.002 202.684,293.002 198,290.5C 193.166,280.994 187.499,271.994 181,263.5C 178.339,259.175 176.505,254.508 175.5,249.5C 176.29,244.297 177.79,239.297 180,234.5C 185.84,228.138 190.674,221.138 194.5,213.5C 200.081,209.619 205.747,205.619 211.5,201.5C 212.493,196.88 212.827,192.214 212.5,187.5C 210.5,187.5 208.5,187.5 206.5,187.5C 207.036,184.302 206.369,181.635 204.5,179.5C 203.533,178.194 202.199,177.527 200.5,177.5C 200.833,174.5 199.5,173.167 196.5,173.5C 196.5,172.167 196.5,170.833 196.5,169.5C 195.325,169.719 194.325,169.386 193.5,168.5C 185.49,156.617 177.99,144.284 171,131.5C 167.991,123.486 164.991,115.486 162,107.5C 162.208,103.209 160.875,99.5425 158,96.5C 154.855,83.1812 154.855,69.8479 158,56.5C 160.114,55.0467 161.448,53.0467 162,50.5C 165.871,46.625 170.538,44.625 176,44.5C 181.117,47.6164 184.784,51.9497 187,57.5C 193.011,64.343 199.178,71.0097 205.5,77.5C 213.864,94.1435 218.364,111.81 219,130.5C 219.275,133.412 220.109,136.079 221.5,138.5 Z M 309.5,223.5 C 309.517,225.028 310.184,225.528 311.5,225C 310.956,224.283 310.289,223.783 309.5,223.5 Z"/></g>
<g><path style="opacity:1" fill="#e0666a" d="M 216.5,139.5 C 217.207,142.786 217.54,146.119 217.5,149.5C 217.5,152.833 217.5,156.167 217.5,159.5C 212.833,159.5 208.167,159.5 203.5,159.5C 203.5,158.5 203.5,157.5 203.5,156.5C 200.881,156.768 198.381,156.435 196,155.5C 191.13,145.867 186.464,136.201 182,126.5C 178.222,121.253 174.222,116.253 170,111.5C 167.544,98.9528 166.877,86.2861 168,73.5C 168.5,72.5 169,71.5 169.5,70.5C 175.472,69.3364 181.472,69.1697 187.5,70C 189,71.8333 190.5,73.6667 192,75.5C 194.763,83.9777 196.763,92.6443 198,101.5C 204.008,114.313 210.174,126.979 216.5,139.5 Z"/></g>
<g><path style="opacity:1" fill="#e0666a" d="M 283.5,163.5 C 281.692,162.082 281.025,160.082 281.5,157.5C 281.336,154.813 281.503,152.146 282,149.5C 286.027,144.783 289.027,139.449 291,133.5C 296.769,124.674 303.102,116.341 310,108.5C 316.006,95.6554 323.173,83.4888 331.5,72C 334.833,71.8333 338.167,71.6667 341.5,71.5C 346.188,71.2873 350.688,71.9539 355,73.5C 355.667,79.1667 355.667,84.8333 355,90.5C 351.202,96.372 347.202,102.039 343,107.5C 340.623,111.29 338.623,115.29 337,119.5C 334.325,123.005 331.491,126.339 328.5,129.5C 315.539,138.959 304.539,150.126 295.5,163C 291.514,163.499 287.514,163.666 283.5,163.5 Z"/></g>
<g><path style="opacity:1" fill="#e4dcbc" d="M 221.5,138.5 C 224.135,148.585 226.469,158.919 228.5,169.5C 223.784,163.401 220.118,156.735 217.5,149.5C 217.54,146.119 217.207,142.786 216.5,139.5C 217.919,138.549 219.585,138.216 221.5,138.5 Z"/></g>
<g><path style="opacity:1" fill="#e4dcbc" d="M 277.5,157.5 C 278.833,157.5 280.167,157.5 281.5,157.5C 281.025,160.082 281.692,162.082 283.5,163.5C 283.666,168.844 283.499,174.177 283,179.5C 282.727,181.329 281.893,182.829 280.5,184C 264.359,186.439 248.359,185.773 232.5,182C 231.944,181.617 231.611,181.117 231.5,180.5C 245.825,182.407 260.159,182.74 274.5,181.5C 275.83,173.532 276.83,165.532 277.5,157.5 Z"/></g>
<g><path style="opacity:1" fill="#e4dcbc" d="M 204.5,179.5 C 206.369,181.635 207.036,184.302 206.5,187.5C 208.5,187.5 210.5,187.5 212.5,187.5C 212.827,192.214 212.493,196.88 211.5,201.5C 205.747,205.619 200.081,209.619 194.5,213.5C 195.984,208.516 198.151,203.849 201,199.5C 202.019,198.313 203.186,197.313 204.5,196.5C 205.785,190.78 205.785,185.113 204.5,179.5 Z"/></g>
<g><path style="opacity:1" fill="#e4dcbc" d="M 295.5,180.5 C 294.667,187.292 295.834,193.625 299,199.5C 303.651,204.161 307.818,209.161 311.5,214.5C 308.437,212.949 305.771,210.782 303.5,208C 296.646,205.137 290.98,200.804 286.5,195C 284.866,194.506 283.199,194.34 281.5,194.5C 281.336,191.813 281.503,189.146 282,186.5C 283.11,184.963 284.61,184.297 286.5,184.5C 286.5,183.5 286.5,182.5 286.5,181.5C 289.518,181.296 292.518,180.963 295.5,180.5 Z"/></g>
<g><path style="opacity:1" fill="#e4dcbc" d="M 194.5,213.5 C 190.674,221.138 185.84,228.138 180,234.5C 177.79,239.297 176.29,244.297 175.5,249.5C 176.505,254.508 178.339,259.175 181,263.5C 187.499,271.994 193.166,280.994 198,290.5C 202.684,293.002 207.518,295.002 212.5,296.5C 212.335,299.85 212.502,303.183 213,306.5C 214.419,307.46 215.919,308.293 217.5,309C 229.67,310.501 241.837,312.001 254,313.5C 258.897,313.068 263.731,312.234 268.5,311C 272.271,308.781 276.271,307.115 280.5,306C 285.027,302.245 289.694,298.745 294.5,295.5C 294.5,298.833 294.5,302.167 294.5,305.5C 283.205,313.462 270.538,317.462 256.5,317.5C 248.511,316.843 240.511,316.343 232.5,316C 220.346,312.802 208.013,310.302 195.5,308.5C 195.768,306.901 195.434,305.568 194.5,304.5C 194.5,300.167 194.5,295.833 194.5,291.5C 190.575,291.163 186.908,289.996 183.5,288C 180.656,285.655 177.99,283.155 175.5,280.5C 172.535,271.172 170.535,261.672 169.5,252C 170.669,245.493 172.835,239.326 176,233.5C 178.333,230.5 180.667,227.5 183,224.5C 186.198,223.77 187.698,221.77 187.5,218.5C 190.056,217.298 192.389,215.631 194.5,213.5 Z"/></g>
<g><path style="opacity:1" fill="#010103" d="M 303.5,249.5 C 308.833,249.5 314.167,249.5 319.5,249.5C 319.5,259.833 319.5,270.167 319.5,280.5C 310.833,280.5 302.167,280.5 293.5,280.5C 293.5,275.833 293.5,271.167 293.5,266.5C 296.5,266.5 299.5,266.5 302.5,266.5C 302.635,260.819 302.968,255.152 303.5,249.5 Z"/></g>
<g><path style="opacity:1" fill="#010103" d="M 236.5,250.5 C 241.167,250.5 245.833,250.5 250.5,250.5C 250.5,259.833 250.5,269.167 250.5,278.5C 240.833,278.5 231.167,278.5 221.5,278.5C 221.5,273.833 221.5,269.167 221.5,264.5C 226.5,264.5 231.5,264.5 236.5,264.5C 236.5,259.833 236.5,255.167 236.5,250.5 Z"/></g>
<g><path style="opacity:1" fill="#e0666a" d="M 263.5,278.5 C 272.167,278.5 280.833,278.5 289.5,278.5C 289.5,283.167 289.5,287.833 289.5,292.5C 280.833,292.5 272.167,292.5 263.5,292.5C 263.5,287.833 263.5,283.167 263.5,278.5 Z"/></g>
<g><path style="opacity:1" fill="#6ed674" d="M 194.5,304.5 C 195.434,305.568 195.768,306.901 195.5,308.5C 208.013,310.302 220.346,312.802 232.5,316C 240.511,316.343 248.511,316.843 256.5,317.5C 270.538,317.462 283.205,313.462 294.5,305.5C 298.833,306.833 303.167,308.167 307.5,309.5C 307.5,313.167 307.5,316.833 307.5,320.5C 302.833,320.5 298.167,320.5 293.5,320.5C 293.5,322.833 293.5,325.167 293.5,327.5C 281.599,330.839 269.432,332.172 257,331.5C 243.13,331.34 229.296,330.673 215.5,329.5C 215.756,333.269 215.423,336.936 214.5,340.5C 211.693,343.426 209.36,346.76 207.5,350.5C 208.47,358.778 208.803,367.111 208.5,375.5C 203.833,375.5 199.167,375.5 194.5,375.5C 193.762,362.513 193.429,349.513 193.5,336.5C 195.772,332.834 198.439,329.334 201.5,326C 195.772,323.774 189.772,322.607 183.5,322.5C 182.609,321.89 181.609,321.557 180.5,321.5C 180.5,320.5 180.5,319.5 180.5,318.5C 180.294,314.102 180.627,309.768 181.5,305.5C 186.032,305.818 190.366,305.485 194.5,304.5 Z"/></g>
<g><path style="opacity:1" fill="#c6a893" d="M 180.5,318.5 C 180.5,319.5 180.5,320.5 180.5,321.5C 180.665,325.182 180.499,328.848 180,332.5C 176.535,339.43 173.035,346.43 169.5,353.5C 167.213,356.441 164.713,359.108 162,361.5C 161.517,362.448 161.351,363.448 161.5,364.5C 154.854,365.939 148.187,366.939 141.5,367.5C 131.889,366.906 123.889,370.239 117.5,377.5C 114.203,387.643 116.536,396.31 124.5,403.5C 129.444,407.05 134.278,406.717 139,402.5C 139.498,399.518 139.665,396.518 139.5,393.5C 139.5,390.833 139.5,388.167 139.5,385.5C 144.167,385.5 148.833,385.5 153.5,385.5C 153.5,390.5 153.5,395.5 153.5,400.5C 153.5,403.167 153.5,405.833 153.5,408.5C 154.873,408.343 156.207,408.51 157.5,409C 162.428,414.84 168.428,419.173 175.5,422C 176.167,423 176.833,424 177.5,425C 183.148,428.077 189.148,429.911 195.5,430.5C 202.29,432.603 207.956,430.936 212.5,425.5C 215.197,418.136 220.197,413.136 227.5,410.5C 227.833,409.5 228.167,408.5 228.5,407.5C 227.129,405.319 226.129,402.986 225.5,400.5C 224.5,400.5 223.5,400.5 222.5,400.5C 219.586,395.586 215.586,391.586 210.5,388.5C 209.506,383.544 209.173,378.544 209.5,373.5C 214.179,373.334 218.845,373.501 223.5,374C 228.25,377.373 232.583,381.206 236.5,385.5C 237.325,386.386 238.325,386.719 239.5,386.5C 241.69,390.968 243.69,395.634 245.5,400.5C 245.335,403.518 245.502,406.518 246,409.5C 250.015,408.57 253.848,407.237 257.5,405.5C 257.721,402.721 257.388,400.054 256.5,397.5C 255.027,394.007 253.86,390.34 253,386.5C 248.914,380.749 245.247,374.749 242,368.5C 241.501,363.177 241.334,357.844 241.5,352.5C 246.167,352.5 250.833,352.5 255.5,352.5C 256.553,357.005 258.553,361.005 261.5,364.5C 269.739,376.057 273.072,389.057 271.5,403.5C 280.41,406.251 289.41,406.751 298.5,405C 303.752,403.67 309.086,402.337 314.5,401C 317.557,400.084 320.224,398.584 322.5,396.5C 325.814,395.699 328.48,393.866 330.5,391C 323.831,388.915 317.998,385.415 313,380.5C 309.83,374.164 307.33,367.497 305.5,360.5C 301.84,351.9 298.173,343.234 294.5,334.5C 293.526,332.257 293.192,329.924 293.5,327.5C 293.5,325.167 293.5,322.833 293.5,320.5C 298.167,320.5 302.833,320.5 307.5,320.5C 311.74,327.998 315.24,335.998 318,344.5C 321.297,341.433 325.131,339.267 329.5,338C 334.103,337.889 338.436,336.889 342.5,335C 352.833,334.333 363.167,334.333 373.5,335C 375.587,335.792 377.421,336.959 379,338.5C 380.931,353.812 378.931,368.479 373,382.5C 370.194,384.639 367.694,387.139 365.5,390C 359.6,391.758 353.6,392.925 347.5,393.5C 347.5,397.167 347.5,400.833 347.5,404.5C 346.448,404.351 345.448,404.517 344.5,405C 334.947,412.839 323.947,417.506 311.5,419C 297.503,420.656 283.503,420.822 269.5,419.5C 267.792,419.703 266.459,420.536 265.5,422C 263.5,422.333 261.5,422.667 259.5,423C 258.449,424.385 257.116,425.385 255.5,426C 247.659,426.829 239.992,428.162 232.5,430C 230.242,432.585 228.409,435.418 227,438.5C 224.361,441.478 221.194,443.645 217.5,445C 203.472,445.791 189.472,445.457 175.5,444C 171.938,442.636 168.438,441.136 165,439.5C 161.647,435.566 157.48,432.732 152.5,431C 148.66,428.326 145.327,425.159 142.5,421.5C 112.928,426.931 98.9281,414.598 100.5,384.5C 100.184,377.668 101.017,371.001 103,364.5C 104.5,363 106,361.5 107.5,360C 110.549,357.637 113.882,355.637 117.5,354C 126.147,353.085 134.814,352.418 143.5,352C 146.287,350.127 148.954,348.294 151.5,346.5C 157.211,337.648 162.211,328.482 166.5,319C 171.155,318.501 175.821,318.334 180.5,318.5 Z"/></g>
<g><path style="opacity:1" fill="#fefcf3" d="M 180.5,321.5 C 181.609,321.557 182.609,321.89 183.5,322.5C 183.5,326.167 183.5,329.833 183.5,333.5C 187.048,334.13 190.381,335.13 193.5,336.5C 193.429,349.513 193.762,362.513 194.5,375.5C 199.167,375.5 203.833,375.5 208.5,375.5C 208.803,367.111 208.47,358.778 207.5,350.5C 209.36,346.76 211.693,343.426 214.5,340.5C 236.127,346.119 258.127,348.286 280.5,347C 284.504,346.119 288.504,345.286 292.5,344.5C 297.389,348.551 300.889,353.551 303,359.5C 303.671,360.252 304.504,360.586 305.5,360.5C 307.33,367.497 309.83,374.164 313,380.5C 317.998,385.415 323.831,388.915 330.5,391C 328.48,393.866 325.814,395.699 322.5,396.5C 322.5,395.5 322.5,394.5 322.5,393.5C 319.15,393.335 315.817,393.502 312.5,394C 311.667,394.833 310.833,395.667 310,396.5C 309.769,392.019 307.603,389.019 303.5,387.5C 301.23,382.725 298.73,378.058 296,373.5C 293.605,371.056 291.438,368.39 289.5,365.5C 287.917,361.407 286.084,357.407 284,353.5C 283.075,352.953 282.242,352.287 281.5,351.5C 276.88,350.507 272.214,350.173 267.5,350.5C 267.5,353.167 267.5,355.833 267.5,358.5C 265.5,358.5 263.5,358.5 261.5,358.5C 261.5,360.5 261.5,362.5 261.5,364.5C 258.553,361.005 256.553,357.005 255.5,352.5C 250.833,352.5 246.167,352.5 241.5,352.5C 241.334,357.844 241.501,363.177 242,368.5C 245.247,374.749 248.914,380.749 253,386.5C 253.86,390.34 255.027,394.007 256.5,397.5C 253.131,399.511 249.464,400.511 245.5,400.5C 243.69,395.634 241.69,390.968 239.5,386.5C 238.325,386.719 237.325,386.386 236.5,385.5C 232.583,381.206 228.25,377.373 223.5,374C 218.845,373.501 214.179,373.334 209.5,373.5C 209.173,378.544 209.506,383.544 210.5,388.5C 215.586,391.586 219.586,395.586 222.5,400.5C 215.159,400.334 207.826,400.5 200.5,401C 198.167,402 195.833,403 193.5,404C 192.524,410.076 192.19,416.242 192.5,422.5C 189.357,421.963 186.357,420.963 183.5,419.5C 180.317,416.485 177.317,413.318 174.5,410C 170.656,407.578 166.99,404.911 163.5,402C 160.312,400.684 156.978,400.184 153.5,400.5C 153.5,395.5 153.5,390.5 153.5,385.5C 148.833,385.5 144.167,385.5 139.5,385.5C 139.5,388.167 139.5,390.833 139.5,393.5C 134.938,392.219 130.604,390.386 126.5,388C 129.127,379.173 135.127,375.006 144.5,375.5C 144.5,372.833 144.5,370.167 144.5,367.5C 143.5,367.5 142.5,367.5 141.5,367.5C 148.187,366.939 154.854,365.939 161.5,364.5C 161.351,363.448 161.517,362.448 162,361.5C 164.713,359.108 167.213,356.441 169.5,353.5C 173.035,346.43 176.535,339.43 180,332.5C 180.499,328.848 180.665,325.182 180.5,321.5 Z"/></g>
<g><path style="opacity:1" fill="#e4dcbc" d="M 183.5,322.5 C 189.772,322.607 195.772,323.774 201.5,326C 198.439,329.334 195.772,332.834 193.5,336.5C 190.381,335.13 187.048,334.13 183.5,333.5C 183.5,329.833 183.5,326.167 183.5,322.5 Z"/></g>
<g><path style="opacity:1" fill="#e4dcbc" d="M 293.5,327.5 C 293.192,329.924 293.526,332.257 294.5,334.5C 298.173,343.234 301.84,351.9 305.5,360.5C 304.504,360.586 303.671,360.252 303,359.5C 300.889,353.551 297.389,348.551 292.5,344.5C 288.504,345.286 284.504,346.119 280.5,347C 258.127,348.286 236.127,346.119 214.5,340.5C 215.423,336.936 215.756,333.269 215.5,329.5C 229.296,330.673 243.13,331.34 257,331.5C 269.432,332.172 281.599,330.839 293.5,327.5 Z"/></g>
<g><path style="opacity:1" fill="#e4dcbc" d="M 363.5,351.5 C 363.5,352.5 363.5,353.5 363.5,354.5C 355.493,354.334 347.493,354.5 339.5,355C 337.593,356.122 335.593,356.955 333.5,357.5C 333.953,356.542 334.619,355.708 335.5,355C 342.776,352.513 350.109,350.346 357.5,348.5C 359.987,348.759 361.987,349.759 363.5,351.5 Z"/></g>
<g><path style="opacity:1" fill="#c6a893" d="M 303.5,387.5 C 303.5,392.167 303.5,396.833 303.5,401.5C 298.786,401.827 294.12,401.493 289.5,400.5C 285.58,393.089 281.08,386.089 276,379.5C 274.141,374.323 271.474,369.656 268,365.5C 267.503,363.19 267.337,360.857 267.5,358.5C 267.5,355.833 267.5,353.167 267.5,350.5C 272.214,350.173 276.88,350.507 281.5,351.5C 282.242,352.287 283.075,352.953 284,353.5C 286.084,357.407 287.917,361.407 289.5,365.5C 291.438,368.39 293.605,371.056 296,373.5C 298.73,378.058 301.23,382.725 303.5,387.5 Z"/></g>
<g><path style="opacity:1" fill="#fefcf3" d="M 363.5,351.5 C 364.867,354.012 364.534,356.345 362.5,358.5C 357.767,358.223 353.1,358.557 348.5,359.5C 347.5,361.833 345.833,363.5 343.5,364.5C 342.509,368.445 342.176,372.445 342.5,376.5C 334.818,374.483 328.818,370.15 324.5,363.5C 326.5,362.833 328.5,362.167 330.5,361.5C 330.815,359.517 331.815,358.184 333.5,357.5C 335.593,356.955 337.593,356.122 339.5,355C 347.493,354.5 355.493,354.334 363.5,354.5C 363.5,353.5 363.5,352.5 363.5,351.5 Z"/></g>
<g><path style="opacity:1" fill="#e4dcbc" d="M 267.5,358.5 C 267.337,360.857 267.503,363.19 268,365.5C 271.474,369.656 274.141,374.323 276,379.5C 281.08,386.089 285.58,393.089 289.5,400.5C 294.12,401.493 298.786,401.827 303.5,401.5C 303.5,396.833 303.5,392.167 303.5,387.5C 307.603,389.019 309.769,392.019 310,396.5C 310.833,395.667 311.667,394.833 312.5,394C 315.817,393.502 319.15,393.335 322.5,393.5C 322.5,394.5 322.5,395.5 322.5,396.5C 320.224,398.584 317.557,400.084 314.5,401C 309.086,402.337 303.752,403.67 298.5,405C 289.41,406.751 280.41,406.251 271.5,403.5C 273.072,389.057 269.739,376.057 261.5,364.5C 261.5,362.5 261.5,360.5 261.5,358.5C 263.5,358.5 265.5,358.5 267.5,358.5 Z"/></g>
<g><path style="opacity:1" fill="#e0666a" d="M 362.5,358.5 C 360.859,367.487 355.859,373.82 347.5,377.5C 345.865,376.954 344.199,376.62 342.5,376.5C 342.176,372.445 342.509,368.445 343.5,364.5C 345.833,363.5 347.5,361.833 348.5,359.5C 353.1,358.557 357.767,358.223 362.5,358.5 Z"/></g>
<g><path style="opacity:1" fill="#e4dcbc" d="M 141.5,367.5 C 142.5,367.5 143.5,367.5 144.5,367.5C 144.5,370.167 144.5,372.833 144.5,375.5C 135.127,375.006 129.127,379.173 126.5,388C 130.604,390.386 134.938,392.219 139.5,393.5C 139.665,396.518 139.498,399.518 139,402.5C 134.278,406.717 129.444,407.05 124.5,403.5C 116.536,396.31 114.203,387.643 117.5,377.5C 123.889,370.239 131.889,366.906 141.5,367.5 Z"/></g>
<g><path style="opacity:1" fill="#e4dcbc" d="M 256.5,397.5 C 257.388,400.054 257.721,402.721 257.5,405.5C 253.848,407.237 250.015,408.57 246,409.5C 245.502,406.518 245.335,403.518 245.5,400.5C 249.464,400.511 253.131,399.511 256.5,397.5 Z"/></g>
<g><path style="opacity:1" fill="#e4dcbc" d="M 153.5,400.5 C 156.978,400.184 160.312,400.684 163.5,402C 166.99,404.911 170.656,407.578 174.5,410C 177.317,413.318 180.317,416.485 183.5,419.5C 186.357,420.963 189.357,421.963 192.5,422.5C 193.5,425.167 194.5,427.833 195.5,430.5C 189.148,429.911 183.148,428.077 177.5,425C 176.833,424 176.167,423 175.5,422C 168.428,419.173 162.428,414.84 157.5,409C 156.207,408.51 154.873,408.343 153.5,408.5C 153.5,405.833 153.5,403.167 153.5,400.5 Z"/></g>
<g><path style="opacity:1" fill="#e0666a" d="M 222.5,400.5 C 223.5,400.5 224.5,400.5 225.5,400.5C 226.129,402.986 227.129,405.319 228.5,407.5C 228.167,408.5 227.833,409.5 227.5,410.5C 220.197,413.136 215.197,418.136 212.5,425.5C 207.956,430.936 202.29,432.603 195.5,430.5C 194.5,427.833 193.5,425.167 192.5,422.5C 192.19,416.242 192.524,410.076 193.5,404C 195.833,403 198.167,402 200.5,401C 207.826,400.5 215.159,400.334 222.5,400.5 Z"/></g>
</svg>
